<?xml version="1.0" encoding="UTF-8" standalone="no"?>
<svg
   xmlns:svg="http://www.w3.org/2000/svg"
   xmlns="http://www.w3.org/2000/svg"
   width="800.0"
   height="600.0"

>
    <g transform="scale(3.319747126528361, -3.319747126528361)   translate(73.19969946880718,-76.53238426061225)" stroke-width="0.5"  fill="none">
       <!-- hidden lines -->
       <g  stroke="rgb(200,200,200)" fill="none" stroke-dasharray="0.5,0.5" >
			<path d="M-42.42640687119285,-54.705270922157645 L-42.42640687119285,5.715476066494091 " />
			<path d="M-42.42640687119286,-54.705270922157645 L-42.42385164793618,-54.8239864282898 L-42.41619213392279,-54.93946542069927 L-42.403446781592834,-55.05142970037858 L-42.38564629561644,-55.15960953557105 L-42.362833558923455,-55.263744311578286 L-42.335063529394745,-55.36358315860376 L-42.3024031074638,-55.45888555612012 L-42.26493097494778,-55.54942191230426 L-42.222737405496076,-55.63497411714408 L-42.17592404711322,-55.715336067884635 L-42.12460367727993,-55.79031416554771 L-42.06889993126225,-55.85972778132873 L-42.008947004263426,-55.923409691747366 L-41.94488932813585,-55.98120648150354 L-41.8768812234321,-56.032978913068334 L-41.80508652763322,-56.07860226211937 " />
			<path d="M-42.42640687119286,5.715476066494084 L-42.42385164793618,5.8371420902964015 L-42.41619213392279,5.961465527660858 L-42.403446781592834,6.0881468725373935 L-42.38564629561644,6.216880938470228 L-42.362833558923455,6.347357593818756 L-42.335063529394745,6.479262508891836 L-42.3024031074638,6.612277913195552 L-42.26493097494778,6.746083360970163 L-42.222737405496076,6.880356503172007 L-42.17592404711322,7.014773864040582 L-42.12460367727993,7.149011620379984 L-42.06889993126225,7.282746381677354 L-42.008947004263426,7.415655969178943 L-41.94488932813585,7.547420192046957 L-41.8768812234321,7.677721618727324 L-41.805086527633215,7.8062463416701116 L-41.72967820044985,7.932684733560317 L-41.65083790714717,8.05673219323718 L-41.568755580897346,8.178089879505064 L-41.48362896521387,8.296465431068075 L-41.39566313757013,8.411573670854022 L-41.305070015349834,8.523137293030969 L-41.21206784531942,8.630887531061273 L-41.116880677852514,8.734564805183714 L-41.01973782717295,8.833919347763873 L-40.92087331891675,8.928711805006245 L-40.82052532634379,9.018713813578493 L-40.71893559655763,9.103708550758721 L-40.61634886811553,9.183491256780407 L-40.513012281431855,9.257869728116601 L-40.40917478339512,9.32666478051507 L-40.30508652763322,9.389710680668845 " />
			<path d="M-40.30508652763321,9.389710680668848 L40.305086527633236,55.930015793549245 " />
			<path d="M41.805086527633215,56.078602262119375 L41.72967820044985,56.117966618012666 L41.65083790714717,56.15097714856695 L41.568755580897346,56.17755432852274 L41.48362896521387,56.19763413112564 L41.39566313757013,56.21116818237239 L41.305070015349834,56.218123877548095 L41.21206784531942,56.21848445977384 L41.11688067785251,56.21224906037545 L41.01973782717295,56.19943270097623 L40.92087331891675,56.18006625730856 L40.82052532634379,56.154196384831536 L40.71893559655763,56.12188540633388 L40.61634886811553,56.08321116179291 L40.51301228143185,56.038266820851184 L40.40917478339512,55.98716065836269 L40.305086527633215,55.93001579354924 " />
			<path d="M-42.42640687119285,-26.536138880151096 L-42.42640687119285,-52.66402946983834 " />
			<path d="M-42.42640687119286,-52.66402946983833 L-42.42470441498118,-52.703061886261935 L-42.41961344193012,-52.739752572073904 L-42.41118298089317,-52.77374817591269 L-42.39949422181868,-52.80472130152944 L-42.38465973384625,-52.83237366079283 L-42.36682238120442,-52.85643894636685 L-42.346153947350025,-52.876685396395985 L-42.32285348059958,-52.89291802649862 " />
			<path d="M-42.32285348059958,-52.89291802649862 L-42.297145377185245,-52.90498050757322 L-42.26927722019636,-52.912756671333 L-42.23951739521902,-52.91617162907008 L-42.208152505636136,-52.91519249287463 L-42.175484612480176,-52.90982869236349 L-42.14182832542032,-52.90013188386771 L-42.10750777289935,-52.88619545295393 L-42.07285348059958,-52.86815361507027 " />
			<path d="M-42.072853480599576,-52.86815361507027 L38.53731957466687,-6.327848502189866 " />
			<path d="M15.909902576697334,41.845449772545976 L38.53731957466687,54.909395067389596 " />
			<path d="M38.537319574666846,-6.3278485021898785 L38.571973866966616,-6.305875010097837 L38.60629441948758,-6.28018148053819 L38.63995070654744,-6.251015356246111 L38.6726185997034,-6.2186575229423555 L38.70398348928628,-6.183419604250232 L38.73374331426362,-6.145640960589749 L38.76161147125251,-6.105685420951266 L38.787319574666846,-6.063937779023422 L38.81062004141729,-6.020800087419563 L38.831288475271684,-5.976687785691295 L38.84912582791351,-5.932025699418499 L38.86396031588594,-5.887243948906764 L38.875649074960435,-5.842773806893709 L38.88407953599738,-5.799043545156775 L38.88917050904844,-5.75647431002188 L38.89087296526012,-5.715476066494087 " />
			<path d="M38.89087296526012,54.705270922157645 L38.88917050904844,54.744303338581254 L38.88407953599738,54.780994024393216 L38.875649074960435,54.814989628232 L38.86396031588594,54.84596275384875 L38.84912582791351,54.873615113112145 L38.831288475271684,54.89768039868616 L38.81062004141729,54.9179268487153 L38.787319574666846,54.93415947881793 " />
			<path d="M38.787319574666846,54.93415947881793 L38.76161147125251,54.94622195989253 L38.73374331426362,54.95399812365231 L38.70398348928628,54.95741308138939 L38.6726185997034,54.95643394519394 L38.63995070654744,54.9510701446828 L38.60629441948758,54.94137333618702 L38.571973866966616,54.92743690527324 L38.537319574666846,54.90939506738958 " />
			<path d="M38.890872965260115,54.70527092215766 L38.890872965260115,-5.7154760664940785 " />
			<path d="M41.71930009000631,-4.8989794855663575 L41.71762307742216,-5.005133110130975 L41.71259431240885,-5.113079319365365 L41.70422061010373,-5.222671821239517 L41.69251331880628,-5.333762092616887 L41.67748830459851,-5.4461995805375345 L41.6591659298428,-5.559831906252132 L41.637571025586176,-5.674505071730352 L41.61273285790851,-5.790063668363734 L41.58468508826024,-5.906351087580221 L41.5534657278433,-6.023209733084929 L41.51911708609723,-6.1404812344395 L41.481685713360065,-6.258006661690602 L41.44122233778188,-6.375626740756704 L41.39778179657648,-6.493182069281221 L41.351422961704294,-6.6105133326594885 L41.30220866008727,-6.727461519946841 L41.2502055884639,-6.843868139355136 L41.19548422299976,-6.959575433045714 L41.138118723776024,-7.074426590927687 L41.078186834285425,-7.188265963171804 L41.015769776071906,-7.300939271151892 L40.95095213865665,-7.412293816528012 L40.883821764899785,-7.5221786881879575 L40.814469631953,-7.630444966766637 L40.742989727964535,-7.736945926466199 L40.66947892470351,-7.841537233903351 L40.59403684627636,-7.9440771437144 L40.51676573411313,-8.044426690652955 L40.43777030840679,-8.142449877919898 L40.35715762619314,-8.238013861470444 L40.27503693626389,-8.33098913004849 L40.191519531109236,-8.42124968070426 L40.10671859609094,-8.508673189557372 L40.02074905604998,-8.593141177573946 L39.93372741955689,-8.674539171133041 L39.84577162101573,-8.752756857164833 L39.757000860835774,-8.827688232650285 L39.66753544388743,-8.899231748279702 L39.57749661646137,-8.9672904460755 L39.4870064019518,-9.031772090792629 L39.396187435486645,-9.092589294918632 L39.30516279772859,-9.149659637103891 L39.21405584807241,-9.202905773861584 L39.12299005746449,-9.252255544385951 L39.03208884107122,-9.297642068346855 L38.94147539102293,-9.339003836528061 L38.85127250946012,-9.376284794186425 L38.76160244210824,-9.409434417019005 L38.672586712606495,-9.43840777963516 L38.58434595781527,-9.463165616440815 L38.49699976432532,-9.483674374852415 L38.41066650639036,-9.499906260768412 L38.32546318550263,-9.511839276236692 L38.24150527182883,-9.519457249266878 L38.158906547721436,-9.522749855747108 L38.07777895351734,-9.521712633435591 L37.998232435832804,-9.516346988007975 L37.92037479856049,-9.506660191152328 L37.84431155677026,-9.492665370714331 L37.770145793711905,-9.474381492906005 L37.69797802111356,-9.451833336602128 L37.6279060429651,-9.425051459759132 L37.56002482297116,-9.394072158002018 L37.494426355853406,-9.358937415435424 " />
			<path d="M37.49442635585339,-9.358937415435413 L37.452006273219936,-9.333228959560193 L37.41066587742136,-9.305710174875866 L37.37043007036627,-9.276397637669334 L37.331323088600314,-9.245309004716942 L37.293368488707024,-9.212463002648702 L37.25658913311814,-9.17787941666807 L37.22100717634222,-9.141579078634075 L37.18664405161952,-9.103583854512994 L37.15352045801144,-9.063916631207103 L37.12165634793223,-9.022601302768471 L37.061782583126714,-8.935126855494884 L37.00716699834672,-8.841371246297573 L36.95794116731973,-8.741560340651118 L36.91422367938437,-8.63593459176962 L36.87611985379827,-8.52474846133386 L36.84372148601478,-8.408269806470814 L36.81710662653963,-8.286779234462369 L36.79633939290051,-8.160569426737812 L36.78146981518222,-8.029944433778626 L36.77253371549993,-7.895218942634246 L36.76955262170048,-7.756717518813399 L36.77253371549993,-7.614773824377362 L36.78146981518222,-7.46972981411883 L36.79633939290051,-7.321934911762871 L36.81710662653963,-7.1717451681745645 L36.84372148601478,-7.019522403601282 L36.87611985379827,-6.865633336016023 L36.91422367938437,-6.710448697661687 L36.95794116731973,-6.554342341924641 L37.00716699834672,-6.397690342689155 L37.061782583126714,-6.240870088342485 L37.12165634793223,-6.084259372613182 L37.18664405161952,-5.928235484432918 L37.25658913311814,-5.773174299014396 L37.331323088600314,-5.619449372335048 L37.41066587742136,-5.467431041207954 L37.49442635585339,-5.317485531108034 L37.58240273756732,-5.169974073902795 L37.67438307975378,-5.025252037613121 L37.770145793711905,-4.883668070300589 L37.869460178675965,-4.745563260143743 L37.97208697759365,-4.611270313726805 L38.07777895351734,-4.481112754520367 L38.18628148521949,-4.3554041434850115 L38.29733318059755,-4.234447323675497 L38.41066650639036,-4.118533690665312 L38.52600843268927,-4.007942490549212 L38.643081090691055,-3.9029401472149226 L38.76160244210824,-3.803779620504655 L38.88128695862402,-3.7106997968126896 L39.00184630975498,-3.6239249135871296 L39.1229900574645,-3.5436640191222493 L39.24442635585339,-3.4701104689428375 L39.365862654242285,-3.4034414599938074 L39.4870064019518,-3.3438176037572314 L39.60756575308276,-3.291382539325217 L39.72725026959854,-3.2462625873607514 L39.84577162101573,-3.208566445780157 L39.96284427901752,-3.178384927890293 L40.07818620531642,-3.1557907436113455 L40.191519531109236,-3.140838324312259 L40.302571226487295,-3.133563691680802 L40.411073758189445,-3.133984370944167 L40.51676573411313,-3.14209934864916 L40.568477913146296,-3.1490368132274287 L40.61939253303082,-3.157889075103703 L40.66947892470351,-3.168650802006437 L40.71870691799487,-3.1813155114737506 L40.767046859802505,-3.1958755747582246 L40.814469631953,-3.212322221422173 L40.86094666874168,-3.230645544620624 L40.90644997413946,-3.2508345070688374 L40.95095213865665,-3.272876947690747 L40.994426355853385,-3.2967595889443384 " />
			<path d="M40.99442635585339,-3.296759588944343 L41.03684643848685,-3.322468044819563 L41.078186834285425,-3.34998682950389 L41.118422641340516,-3.379299366710422 L41.15752962310647,-3.4103879996628153 L41.19548422299977,-3.443234001731055 L41.23226357858864,-3.4778175877116873 L41.267845535364565,-3.514117925745681 L41.30220866008727,-3.552113149866762 L41.33533225369534,-3.5917803731726528 L41.36719636377455,-3.633095701611286 L41.42707012858007,-3.720570148884872 L41.481685713360065,-3.814325758082182 L41.53091154438705,-3.914136663728639 L41.57462903232241,-4.019762412610136 L41.61273285790851,-4.130948543045896 L41.645131225692005,-4.247427197908943 L41.67174608516715,-4.368917769917387 L41.69251331880628,-4.495127577641943 L41.707382896524564,-4.625752570601131 L41.71631899620685,-4.760478061745511 L41.71930009000631,-4.898979485566344 " />
			<path d="M58.70762979144982,-21.606386129351307 L58.66520970881636,-21.580677673476085 L58.623869313017785,-21.55315888879176 L58.583633505962695,-21.523846351585227 L58.54452652419674,-21.492757718632834 L58.50657192430345,-21.459911716564594 L58.46979256871457,-21.425328130583964 L58.434210611938646,-21.389027792549967 L58.39984748721594,-21.351032568428888 L58.36672389360787,-21.311365345122997 L58.33485978352866,-21.270050016684362 L58.27498601872314,-21.182575569410776 L58.220370433943145,-21.088819960213467 L58.17114460291616,-20.98900905456701 L58.1274271149808,-20.883383305685513 L58.0893232893947,-20.772197175249755 L58.056924921611206,-20.655718520386706 L58.03031006213606,-20.53422794837826 L58.00954282849693,-20.408018140653706 L57.994673250778646,-20.277393147694518 L57.98573715109636,-20.142667656550138 L57.9827560572969,-20.00416623272929 L57.98573715109636,-19.862222538293253 L57.994673250778646,-19.717178528034722 L58.00954282849693,-19.569383625678764 L58.03031006213606,-19.419193882090457 L58.056924921611206,-19.266971117517173 L58.0893232893947,-19.113082049931915 L58.1274271149808,-18.95789741157758 L58.17114460291616,-18.801791055840532 L58.220370433943145,-18.645139056605046 L58.27498601872314,-18.488318802258377 L58.33485978352866,-18.331708086529076 L58.39984748721594,-18.17568419834881 L58.46979256871457,-18.020623012930287 L58.54452652419674,-17.866898086250938 L58.623869313017785,-17.714879755123846 L58.70762979144982,-17.564934245023927 L58.79560617316375,-17.417422787818687 L58.88758651535021,-17.272700751529012 L58.98334922930833,-17.13111678421648 L59.08266361427239,-16.993011974059634 L59.185290413190074,-16.858719027642696 L59.290982389113765,-16.728561468436258 L59.399484920815915,-16.602852857400904 L59.510536616193974,-16.48189603759139 L59.62386994198679,-16.365982404581203 L59.73921186828569,-16.255391204465106 L59.85628452628748,-16.150388861130814 L59.97480587770467,-16.051228334420546 L60.09449039422044,-15.95814851072858 L60.21504974535141,-15.871373627503022 L60.336193493060925,-15.79111273303814 L60.45762979144982,-15.717559182858729 L60.57906608983871,-15.6508901739097 L60.70020983754823,-15.591266317673124 L60.820769188679186,-15.53883125324111 L60.94045370519497,-15.493711301276644 L61.058975056612155,-15.456015159696049 L61.176047714613944,-15.425833641806186 L61.29138964091285,-15.403239457527238 L61.40472296670566,-15.388287038228151 L61.51577466208372,-15.381012405596694 L61.62427719378587,-15.38143308486006 L61.729969169709555,-15.389548062565051 L61.78168134874272,-15.396485527143321 L61.832595968627245,-15.405337789019596 L61.88268236029994,-15.41609951592233 L61.9319103535913,-15.428764225389642 L61.98025029539893,-15.443324288674116 L62.02767306754943,-15.459770935338065 L62.07415010433811,-15.478094258536515 L62.11965340973589,-15.49828322098473 L62.16415557425308,-15.52032566160664 L62.20762979144981,-15.54420830286023 " />
			<path d="M-33.23401871576774,-48.173298274735835 L-33.235695728351885,-48.279451899300454 L-33.2407244933652,-48.387398108534846 L-33.249098195670314,-48.496990610409 L-33.26080548696777,-48.608080881786364 L-33.275830501175534,-48.720518369707015 L-33.294152875931246,-48.83415069542161 L-33.31574778018787,-48.94882386089983 L-33.340585947865534,-49.06438245753321 L-33.36863371751381,-49.180669876749704 L-33.39985307793074,-49.29752852225441 L-33.434201719676814,-49.41480002360898 L-33.47163309241398,-49.53232545086008 L-33.512096467992166,-49.649945529926185 L-33.555537009197565,-49.7675008584507 L-33.60189584406975,-49.884832121828964 L-33.65111014568678,-50.00178030911632 L-33.70311321731015,-50.118186928524615 L-33.75783458277429,-50.23389422221519 L-33.81520008199802,-50.348745380097164 L-33.87513197148862,-50.462584752341286 L-33.93754902970214,-50.57525806032137 L-34.00236666711739,-50.68661260569749 L-34.06949704087426,-50.796497477357434 L-34.13884917382104,-50.904763755936116 L-34.21032907780951,-51.011264715635676 L-34.283839881070534,-51.11585602307283 L-34.359281959497686,-51.21839593288388 L-34.43655307166092,-51.31874547982243 L-34.515548497367256,-51.41676866708938 L-34.5961611795809,-51.51233265063992 L-34.67828186951016,-51.60530791921797 L-34.76179927466481,-51.69556846987374 L-34.8466002096831,-51.782991978726855 L-34.93256974972407,-51.867459966743425 L-35.01959138621716,-51.94885796030252 L-35.10754718475832,-52.02707564633431 L-35.19631794493827,-52.102007021819766 L-35.285783361886615,-52.17355053744918 L-35.37582218931268,-52.24160923524498 L-35.46631240382224,-52.306090879962106 L-35.5571313702874,-52.36690808408811 L-35.648156008045454,-52.42397842627337 L-35.739262957701634,-52.477224563031065 L-35.830328748309554,-52.52657433355543 L-35.921229964702825,-52.57196085751633 L-36.01184341475112,-52.61332262569754 L-36.10204629631393,-52.6506035833559 L-36.191716363665805,-52.683753206188484 L-36.28073209316755,-52.71272656880464 L-36.36897284795877,-52.737484405610296 L-36.45631904144873,-52.7579931640219 L-36.54265229938368,-52.77422504993789 L-36.62785562027142,-52.78615806540617 L-36.71181353394522,-52.793776038436356 L-36.79441225805261,-52.797068644916585 L-36.87553985225671,-52.79603142260507 L-36.95508636994124,-52.79066577717745 L-37.03294400721356,-52.780978980321805 L-37.10900724900379,-52.76698415988381 L-37.18317301206214,-52.74870028207548 L-37.25534078466048,-52.726152125771605 L-37.325412762808945,-52.69937024892861 L-37.39329398280289,-52.668390947171495 L-37.45889244992064,-52.633256204604905 " />
			<path d="M-37.458892449920654,-52.63325620460489 L-37.50131253255411,-52.60754774872967 L-37.54265292835269,-52.58002896404535 L-37.58288873540778,-52.55071642683881 L-37.62199571717373,-52.51962779388642 L-37.65995031706702,-52.48678179181818 L-37.696729672655906,-52.45219820583755 L-37.73231162943183,-52.41589786780356 L-37.76667475415453,-52.377902643682475 L-37.799798347762604,-52.338235420376584 L-37.831662457841816,-52.29692009193795 L-37.89153622264733,-52.20944564466436 L-37.94615180742733,-52.115690035467054 L-37.995377638454315,-52.0158791298206 L-38.039095126389675,-51.910253380939096 L-38.077198951975774,-51.79906725050334 L-38.10959731975927,-51.68258859564029 L-38.13621217923441,-51.56109802363185 L-38.15697941287354,-51.43488821590729 L-38.171848990591826,-51.30426322294811 L-38.180785090274114,-51.16953773180372 L-38.18376618407357,-51.03103630798288 L-38.180785090274114,-50.88909261354684 L-38.171848990591826,-50.744048603288306 L-38.15697941287354,-50.59625370093235 L-38.13621217923441,-50.446063957344045 L-38.10959731975927,-50.29384119277076 L-38.077198951975774,-50.1399521251855 L-38.039095126389675,-49.98476748683117 L-37.995377638454315,-49.82866113109412 L-37.94615180742733,-49.67200913185864 L-37.89153622264733,-49.51518887751197 L-37.831662457841816,-49.35857816178266 L-37.76667475415453,-49.202554273602395 L-37.696729672655906,-49.04749308818388 L-37.62199571717373,-48.893768161504525 L-37.54265292835269,-48.74174983037743 L-37.458892449920654,-48.59180432027751 L-37.370916068206725,-48.44429286307227 L-37.278935726020265,-48.2995708267826 L-37.18317301206214,-48.157986859470064 L-37.08385862709808,-48.019882049313225 L-36.9812318281804,-47.88558910289628 L-36.87553985225671,-47.755431543689845 L-36.76703732055456,-47.62972293265449 L-36.6559856251765,-47.508766112844974 L-36.54265229938368,-47.392852479834794 L-36.42731037308478,-47.28226127971869 L-36.31023771508299,-47.177258936384405 L-36.191716363665805,-47.07809840967413 L-36.07203184715003,-46.98501858598217 L-35.951472496019065,-46.89824370275661 L-35.83032874830955,-46.81798280829173 L-35.708892449920654,-46.74442925811232 L-35.58745615153176,-46.677760249163285 L-35.46631240382224,-46.61813639292671 L-35.345753052691286,-46.5657013284947 L-35.226068536175504,-46.52058137653023 L-35.10754718475832,-46.482885234949634 L-34.99047452675653,-46.45270371705977 L-34.875132600457626,-46.430109532780826 L-34.76179927466481,-46.41515711348174 L-34.65074757928675,-46.40788248085028 L-34.5422450475846,-46.40830316011365 L-34.43655307166092,-46.41641813781864 L-34.38484089262775,-46.42335560239691 L-34.33392627274323,-46.43220786427318 L-34.283839881070534,-46.44296959117592 L-34.234611887779174,-46.45563430064323 L-34.18627194597154,-46.4701943639277 L-34.13884917382104,-46.486641010591654 L-34.09237213703236,-46.504964333790106 L-34.04686883163458,-46.525153296238315 L-34.00236666711739,-46.547195736860225 L-33.95889244992066,-46.57107837811382 " />
			<path d="M-33.958892449920654,-46.571078378113825 L-33.9164723672872,-46.59678683398904 L-33.87513197148862,-46.62430561867337 L-33.83489616443353,-46.653618155879904 L-33.795789182667576,-46.684706788832294 L-33.75783458277428,-46.717552790900534 L-33.7210552271854,-46.75213637688117 L-33.68547327040948,-46.78843671491516 L-33.65111014568678,-46.82643193903624 L-33.617986552078705,-46.86609916234213 L-33.58612244199949,-46.907414490780766 L-33.526248677193976,-46.99488893805435 L-33.47163309241398,-47.08864454725166 L-33.422407261386994,-47.18845545289812 L-33.37868977345163,-47.29408120177962 L-33.340585947865534,-47.405267332215374 L-33.30818758008204,-47.52174598707842 L-33.281572720606896,-47.643236559086866 L-33.26080548696777,-47.76944636681142 L-33.24593590924948,-47.90007135977061 L-33.236999809567195,-48.034796850914994 L-33.23401871576774,-48.17329827473582 " />
			<path d="M-16.245689014324228,-64.88070491852079 L-16.28810909695768,-64.85499646264557 L-16.32944949275626,-64.82747767796124 L-16.369685299811355,-64.7981651407547 L-16.408792281577302,-64.76707650780232 L-16.4467468814706,-64.73423050573408 L-16.48352623705948,-64.69964691975345 L-16.5191081938354,-64.66334658171945 L-16.553471318558106,-64.62535135759836 L-16.586594912166174,-64.58568413429248 L-16.61845902224539,-64.54436880585385 L-16.678332787050902,-64.45689435858026 L-16.7329483718309,-64.36313874938294 L-16.782174202857888,-64.26332784373649 L-16.82589169079325,-64.157702094855 L-16.863995516379344,-64.04651596441923 L-16.89639388416284,-63.930037309556184 L-16.923008743637986,-63.80854673754774 L-16.943775977277113,-63.68233692982319 L-16.958645554995396,-63.551711936863995 L-16.967581654677687,-63.416986445719616 L-16.970562748477143,-63.278485021898774 L-16.967581654677687,-63.13654132746274 L-16.958645554995396,-62.9914973172042 L-16.943775977277113,-62.843702414848245 L-16.923008743637986,-62.69351267125994 L-16.89639388416284,-62.54128990668666 L-16.863995516379344,-62.387400839101396 L-16.82589169079325,-62.23221620074706 L-16.782174202857888,-62.076109845010016 L-16.7329483718309,-61.91945784577453 L-16.678332787050902,-61.76263759142786 L-16.618459022245393,-61.606026875698554 L-16.553471318558106,-61.45000298751829 L-16.48352623705948,-61.29494180209977 L-16.408792281577306,-61.14121687542042 L-16.32944949275626,-60.98919854429332 L-16.245689014324228,-60.839253034193405 L-16.1577126326103,-60.691741576988164 L-16.065732290423842,-60.54701954069849 L-15.969969576465711,-60.40543557338596 L-15.870655191501656,-60.26733076322912 L-15.768028392583968,-60.13303781681218 L-15.662336416660285,-60.00288025760574 L-15.553833884958129,-59.87717164657038 L-15.442782189580072,-59.75621482676087 L-15.32944886378726,-59.64030119375069 L-15.214106937488353,-59.52970999363458 L-15.097034279486566,-59.4247076503003 L-14.97851292806938,-59.32554712359003 L-14.8588284115536,-59.23246729989806 L-14.738269060422638,-59.1456924166725 L-14.617125312713124,-59.065431522207625 L-14.495689014324228,-58.99187797202821 L-14.374252715935333,-58.92520896307918 L-14.253108968225817,-58.8655851068426 L-14.132549617094856,-58.81315004241059 L-14.012865100579077,-58.768030090446125 L-13.89434374916189,-58.73033394886553 L-13.777271091160102,-58.70015243097566 L-13.661929164861197,-58.67755824669672 L-13.548595839068383,-58.662605827397634 L-13.437544143690326,-58.65533119476618 L-13.32904161198817,-58.65575187402954 L-13.223349636064487,-58.66386685173453 L-13.171637457031325,-58.670804316312804 L-13.1207228371468,-58.679656578189075 L-13.070636445474108,-58.69041830509181 L-13.021408452182746,-58.70308301455913 L-12.973068510375114,-58.7176430778436 L-12.925645738224615,-58.73408972450755 L-12.879168701435937,-58.752413047706 L-12.833665396038157,-58.77260201015421 L-12.789163231520966,-58.79464445077612 L-12.745689014324237,-58.81852709202971 " />
			<path d="M41.71930009000631,48.98979485566357 L41.71762307742216,48.88364123109895 L41.71259431240885,48.77569502186456 L41.70422061010373,48.6661025199904 L41.69251331880628,48.55501224861304 L41.67748830459851,48.44257476069239 L41.6591659298428,48.32894243497779 L41.637571025586176,48.214269269499574 L41.61273285790851,48.09871067286619 L41.58468508826024,47.9824232536497 L41.5534657278433,47.86556460814499 L41.51911708609723,47.74829310679042 L41.481685713360065,47.630767679539325 L41.44122233778188,47.51314760047322 L41.39778179657648,47.3955922719487 L41.351422961704294,47.27826100857044 L41.30220866008727,47.16131282128308 L41.2502055884639,47.04490620187479 L41.19548422299976,46.92919890818421 L41.138118723776024,46.81434775030224 L41.078186834285425,46.70050837805812 L41.015769776071906,46.587835070078036 L40.95095213865665,46.47648052470191 L40.883821764899785,46.36659565304197 L40.814469631953,46.25832937446329 L40.742989727964535,46.15182841476373 L40.66947892470351,46.04723710732657 L40.59403684627636,45.944697197515524 L40.51676573411313,45.84434765057697 L40.43777030840679,45.746324463310025 L40.35715762619314,45.650760479759484 L40.27503693626389,45.55778521118143 L40.191519531109236,45.46752466052566 L40.10671859609094,45.38010115167255 L40.02074905604998,45.29563316365598 L39.93372741955689,45.214235170096885 L39.84577162101573,45.13601748406509 L39.757000860835774,45.06108610857964 L39.66753544388743,44.98954259295022 L39.57749661646137,44.921483895154424 L39.4870064019518,44.8570022504373 L39.396187435486645,44.796185046311294 L39.30516279772859,44.73911470412603 L39.21405584807241,44.68586856736834 L39.12299005746449,44.63651879684397 L39.03208884107122,44.59113227288307 L38.94147539102293,44.54977050470186 L38.85127250946012,44.5124895470435 L38.76160244210824,44.47933992421092 L38.672586712606495,44.45036656159476 L38.58434595781527,44.42560872478911 L38.49699976432532,44.405099966377506 L38.41066650639036,44.38886808046151 L38.32546318550263,44.37693506499323 L38.24150527182883,44.36931709196305 L38.158906547721436,44.36602448548282 L38.07777895351734,44.367061707794335 L37.998232435832804,44.37242735322195 L37.92037479856049,44.3821141500776 L37.84431155677026,44.39610897051559 L37.770145793711905,44.41439284832392 L37.69797802111356,44.4369410046278 L37.6279060429651,44.463722881470794 L37.56002482297116,44.49470218322791 L37.494426355853406,44.5298369257945 " />
			<path d="M37.49442635585339,44.52983692579451 L37.452006273219936,44.55554538166973 L37.41066587742136,44.583064166354056 L37.37043007036627,44.61237670356059 L37.331323088600314,44.64346533651298 L37.293368488707024,44.67631133858122 L37.25658913311814,44.710894924561856 L37.22100717634222,44.747195262595845 L37.18664405161952,44.78519048671693 L37.15352045801144,44.82485771002282 L37.12165634793223,44.866173038461454 L37.061782583126714,44.95364748573504 L37.00716699834672,45.04740309493235 L36.95794116731973,45.147214000578806 L36.91422367938437,45.25283974946031 L36.87611985379827,45.36402587989606 L36.84372148601478,45.48050453475911 L36.81710662653963,45.60199510676755 L36.79633939290051,45.72820491449211 L36.78146981518222,45.858829907451295 L36.77253371549993,45.99355539859568 L36.76955262170048,46.13205682241652 L36.77253371549993,46.27400051685256 L36.78146981518222,46.4190445271111 L36.79633939290051,46.56683942946705 L36.81710662653963,46.71702917305536 L36.84372148601478,46.86925193762864 L36.87611985379827,47.0231410052139 L36.91422367938437,47.178325643568236 L36.95794116731973,47.33443199930528 L37.00716699834672,47.491083998540766 L37.061782583126714,47.647904252887436 L37.12165634793223,47.80451496861674 L37.18664405161952,47.96053885679701 L37.25658913311814,48.115600042215526 L37.331323088600314,48.26932496889488 L37.41066587742136,48.421343300021974 L37.49442635585339,48.57128881012189 L37.58240273756732,48.71880026732713 L37.67438307975378,48.863522303616804 L37.770145793711905,49.00510627092934 L37.869460178675965,49.14321108108618 L37.97208697759365,49.27750402750312 L38.07777895351734,49.40766158670956 L38.18628148521949,49.533370197744915 L38.29733318059755,49.65432701755443 L38.41066650639036,49.77024065056461 L38.52600843268927,49.880831850680714 L38.643081090691055,49.985834194015 L38.76160244210824,50.08499472072527 L38.88128695862402,50.178074544417235 L39.00184630975498,50.264849427642794 L39.1229900574645,50.34511032210767 L39.24442635585339,50.418663872287084 L39.365862654242285,50.48533288123612 L39.4870064019518,50.544956737472695 L39.60756575308276,50.597391801904706 L39.72725026959854,50.64251175386917 L39.84577162101573,50.68020789544977 L39.96284427901752,50.710389413339634 L40.07818620531642,50.73298359761858 L40.191519531109236,50.74793601691766 L40.302571226487295,50.75521064954912 L40.411073758189445,50.754789970285756 L40.51676573411313,50.746674992580765 L40.568477913146296,50.73973752800249 L40.61939253303082,50.73088526612622 L40.66947892470351,50.720123539223486 L40.71870691799487,50.70745882975617 L40.767046859802505,50.6928987664717 L40.814469631953,50.67645211980775 L40.86094666874168,50.6581287966093 L40.90644997413946,50.63793983416109 L40.95095213865665,50.61589739353918 L40.994426355853385,50.592014752285586 " />
			<path d="M40.99442635585339,50.59201475228558 L41.03684643848685,50.56630629641036 L41.078186834285425,50.538787511726035 L41.118422641340516,50.5094749745195 L41.15752962310647,50.47838634156711 L41.19548422299977,50.44554033949887 L41.23226357858864,50.410956753518235 L41.267845535364565,50.374656415484246 L41.30220866008727,50.33666119136316 L41.33533225369534,50.29699396805727 L41.36719636377455,50.25567863961864 L41.42707012858007,50.16820419234505 L41.481685713360065,50.07444858314774 L41.53091154438705,49.974637677501285 L41.57462903232241,49.869011928619784 L41.61273285790851,49.75782579818403 L41.645131225692005,49.641347143320985 L41.67174608516715,49.51985657131254 L41.69251331880628,49.39364676358798 L41.707382896524564,49.2630217706288 L41.71631899620685,49.12829627948441 L41.71930009000631,48.98979485566358 " />
			<path d="M58.70762979144982,32.28238821187862 L58.66520970881636,32.30809666775384 L58.623869313017785,32.33561545243816 L58.583633505962695,32.3649279896447 L58.54452652419674,32.39601662259709 L58.50657192430345,32.42886262466533 L58.46979256871457,32.46344621064596 L58.434210611938646,32.49974654867995 L58.39984748721594,32.537741772801034 L58.36672389360787,32.577408996106925 L58.33485978352866,32.61872432454556 L58.27498601872314,32.706198771819146 L58.220370433943145,32.799954381016455 L58.17114460291616,32.89976528666291 L58.1274271149808,33.005391035544406 L58.0893232893947,33.11657716598017 L58.056924921611206,33.23305582084322 L58.03031006213606,33.35454639285166 L58.00954282849693,33.48075620057622 L57.994673250778646,33.61138119353541 L57.98573715109636,33.74610668467979 L57.9827560572969,33.88460810850063 L57.98573715109636,34.026551802936666 L57.994673250778646,34.171595813195204 L58.00954282849693,34.31939071555116 L58.03031006213606,34.469580459139465 L58.056924921611206,34.621803223712746 L58.0893232893947,34.77569229129801 L58.1274271149808,34.93087692965234 L58.17114460291616,35.08698328538939 L58.220370433943145,35.24363528462487 L58.27498601872314,35.40045553897154 L58.33485978352866,35.55706625470085 L58.39984748721594,35.713090142881114 L58.46979256871457,35.86815132829963 L58.54452652419674,36.021876254978984 L58.623869313017785,36.17389458610608 L58.70762979144982,36.323840096206 L58.79560617316375,36.47135155341124 L58.88758651535021,36.61607358970091 L58.98334922930833,36.757657557013445 L59.08266361427239,36.895762367170285 L59.185290413190074,37.030055313587226 L59.290982389113765,37.160212872793664 L59.399484920815915,37.28592148382902 L59.510536616193974,37.406878303638535 L59.62386994198679,37.522791936648716 L59.73921186828569,37.63338313676482 L59.85628452628748,37.738385480099105 L59.97480587770467,37.837546006809376 L60.09449039422044,37.93062583050134 L60.21504974535141,38.0174007137269 L60.336193493060925,38.09766160819178 L60.45762979144982,38.17121515837119 L60.57906608983871,38.237884167320225 L60.70020983754823,38.2975080235568 L60.820769188679186,38.34994308798881 L60.94045370519497,38.39506303995328 L61.058975056612155,38.432759181533875 L61.176047714613944,38.46294069942374 L61.29138964091285,38.485534883702684 L61.40472296670566,38.50048730300177 L61.51577466208372,38.507761935633226 L61.62427719378587,38.50734125636986 L61.729969169709555,38.49922627866487 L61.78168134874272,38.4922888140866 L61.832595968627245,38.48343655221033 L61.88268236029994,38.47267482530759 L61.9319103535913,38.46001011584028 L61.98025029539893,38.445450052555806 L62.02767306754943,38.429003405891855 L62.07415010433811,38.4106800826934 L62.11965340973589,38.390491120245194 L62.16415557425308,38.368448679623285 L62.20762979144981,38.34456603836969 " />
			<path d="M-33.23401871576774,5.715476066494084 L-33.235695728351885,5.609322441929466 L-33.2407244933652,5.501376232695076 L-33.249098195670314,5.391783730820924 L-33.26080548696777,5.280693459443555 L-33.275830501175534,5.168255971522907 L-33.294152875931246,5.054623645808309 L-33.31574778018787,4.939950480330089 L-33.340585947865534,4.824391883696707 L-33.36863371751381,4.70810446448022 L-33.39985307793074,4.591245818975512 L-33.434201719676814,4.473974317620941 L-33.47163309241398,4.3564488903698395 L-33.512096467992166,4.238828811303737 L-33.555537009197565,4.121273482779221 L-33.60189584406975,4.003942219400953 L-33.65111014568678,3.8869940321136007 L-33.70311321731015,3.770587412705305 L-33.75783458277429,3.6548801190147273 L-33.81520008199802,3.5400289611327542 L-33.87513197148862,3.4261895888886373 L-33.93754902970214,3.3135162809085497 L-34.00236666711739,3.202161735532429 L-34.06949704087426,3.092276863872484 L-34.13884917382104,2.984010585293804 L-34.21032907780951,2.877509625594242 L-34.283839881070534,2.7729183181570907 L-34.359281959497686,2.670378408346041 L-34.43655307166092,2.570028861407487 L-34.515548497367256,2.4720056741405445 L-34.5961611795809,2.376441690589998 L-34.67828186951016,2.2834664220119505 L-34.76179927466481,2.1932058713561813 L-34.8466002096831,2.105782362503069 L-34.93256974972407,2.0213143744864954 L-35.01959138621716,1.9399163809274 L-35.10754718475832,1.8616986948956074 L-35.19631794493827,1.7867673194101572 L-35.285783361886615,1.7152238037807392 L-35.37582218931268,1.6471651059849415 L-35.46631240382224,1.5826834612678136 L-35.5571313702874,1.5218662571418098 L-35.648156008045454,1.4647959149565493 L-35.739262957701634,1.4115497781988573 L-35.830328748309554,1.3622000076744905 L-35.921229964702825,1.3168134837135868 L-36.01184341475112,1.2754517155323812 L-36.10204629631393,1.238170757874017 L-36.191716363665805,1.2050211350414362 L-36.28073209316755,1.1760477724252816 L-36.36897284795877,1.1512899356196256 L-36.45631904144873,1.1307811772080263 L-36.54265229938368,1.1145492912920298 L-36.62785562027142,1.1026162758237499 L-36.71181353394522,1.094998302793564 L-36.79441225805261,1.0917056963133338 L-36.87553985225671,1.0927429186248512 L-36.95508636994124,1.0981085640524673 L-37.03294400721356,1.107795360908113 L-37.10900724900379,1.1217901813461109 L-37.18317301206214,1.1400740591544354 L-37.25534078466048,1.1626222154583123 L-37.325412762808945,1.1894040923013085 L-37.39329398280289,1.2203833940584223 L-37.45889244992064,1.2555181366250179 " />
			<path d="M-37.458892449920654,1.2555181366250272 L-37.50131253255411,1.2812265925002477 L-37.54265292835269,1.3087453771845747 L-37.58288873540778,1.3380579143911069 L-37.62199571717373,1.3691465473434996 L-37.65995031706702,1.4019925494117391 L-37.696729672655906,1.4365761353923712 L-37.73231162943183,1.4728764734263655 L-37.76667475415453,1.5108716975474463 L-37.799798347762604,1.550538920853337 L-37.831662457841816,1.5918542492919707 L-37.89153622264733,1.6793286965655572 L-37.94615180742733,1.7730843057628674 L-37.995377638454315,1.872895211409324 L-38.039095126389675,1.9785209602908207 L-38.077198951975774,2.0897070907265802 L-38.10959731975927,2.2061857455896274 L-38.13621217923441,2.3276763175980726 L-38.15697941287354,2.453886125322629 L-38.171848990591826,2.5845111182818155 L-38.180785090274114,2.7192366094261953 L-38.18376618407357,2.857738033247042 L-38.180785090274114,2.9996817276830794 L-38.171848990591826,3.1447257379416116 L-38.15697941287354,3.29252064029757 L-38.13621217923441,3.442710383885877 L-38.10959731975927,3.5949331484591593 L-38.077198951975774,3.7488222160444185 L-38.039095126389675,3.9040068543987547 L-37.995377638454315,4.060113210135801 L-37.94615180742733,4.216765209371286 L-37.89153622264733,4.373585463717957 L-37.831662457841816,4.530196179447259 L-37.76667475415453,4.686220067627524 L-37.696729672655906,4.841281253046045 L-37.62199571717373,4.995006179725394 L-37.54265292835269,5.1470245108524875 L-37.458892449920654,5.296970020952408 L-37.370916068206725,5.4444814781576465 L-37.278935726020265,5.589203514447321 L-37.18317301206214,5.730787481759853 L-37.08385862709808,5.868892291916699 L-36.9812318281804,6.003185238333637 L-36.87553985225671,6.133342797540075 L-36.76703732055456,6.25905140857543 L-36.6559856251765,6.380008228384944 L-36.54265229938368,6.4959218613951295 L-36.42731037308478,6.6065130615112295 L-36.31023771508299,6.711515404845519 L-36.191716363665805,6.810675931555787 L-36.07203184715003,6.903755755247752 L-35.951472496019065,6.990530638473311 L-35.83032874830955,7.070791532938192 L-35.708892449920654,7.144345083117604 L-35.58745615153176,7.211014092066634 L-35.46631240382224,7.27063794830321 L-35.345753052691286,7.323073012735224 L-35.226068536175504,7.3681929646996895 L-35.10754718475832,7.405889106280284 L-34.99047452675653,7.436070624170148 L-34.875132600457626,7.458664808449096 L-34.76179927466481,7.473617227748182 L-34.65074757928675,7.480891860379639 L-34.5422450475846,7.4804711811162745 L-34.43655307166092,7.472356203411281 L-34.38484089262775,7.465418738833012 L-34.33392627274323,7.456566476956738 L-34.283839881070534,7.4458047500540046 L-34.234611887779174,7.433140040586691 L-34.18627194597154,7.418579977302217 L-34.13884917382104,7.402133330638268 L-34.09237213703236,7.383810007439817 L-34.04686883163458,7.3636210449916035 L-34.00236666711739,7.341578604369694 L-33.95889244992066,7.317695963116103 " />
			<path d="M-33.958892449920654,7.3176959631160985 L-33.9164723672872,7.291987507240878 L-33.87513197148862,7.264468722556551 L-33.83489616443353,7.23515618535002 L-33.795789182667576,7.2040675523976265 L-33.75783458277428,7.171221550329387 L-33.7210552271854,7.136637964348754 L-33.68547327040948,7.10033762631476 L-33.65111014568678,7.062342402193679 L-33.617986552078705,7.022675178887789 L-33.58612244199949,6.981359850449156 L-33.526248677193976,6.893885403175569 L-33.47163309241398,6.800129793978259 L-33.422407261386994,6.700318888331802 L-33.37868977345163,6.594693139450305 L-33.340585947865534,6.483507009014545 L-33.30818758008204,6.367028354151499 L-33.281572720606896,6.245537782143054 L-33.26080548696777,6.119327974418498 L-33.24593590924948,5.98870298145931 L-33.236999809567195,5.85397749031493 L-33.23401871576774,5.715476066494097 " />
			<path d="M-12.02081528017131,-6.531972647421808 L-12.022492292755462,-6.638126271986426 L-12.02752105776877,-6.746072481220816 L-12.035894760073887,-6.855664983094968 L-12.04760205137134,-6.9667552544723375 L-12.062627065579111,-7.079192742392985 L-12.08094944033482,-7.192825068107583 L-12.102544344591445,-7.307498233585803 L-12.12738251226911,-7.423056830219185 L-12.155430281917386,-7.539344249435672 L-12.186649642334316,-7.65620289494038 L-12.220998284080386,-7.773474396294951 L-12.258429656817556,-7.890999823546053 L-12.298893032395739,-8.008619902612155 L-12.342333573601135,-8.12617523113667 L-12.388692408473323,-8.24350649451494 L-12.43790671009035,-8.360454681802292 L-12.489909781713719,-8.476861301210587 L-12.544631147177856,-8.592568594901165 L-12.601996646401595,-8.707419752783137 L-12.661928535892194,-8.821259125027254 L-12.724345594105715,-8.933932433007342 L-12.789163231520968,-9.045286978383464 L-12.856293605277834,-9.15517185004341 L-12.925645738224615,-9.263438128622088 L-12.997125642213083,-9.369939088321651 L-13.070636445474108,-9.474530395758801 L-13.146078523901263,-9.577070305569851 L-13.223349636064489,-9.677419852508406 L-13.302345061770833,-9.775443039775347 L-13.382957743984473,-9.871007023325895 L-13.465078433913732,-9.963982291903942 L-13.548595839068383,-10.054242842559711 L-13.63339677408668,-10.141666351412823 L-13.719366314127637,-10.226134339429397 L-13.80638795062073,-10.307532332988492 L-13.894343749161889,-10.385750019020286 L-13.983114509341842,-10.460681394505734 L-14.072579926290185,-10.532224910135152 L-14.162618753716252,-10.600283607930951 L-14.253108968225817,-10.664765252648078 L-14.343927934690972,-10.725582456774083 L-14.434952572449028,-10.782652798959344 L-14.526059522105207,-10.835898935717035 L-14.617125312713124,-10.885248706241402 L-14.708026529106398,-10.930635230202306 L-14.798639979154691,-10.97199699838351 L-14.8888428607175,-11.009277956041874 L-14.978512928069378,-11.042427578874456 L-15.067528657571122,-11.07140094149061 L-15.15576941236235,-11.096158778296267 L-15.2431156058523,-11.116667536707865 L-15.329448863787258,-11.132899422623861 L-15.414652184674994,-11.144832438092141 L-15.498610098348792,-11.152450411122327 L-15.58120882245618,-11.155743017602559 L-15.662336416660283,-11.15470579529104 L-15.741882934344817,-11.149340149863425 L-15.81974057161713,-11.139653353007779 L-15.895803813407358,-11.125658532569782 L-15.969969576465711,-11.107374654761458 L-16.042137349064056,-11.08482649845758 L-16.11220932721252,-11.058044621614584 L-16.18009054720646,-11.02706531985747 L-16.24568901432421,-10.991930577290875 " />
			<path d="M-16.245689014324228,-10.991930577290866 L-16.28810909695768,-10.966222121415644 L-16.32944949275626,-10.938703336731317 L-16.369685299811355,-10.909390799524786 L-16.408792281577302,-10.878302166572393 L-16.4467468814706,-10.845456164504153 L-16.48352623705948,-10.81087257852352 L-16.5191081938354,-10.774572240489526 L-16.553471318558106,-10.736577016368447 L-16.586594912166174,-10.696909793062556 L-16.61845902224539,-10.65559446462392 L-16.678332787050902,-10.568120017350335 L-16.7329483718309,-10.474364408153026 L-16.782174202857888,-10.374553502506568 L-16.82589169079325,-10.268927753625071 L-16.863995516379344,-10.157741623189311 L-16.89639388416284,-10.041262968326265 L-16.923008743637986,-9.91977239631782 L-16.943775977277113,-9.793562588593263 L-16.958645554995396,-9.662937595634077 L-16.967581654677687,-9.528212104489697 L-16.970562748477143,-9.38971068066885 L-16.967581654677687,-9.247766986232813 L-16.958645554995396,-9.102722975974281 L-16.943775977277113,-8.954928073618321 L-16.923008743637986,-8.804738330030014 L-16.89639388416284,-8.652515565456733 L-16.863995516379344,-8.498626497871474 L-16.82589169079325,-8.343441859517137 L-16.782174202857888,-8.18733550378009 L-16.7329483718309,-8.030683504544607 L-16.678332787050902,-7.873863250197935 L-16.618459022245393,-7.717252534468633 L-16.553471318558106,-7.561228646288368 L-16.48352623705948,-7.406167460869847 L-16.408792281577306,-7.252442534190498 L-16.32944949275626,-7.100424203063405 L-16.245689014324228,-6.950478692963484 L-16.1577126326103,-6.802967235758246 L-16.065732290423842,-6.658245199468571 L-15.969969576465711,-6.516661232156039 L-15.870655191501656,-6.3785564219991935 L-15.768028392583968,-6.2442634755822555 L-15.662336416660285,-6.114105916375817 L-15.553833884958129,-5.988397305340462 L-15.442782189580072,-5.867440485530948 L-15.32944886378726,-5.751526852520763 L-15.214106937488353,-5.6409356524046625 L-15.097034279486566,-5.535933309070373 L-14.97851292806938,-5.436772782360105 L-14.8588284115536,-5.34369295866814 L-14.738269060422638,-5.256918075442581 L-14.617125312713124,-5.1766571809777 L-14.495689014324228,-5.103103630798288 L-14.374252715935333,-5.036434621849258 L-14.253108968225817,-4.976810765612682 L-14.132549617094856,-4.924375701180668 L-14.012865100579077,-4.8792557492162025 L-13.89434374916189,-4.841559607635608 L-13.777271091160102,-4.811378089745744 L-13.661929164861197,-4.788783905466796 L-13.548595839068383,-4.77383148616771 L-13.437544143690326,-4.766556853536253 L-13.32904161198817,-4.766977532799618 L-13.223349636064487,-4.775092510504611 L-13.171637457031325,-4.78202997508288 L-13.1207228371468,-4.790882236959154 L-13.070636445474108,-4.8016439638618875 L-13.021408452182746,-4.814308673329201 L-12.973068510375114,-4.828868736613675 L-12.925645738224615,-4.845315383277624 L-12.879168701435937,-4.863638706476075 L-12.833665396038157,-4.8838276689242885 L-12.789163231520966,-4.905870109546198 L-12.745689014324237,-4.929752750799789 " />
			<path d="M-12.745689014324228,-4.929752750799794 L-12.703268931690774,-4.955461206675014 L-12.661928535892194,-4.982979991359341 L-12.621692728837102,-5.012292528565872 L-12.582585747071152,-5.0433811615182655 L-12.544631147177856,-5.0762271635865055 L-12.507851791588978,-5.110810749567138 L-12.472269834813053,-5.147111087601132 L-12.437906710090349,-5.185106311722213 L-12.404783116482282,-5.2247735350281035 L-12.372919006403064,-5.266088863466736 L-12.313045241597553,-5.353563310740323 L-12.258429656817556,-5.447318919937633 L-12.209203825790569,-5.54712982558409 L-12.165486337855208,-5.652755574465587 L-12.127382512269111,-5.763941704901347 L-12.094984144485615,-5.880420359764393 L-12.06836928501047,-6.001910931772838 L-12.04760205137134,-6.128120739497394 L-12.03273247365306,-6.258745732456582 L-12.023796373970768,-6.393471223600962 L-12.02081528017131,-6.531972647421795 " />
			<path d="M-42.32285348059958,-52.89291802649863 L-65.30382386916239,-39.62484858642307 " />
			<path d="M38.787319574666846,54.93415947881794 L15.806349186104047,68.2022289188935 " />
			<path d="M42.42640687119285,-4.123513924949879 L40.99442635585339,-3.296759588944342 " />
			<path d="M38.92640687119285,-10.185691751440949 L37.49442635585339,-9.358937415435411 " />
			<path d="M-29.026911934581197,-49.418558656283054 L-33.958892449920654,-46.57107837811383 " />
			<path d="M-36.02691193458119,-53.46001054061043 L-37.458892449920654,-52.6332562046049 " />
			<path d="M42.42640687119285,49.76526041628005 L40.99442635585339,50.592014752285586 " />
			<path d="M42.42640687119285,41.68235664762529 L37.49442635585339,44.52983692579452 " />
			<path d="M-12.745689014324224,-4.9297527507998 L-33.958892449920654,7.317695963116096 " />
			<path d="M-16.245689014324224,-10.99193057729087 L-37.458892449920654,1.2555181366250265 " />

       </g>

       <!-- solid lines -->
       <g  stroke="rgb(40,40,40)" fill="none">
			<path d="M-67.17514421272202,-40.41658075592244 L-67.17514421272202,20.004166232729297 " />
			<path d="M-41.805086527633215,-56.078602262119375 L-41.72967820044985,-56.117966618012666 L-41.65083790714717,-56.15097714856695 L-41.568755580897346,-56.17755432852274 L-41.48362896521387,-56.19763413112564 L-41.39566313757013,-56.21116818237239 L-41.305070015349834,-56.218123877548095 L-41.21206784531942,-56.21848445977384 L-41.11688067785251,-56.21224906037545 L-41.01973782717295,-56.19943270097623 L-40.92087331891675,-56.18006625730856 L-40.82052532634379,-56.154196384831536 L-40.71893559655763,-56.12188540633388 L-40.61634886811553,-56.08321116179291 L-40.513012281431855,-56.038266820851184 L-40.40917478339512,-55.98716065836269 L-40.30508652763322,-55.930015793549245 " />
			<path d="M-67.17514421272203,-40.41658075592244 L-67.17258898946535,-40.535296262054594 L-67.16492947545196,-40.650775254464065 L-67.152184123122,-40.76273953414337 L-67.1343836371456,-40.870919369335844 L-67.11157090045262,-40.97505414534308 L-67.08380087092391,-41.074892992368554 L-67.05114044899297,-41.17019538988492 L-67.01366831647695,-41.260731746069055 L-66.97147474702524,-41.34628395090888 L-66.92466138864239,-41.42664590164943 L-66.8733410188091,-41.5016239993125 L-66.81763727279143,-41.57103761509352 L-66.7576843457926,-41.63471952551216 L-66.69362666966502,-41.692516315268335 L-66.62561856496127,-41.74428874683313 L-66.55382386916239,-41.78991209588416 " />
			<path d="M-66.55382386916239,-41.78991209588417 L-66.47841554197902,-41.82927645177746 L-66.39957524867634,-41.862286982331746 L-66.31749292242651,-41.88886416228753 L-66.23236630674305,-41.90894396489043 L-66.1444004790993,-41.922478016137184 L-66.053807356879,-41.92943371131289 L-65.96080518684859,-41.929794293538635 L-65.86561801938169,-41.92355889414024 L-65.76847516870212,-41.910742534741026 L-65.66961066044593,-41.891376091073354 L-65.56926266787296,-41.86550621859633 L-65.4676729380868,-41.833195240098675 L-65.3650862096447,-41.794520995557704 L-65.26174962296102,-41.74957665461598 L-65.1579121249243,-41.698470492127484 L-65.0538238691624,-41.64132562731404 " />
			<path d="M-67.17514421272203,20.004166232729293 L-67.17258898946535,20.125832256531613 L-67.16492947545196,20.25015569389607 L-67.152184123122,20.376837038772603 L-67.1343836371456,20.50557110470544 L-67.11157090045263,20.636047760053966 L-67.08380087092391,20.767952675127045 L-67.05114044899298,20.90096807943076 L-67.01366831647695,21.034773527205374 L-66.97147474702524,21.169046669407216 L-66.92466138864239,21.30346403027579 L-66.8733410188091,21.437701786615193 L-66.81763727279143,21.571436547912562 L-66.7576843457926,21.704346135414152 L-66.69362666966502,21.836110358282166 L-66.62561856496127,21.96641178496253 L-66.55382386916239,22.09493650790532 L-66.47841554197902,22.221374899795528 L-66.39957524867634,22.34542235947239 L-66.31749292242651,22.466780045740276 L-66.23236630674305,22.585155597303284 L-66.1444004790993,22.70026383708923 L-66.053807356879,22.81182745926618 L-65.96080518684859,22.919577697296482 L-65.86561801938169,23.023254971418922 L-65.76847516870212,23.122609513999084 L-65.66961066044593,23.217401971241454 L-65.56926266787296,23.307403979813703 L-65.4676729380868,23.39239871699393 L-65.3650862096447,23.472181423015616 L-65.26174962296102,23.54655989435181 L-65.1579121249243,23.61535494675028 L-65.0538238691624,23.678400846904054 " />
			<path d="M-40.30508652763321,-55.93001579354923 L40.305086527633236,-9.389710680668834 " />
			<path d="M42.42640687119286,-5.715476066494084 L42.42385164793618,-5.8371420902964015 L42.41619213392279,-5.961465527660859 L42.403446781592834,-6.088146872537395 L42.38564629561644,-6.216880938470228 L42.362833558923455,-6.347357593818756 L42.335063529394745,-6.479262508891836 L42.3024031074638,-6.612277913195551 L42.26493097494778,-6.746083360970162 L42.222737405496076,-6.880356503172005 L42.17592404711322,-7.0147738640405795 L42.12460367727993,-7.149011620379981 L42.06889993126225,-7.282746381677352 L42.008947004263426,-7.415655969178944 L41.94488932813585,-7.547420192046958 L41.8768812234321,-7.677721618727324 L41.805086527633215,-7.8062463416701116 L41.72967820044985,-7.932684733560316 L41.65083790714717,-8.056732193237178 L41.568755580897346,-8.178089879505064 L41.48362896521387,-8.296465431068075 L41.39566313757013,-8.411573670854024 L41.305070015349834,-8.52313729303097 L41.21206784531942,-8.630887531061274 L41.11688067785251,-8.734564805183714 L41.01973782717295,-8.833919347763873 L40.920873318916755,-8.928711805006245 L40.82052532634379,-9.018713813578493 L40.71893559655763,-9.103708550758721 L40.61634886811554,-9.183491256780407 L40.513012281431855,-9.2578697281166 L40.40917478339513,-9.326664780515069 L40.305086527633236,-9.389710680668841 " />
			<path d="M42.42640687119286,54.705270922157645 L42.42385164793618,54.82398642828981 L42.41619213392279,54.93946542069927 L42.403446781592834,55.05142970037858 L42.38564629561644,55.15960953557105 L42.362833558923455,55.263744311578286 L42.335063529394745,55.36358315860376 L42.3024031074638,55.45888555612012 L42.26493097494778,55.54942191230426 L42.222737405496076,55.63497411714408 L42.17592404711322,55.715336067884635 L42.12460367727993,55.790314165547706 L42.06889993126225,55.85972778132873 L42.008947004263426,55.923409691747366 L41.94488932813585,55.98120648150354 L41.8768812234321,56.032978913068334 L41.80508652763323,56.07860226211937 " />
			<path d="M42.42640687119285,-5.71547606649408 L42.42640687119285,54.70527092215765 " />
			<path d="M-65.05382386916237,-41.64132562731403 L15.556349186104072,4.898979485566372 " />
			<path d="M-65.05382386916237,23.678400846904058 L15.556349186104072,70.21870595978446 " />
			<path d="M17.677669529663692,8.573214099741124 L17.675114306407018,8.451548075938806 L17.667454792393624,8.327224638574348 L17.65470944006367,8.200543293697812 L17.63690895408727,8.071809227764978 L17.61409621739429,7.941332572416452 L17.58632618786558,7.809427657343372 L17.55366576593464,7.676412253039657 L17.516193633418617,7.542606805265046 L17.474000063966912,7.408333663063202 L17.42718670558406,7.273916302194628 L17.375866335750764,7.139678545855227 L17.32016258973309,7.005943784557855 L17.260209662734265,6.873034197056263 L17.196151986606687,6.74126997418825 L17.128143881902936,6.610968547507884 L17.05634918610405,6.482443824565096 L16.980940858920683,6.356005432674892 L16.902100565618007,6.231957972998029 L16.82001823936818,6.110600286730144 L16.734891623684703,5.992224735167132 L16.64692579604097,5.877116495381184 L16.55633267382067,5.765552873204237 L16.46333050379025,5.657802635173933 L16.368143336323346,5.554125361051494 L16.271000485643793,5.454770818471335 L16.172135977387587,5.359978361228963 L16.071787984814627,5.269976352656715 L15.970198255028466,5.184981615476485 L15.86761152658637,5.105198909454801 L15.76427493990269,5.0308204381186075 L15.660437441865964,4.962025385720139 L15.55634918610407,4.898979485566367 " />
			<path d="M17.677669529663692,68.99396108839287 L17.675114306407018,69.11267659452501 L17.667454792393624,69.22815558693449 L17.65470944006367,69.34011986661379 L17.63690895408727,69.44829970180626 L17.61409621739429,69.5524344778135 L17.58632618786558,69.65227332483897 L17.55366576593464,69.74757572235534 L17.516193633418617,69.83811207853948 L17.474000063966912,69.9236642833793 L17.42718670558406,70.00402623411985 L17.375866335750764,70.07900433178293 L17.320162589733087,70.14841794756394 L17.260209662734265,70.21209985798258 L17.196151986606687,70.26989664773876 L17.128143881902936,70.32166907930355 L17.056349186104065,70.36729242835457 " />
			<path d="M17.05634918610405,70.36729242835459 L16.980940858920683,70.40665678424787 L16.902100565618003,70.43966731480216 L16.820018239368178,70.46624449475796 L16.734891623684703,70.48632429736085 L16.64692579604097,70.4998583486076 L16.55633267382067,70.50681404378331 L16.46333050379025,70.50717462600905 L16.368143336323346,70.50093922661065 L16.271000485643793,70.48812286721144 L16.172135977387587,70.46875642354378 L16.071787984814627,70.44288655106675 L15.970198255028464,70.4105755725691 L15.867611526586368,70.37190132802813 L15.764274939902688,70.3269569870864 L15.66043744186596,70.27585082459791 L15.556349186104052,70.21870595978446 " />
			<path d="M17.67766952966369,8.573214099741127 L17.67766952966369,68.99396108839287 " />
			<path d="M15.909902576697323,67.9733403622332 L15.908200120485645,68.01237277865681 L15.903109147434588,68.04906346446877 L15.894678686397638,68.08305906830755 L15.882989927323145,68.1140321939243 L15.86815543935072,68.1416845531877 L15.85031808670889,68.16574983876171 L15.82964965285449,68.18599628879085 L15.806349186104052,68.2022289188935 " />
			<path d="M15.80634918610405,68.2022289188935 L15.780641082689709,68.21429139996809 L15.752772925700826,68.22206756372786 L15.723013100723486,68.22548252146494 L15.691648211140599,68.2245033852695 L15.65898031798464,68.21913958475835 L15.625324030924785,68.20944277626258 L15.591003478403824,68.19550634534879 L15.55634918610405,68.17746450746513 " />
			<path d="M15.90990257669732,7.552593373581471 L15.90990257669732,67.9733403622332 " />
			<path d="M15.909902576697323,7.552593373581466 L15.908200120485645,7.51159513005367 L15.903109147434588,7.469025894918775 L15.894678686397638,7.4252956331818405 L15.882989927323145,7.380825491168786 L15.86815543935072,7.3360437406570504 L15.85031808670889,7.291381654384255 L15.82964965285449,7.247269352655987 L15.80634918610405,7.204131661052128 L15.78064108268971,7.162384019124284 L15.752772925700826,7.122428479485801 L15.723013100723486,7.084649835825318 L15.691648211140599,7.049411917133194 L15.65898031798464,7.017054083829439 L15.625324030924785,6.9878879595373595 L15.591003478403824,6.962194429977713 L15.556349186104054,6.940220937885673 " />
			<path d="M-65.05382386916237,-39.60008417499472 L15.556349186104072,6.940220937885684 " />
			<path d="M-65.40737725975566,-39.39596002976278 L-65.40567480354399,-39.434992446186385 L-65.40058383049292,-39.471683131998354 L-65.39215336945597,-39.50567873583714 L-65.38046461038148,-39.53665186145389 L-65.36563012240906,-39.56430422071728 L-65.34779276976722,-39.5883695062913 L-65.32712433591283,-39.608615956320435 L-65.30382386916239,-39.62484858642307 " />
			<path d="M-65.30382386916239,-39.62484858642307 L-65.27811576574804,-39.63691106749767 L-65.25024760875917,-39.64468723125745 L-65.22048778378182,-39.64810218899453 L-65.18912289419893,-39.64712305279908 L-65.15645500104297,-39.64175925228794 L-65.12279871398312,-39.63206244379216 L-65.08847816146216,-39.61812601287838 L-65.05382386916239,-39.60008417499472 " />
			<path d="M-65.40737725975565,-39.39596002976279 L-65.40737725975565,21.024786958888946 " />
			<path d="M-65.40737725975566,21.024786958888953 L-65.40567480354399,21.06578520241675 L-65.40058383049292,21.108354437551643 L-65.39215336945597,21.152084699288576 L-65.38046461038148,21.19655484130163 L-65.36563012240906,21.24133659181337 L-65.34779276976722,21.285998678086163 L-65.32712433591283,21.33011097981443 L-65.30382386916239,21.37324867141829 L-65.27811576574804,21.414996313346133 L-65.25024760875917,21.454951852984617 L-65.22048778378182,21.4927304966451 L-65.18912289419893,21.527968415337224 L-65.15645500104297,21.560326248640976 L-65.12279871398312,21.58949237293306 L-65.08847816146216,21.615185902492705 L-65.05382386916239,21.637159394584746 " />
			<path d="M-65.05382386916237,21.637159394584746 L15.556349186104072,68.17746450746515 " />
			<path d="M-42.42640687119285,7.756717518813396 L-42.42640687119285,-26.536138880151096 " />
			<path d="M-42.07285348059958,8.369089954509194 L-42.10750777289935,8.347116462417151 L-42.14182832542032,8.321422932857505 L-42.175484612480176,8.292256808565426 L-42.208152505636136,8.259898975261672 L-42.23951739521902,8.224661056569547 L-42.26927722019636,8.186882412909064 L-42.297145377185245,8.146926873270582 L-42.32285348059958,8.105179231342738 L-42.346153947350025,8.062041539738878 L-42.36682238120442,8.01792923801061 L-42.38465973384625,7.973267151737816 L-42.39949422181868,7.92848540122608 L-42.41118298089317,7.884015259213025 L-42.41961344193012,7.840284997476091 L-42.42470441498118,7.797715762341196 L-42.42640687119286,7.756717518813402 " />
			<path d="M-42.072853480599576,8.369089954509194 L15.909902576697334,41.845449772545976 " />
			<path d="M62.93250352560273,-17.146428199482248 L62.93082651301859,-17.252581824046867 L62.92579774800527,-17.36052803328126 L62.91742404570016,-17.47012053515541 L62.905716754402704,-17.58121080653278 L62.89069174019494,-17.693648294453425 L62.872369365439226,-17.807280620168026 L62.8507744611826,-17.921953785646245 L62.82593629350494,-18.037512382279626 L62.79788852385666,-18.153799801496113 L62.76666916343973,-18.27065844700082 L62.73232052169366,-18.387929948355392 L62.69488914895649,-18.505455375606495 L62.65442577337831,-18.623075454672595 L62.61098523217291,-18.740630783197112 L62.56462639730072,-18.85796204657538 L62.51541209568369,-18.974910233862733 L62.463409024060326,-19.091316853271028 L62.408687658596186,-19.207024146961608 L62.35132215937245,-19.32187530484358 L62.29139026988185,-19.435714677087695 L62.22897321166833,-19.548387985067784 L62.16415557425308,-19.659742530443904 L62.09702520049621,-19.76962740210385 L62.02767306754943,-19.87789368068253 L61.95619316356096,-19.984394640382092 L61.88268236029994,-20.088985947819243 L61.80724028187279,-20.191525857630293 L61.729969169709555,-20.291875404568845 L61.65097374400322,-20.389898591835788 L61.57036106178957,-20.485462575386336 L61.488240371860314,-20.578437843964384 L61.40472296670566,-20.66869839462015 L61.31992203168737,-20.756121903473264 L61.233952491646406,-20.840589891489838 L61.146930855153315,-20.921987885048935 L61.058975056612155,-21.000205571080727 L60.9702042964322,-21.075136946566175 L60.88073887948386,-21.146680462195594 L60.790700052057794,-21.214739159991392 L60.70020983754823,-21.27922080470852 L60.60939087108307,-21.340038008834522 L60.51836623332502,-21.397108351019785 L60.42725928366884,-21.450354487777474 L60.33619349306092,-21.499704258301843 L60.24529227666765,-21.545090782262747 L60.15467882661935,-21.58645255044395 L60.06447594505654,-21.623733508102315 L59.97480587770467,-21.656883130934897 L59.88579014820292,-21.68585649355105 L59.7975493934117,-21.71061433035671 L59.71020319992174,-21.731123088768307 L59.62386994198679,-21.747354974684303 L59.538666621099054,-21.759287990152583 L59.454708707425254,-21.76690596318277 L59.37210998331786,-21.770198569663 L59.290982389113765,-21.76916134735148 L59.21143587142923,-21.763795701923865 L59.133578234156914,-21.75410890506822 L59.057514992366684,-21.74011408463022 L58.98334922930833,-21.7218302068219 L58.91118145670999,-21.699282050518022 L58.84110947856153,-21.672500173675026 L58.773228258567585,-21.641520871917912 L58.70762979144983,-21.606386129351314 " />
			<path d="M62.20762979144982,-15.544208302860234 L62.250049874083274,-15.569916758735456 L62.29139026988185,-15.597435543419781 L62.33162607693694,-15.626748080626314 L62.370733058702896,-15.657836713578707 L62.40868765859619,-15.690682715646947 L62.44546701418507,-15.72526630162758 L62.48104897096099,-15.761566639661574 L62.51541209568369,-15.799561863782653 L62.54853568929177,-15.839229087088544 L62.58039979937098,-15.880544415527178 L62.640273564176496,-15.968018862800765 L62.69488914895649,-16.061774471998074 L62.74411497998348,-16.16158537764453 L62.78783246791884,-16.26721112652603 L62.82593629350494,-16.378397256961787 L62.85833466128843,-16.494875911824835 L62.88494952076358,-16.61636648383328 L62.905716754402704,-16.742576291557835 L62.92058633212099,-16.873201284517023 L62.92952243180328,-17.007926775661403 L62.93250352560273,-17.146428199482237 " />
			<path d="M-12.02081528017131,-60.42074698865173 L-12.022492292755462,-60.52690061321635 L-12.02752105776877,-60.63484682245074 L-12.035894760073887,-60.744439324324894 L-12.04760205137134,-60.85552959570226 L-12.062627065579111,-60.96796708362291 L-12.08094944033482,-61.08159940933751 L-12.102544344591445,-61.19627257481572 L-12.12738251226911,-61.31183117144911 L-12.155430281917386,-61.42811859066559 L-12.186649642334316,-61.544977236170304 L-12.220998284080386,-61.66224873752488 L-12.258429656817556,-61.77977416477597 L-12.298893032395739,-61.89739424384208 L-12.342333573601135,-62.014949572366596 L-12.388692408473323,-62.13228083574486 L-12.43790671009035,-62.249229023032214 L-12.489909781713719,-62.36563564244051 L-12.544631147177856,-62.481342936131085 L-12.601996646401595,-62.59619409401306 L-12.661928535892194,-62.71003346625718 L-12.724345594105715,-62.82270677423726 L-12.789163231520968,-62.934061319613384 L-12.856293605277834,-63.04394619127333 L-12.925645738224615,-63.15221246985201 L-12.997125642213083,-63.25871342955157 L-13.070636445474108,-63.363304736988724 L-13.146078523901263,-63.46584464679977 L-13.223349636064489,-63.566194193738326 L-13.302345061770833,-63.66421738100527 L-13.382957743984473,-63.75978136455581 L-13.465078433913732,-63.852756633133865 L-13.548595839068383,-63.943017183789635 L-13.63339677408668,-64.03044069264274 L-13.719366314127637,-64.11490868065931 L-13.80638795062073,-64.19630667421842 L-13.894343749161889,-64.27452436025021 L-13.983114509341842,-64.34945573573566 L-14.072579926290185,-64.42099925136507 L-14.162618753716252,-64.48905794916087 L-14.253108968225817,-64.553539593878 L-14.343927934690972,-64.61435679800401 L-14.434952572449028,-64.67142714018927 L-14.526059522105207,-64.72467327694696 L-14.617125312713124,-64.77402304747132 L-14.708026529106398,-64.81940957143223 L-14.798639979154691,-64.86077133961344 L-14.8888428607175,-64.8980522972718 L-14.978512928069378,-64.93120192010437 L-15.067528657571122,-64.96017528272053 L-15.15576941236235,-64.98493311952619 L-15.2431156058523,-65.00544187793778 L-15.329448863787258,-65.02167376385378 L-15.414652184674994,-65.03360677932207 L-15.498610098348792,-65.04122475235225 L-15.58120882245618,-65.04451735883248 L-15.662336416660283,-65.04348013652097 L-15.741882934344817,-65.03811449109335 L-15.81974057161713,-65.0284276942377 L-15.895803813407358,-65.0144328737997 L-15.969969576465711,-64.99614899599138 L-16.042137349064056,-64.9736008396875 L-16.11220932721252,-64.9468189628445 L-16.18009054720646,-64.91583966108739 L-16.24568901432421,-64.88070491852079 " />
			<path d="M-12.745689014324228,-58.81852709202972 L-12.703268931690774,-58.84423554790494 L-12.661928535892194,-58.87175433258926 L-12.621692728837102,-58.9010668697958 L-12.582585747071152,-58.93215550274819 L-12.544631147177856,-58.96500150481643 L-12.507851791588978,-58.99958509079706 L-12.472269834813053,-59.03588542883105 L-12.437906710090349,-59.073880652952134 L-12.404783116482282,-59.113547876258025 L-12.372919006403064,-59.15486320469666 L-12.313045241597553,-59.242337651970246 L-12.258429656817556,-59.336093261167555 L-12.209203825790569,-59.43590416681401 L-12.165486337855208,-59.54152991569551 L-12.127382512269111,-59.65271604613127 L-12.094984144485615,-59.76919470099432 L-12.06836928501047,-59.89068527300276 L-12.04760205137134,-60.016895080727316 L-12.03273247365306,-60.1475200736865 L-12.023796373970768,-60.28224556483089 L-12.02081528017131,-60.420746988651715 " />
			<path d="M62.93250352560273,36.742346141747674 L62.93082651301859,36.636192517183055 L62.92579774800527,36.52824630794866 L62.91742404570016,36.41865380607451 L62.905716754402704,36.307563534697145 L62.89069174019494,36.195126046776494 L62.872369365439226,36.0814937210619 L62.8507744611826,35.96682055558368 L62.82593629350494,35.851261958950296 L62.79788852385666,35.73497453973381 L62.76666916343973,35.6181158942291 L62.73232052169366,35.50084439287453 L62.69488914895649,35.38331896562343 L62.65442577337831,35.265698886557324 L62.61098523217291,35.14814355803281 L62.56462639730072,35.030812294654545 L62.51541209568369,34.91386410736719 L62.463409024060326,34.797457487958894 L62.408687658596186,34.68175019426832 L62.35132215937245,34.566899036386346 L62.29139026988185,34.45305966414222 L62.22897321166833,34.34038635616214 L62.16415557425308,34.22903181078602 L62.09702520049621,34.119146939126075 L62.02767306754943,34.01088066054739 L61.95619316356096,33.904379700847834 L61.88268236029994,33.79978839341068 L61.80724028187279,33.69724848359963 L61.729969169709555,33.59689893666108 L61.65097374400322,33.49887574939413 L61.57036106178957,33.40331176584359 L61.488240371860314,33.31033649726554 L61.40472296670566,33.22007594660977 L61.31992203168737,33.13265243775666 L61.233952491646406,33.048184449740084 L61.146930855153315,32.96678645618099 L61.058975056612155,32.8885687701492 L60.9702042964322,32.81363739466374 L60.88073887948386,32.74209387903433 L60.790700052057794,32.67403518123853 L60.70020983754823,32.6095535365214 L60.60939087108307,32.5487363323954 L60.51836623332502,32.49166599021014 L60.42725928366884,32.438419853452444 L60.33619349306092,32.38907008292808 L60.24529227666765,32.34368355896718 L60.15467882661935,32.30232179078597 L60.06447594505654,32.26504083312761 L59.97480587770467,32.231891210295025 L59.88579014820292,32.20291784767887 L59.7975493934117,32.17816001087321 L59.71020319992174,32.15765125246161 L59.62386994198679,32.14141936654562 L59.538666621099054,32.12948635107734 L59.454708707425254,32.121868378047154 L59.37210998331786,32.118575771566924 L59.290982389113765,32.11961299387844 L59.21143587142923,32.12497863930606 L59.133578234156914,32.134665436161704 L59.057514992366684,32.1486602565997 L58.98334922930833,32.16694413440803 L58.91118145670999,32.189492290711904 L58.84110947856153,32.2162741675549 L58.773228258567585,32.247253469312014 L58.70762979144983,32.282388211878605 " />
			<path d="M62.20762979144982,38.344566038369685 L62.250049874083274,38.318857582494466 L62.29139026988185,38.29133879781014 L62.33162607693694,38.262026260603605 L62.370733058702896,38.230937627651215 L62.40868765859619,38.198091625582975 L62.44546701418507,38.16350803960234 L62.48104897096099,38.12720770156835 L62.51541209568369,38.08921247744727 L62.54853568929177,38.04954525414138 L62.58039979937098,38.00822992570274 L62.640273564176496,37.92075547842916 L62.69488914895649,37.82699986923185 L62.74411497998348,37.72718896358539 L62.78783246791884,37.62156321470389 L62.82593629350494,37.510377084268136 L62.85833466128843,37.393898429405084 L62.88494952076358,37.272407857396644 L62.905716754402704,37.14619804967209 L62.92058633212099,37.0155730567129 L62.92952243180328,36.880847565568516 L62.93250352560273,36.74234614174769 " />
			<path d="M-40.305086527633215,-55.93001579354924 L-65.05382386916239,-41.641325627314025 " />
			<path d="M40.305086527633215,-9.389710680668848 L15.556349186104047,4.898979485566363 " />
			<path d="M42.42640687119285,-5.715476066494084 L17.677669529663685,8.573214099741127 " />
			<path d="M42.42640687119285,54.70527092215765 L17.677669529663685,68.99396108839287 " />
			<path d="M-65.05382386916239,-39.60008417499471 L-65.40737725975565,-39.39596002976278 " />
			<path d="M-42.42640687119285,7.756717518813398 L-65.40737725975565,21.024786958888953 " />
			<path d="M-42.07285348059958,8.369089954509194 L-65.05382386916239,21.63715939458475 " />
			<path d="M15.90990257669732,67.9733403622332 L15.556349186104047,68.17746450746513 " />
			<path d="M-41.805086527633215,-56.07860226211938 L-66.55382386916239,-41.78991209588417 " />
			<path d="M41.805086527633215,56.07860226211938 L17.056349186104047,70.36729242835459 " />
			<path d="M62.20762979144982,-15.544208302860238 L42.42640687119285,-4.123513924949879 " />
			<path d="M58.70762979144982,-21.606386129351307 L38.92640687119285,-10.185691751440949 " />
			<path d="M-12.745689014324224,-58.818527092029726 L-29.026911934581197,-49.418558656283054 " />
			<path d="M-16.245689014324224,-64.88070491852079 L-36.02691193458119,-53.46001054061043 " />
			<path d="M62.20762979144982,38.34456603836969 L42.42640687119285,49.76526041628005 " />
			<path d="M58.70762979144982,32.282388211878626 L42.42640687119285,41.68235664762529 " />

       </g>
    </g>
    
</svg>
