<?xml version="1.0" encoding="UTF-8" standalone="no"?>
<svg
   xmlns:svg="http://www.w3.org/2000/svg"
   xmlns="http://www.w3.org/2000/svg"
   width="800.0"
   height="600.0"

>
    <g transform="scale(8.961547839450649, -8.961547839450649)   translate(37.587096380529836,-52.65042119348954)" stroke-width="0.5"  fill="none">
       <!-- hidden lines -->
       <g  stroke="rgb(200,200,200)" fill="none" stroke-dasharray="0.5,0.5" >
			<path d="M24.39518395093589,17.350552344714178 L4.94974746830583,6.123724356957943 " />
			<path d="M24.39518395093589,17.35055234471418 L-10.960155108391493,37.76296686790734 " />
			<path d="M-2.1802459086585184,22.41963528464048 L-2.27331785512165,22.476075039182625 L-2.36148100714304,22.535083466610185 L-2.4445229719672867,22.596518410452962 L-2.522243694227513,22.660231868550177 L-2.594455937896261,22.72607034960063 L-2.660985737353489,22.793875242936704 L-2.7216728164849817,22.86348320063134 L-2.7763709748015515,22.93472653101752 L-2.82494843964882,23.007433602672165 L-2.8672881836590873,23.081429257891266 L-2.903288206680509,23.15653523466015 L-2.9328617815043967,23.232570596102274 L-2.9559376627986604,23.309352166372012 L-2.972460258744054,23.386694971941317 L-2.9823897649597373,23.464412687217134 L-2.985702260395513,23.5423180834161 " />
			<path d="M-2.985702260395513,23.542318083416106 L-2.9823897649597373,23.620223479615074 L-2.9724602587440545,23.697941194890895 L-2.9559376627986604,23.7752840004602 L-2.9328617815043967,23.852065570729938 L-2.903288206680509,23.92810093217206 L-2.8672881836590878,24.003206908940946 L-2.8249484396488205,24.077202564160046 L-2.776370974801552,24.14990963581469 L-2.7216728164849817,24.221152966200872 L-2.6609857373534895,24.29076092389551 L-2.5944559378962615,24.358565817231582 L-2.522243694227513,24.424404298282035 L-2.4445229719672876,24.48811775637925 L-2.36148100714304,24.549552700222026 L-2.2733178551216504,24.608561127649587 L-2.1802459086585193,24.66500088219173 L-2.0824893862248137,24.71873599553622 L-1.9802837918455372,24.769637015088378 L-1.873875347749704,24.817581315833692 L-1.763520401199419,24.862453395752244 L-1.6494848069268728,24.904145154073184 L-1.532043286667007,24.942556151698945 L-1.4114787673287899,24.977593853171843 L-1.2880816993995114,25.009173849600092 L-1.1621493572241202,25.037220062006213 L-1.033985122845287,25.06166492460796 L-0.9038977551294917,25.082449547590212 L-0.7722006459398668,25.099523858975683 L-0.6392110651477569,25.112846725252712 L-0.5052493963018043,25.122386050469498 L-0.3706383647959126,25.128118853556042 L-0.2357022603955135,25.130031323687575 L-0.10076615599511443,25.128118853556042 L0.03384487551077725,25.122386050469498 L0.16780654435672998,25.112846725252712 L0.3007961251488398,25.099523858975683 L0.43249323433846465,25.082449547590212 L0.5625806020542601,25.06166492460796 L0.6907448364330933,25.037220062006213 L0.8166771786084845,25.009173849600092 L0.940074246537763,24.977593853171847 L1.0606387658759804,24.942556151698945 L1.1780802861358461,24.904145154073184 L1.292115880408392,24.862453395752244 L1.4024708269586774,24.817581315833692 L1.5088792710545105,24.769637015088378 L1.6110848654337855,24.71873599553622 L1.7088413878674922,24.66500088219173 L1.8019133343306253,24.608561127649587 L1.8900764863520143,24.549552700222026 L1.9731184511762607,24.48811775637925 L2.0508391734364864,24.424404298282035 L2.123051417105235,24.358565817231582 L2.1895812165624626,24.29076092389551 L2.2502682956939557,24.221152966200872 L2.304966454010525,24.14990963581469 L2.353543918857793,24.07720256416005 L2.3958836628680604,24.00320690894095 L2.431883685889482,23.928100932172065 L2.4614572607133702,23.852065570729938 L2.484533142007635,23.7752840004602 L2.5010557379530285,23.697941194890895 L2.5109852441687113,23.620223479615078 L2.514297739604487,23.54231808341612 " />
			<path d="M2.514297739604487,23.542318083416106 L2.5124342972224483,23.48387876821449 L2.506846495470885,23.425518651774123 L2.4975419071109664,23.367316825523663 L2.484533142007635,23.309352166372012 L2.467837830040332,23.251703229811923 L2.4474785972104405,23.194448143459145 L2.4234830349778305,23.137664501171496 L2.3958836628680618,23.081429257891266 L2.3647178844009207,23.0258186253535 L2.330027936400019,22.97090796880152 L2.291860831752146,22.916771704849612 L2.2502682956939566,22.863483200631343 L2.2053066957123355,22.811114674370152 L2.157036965153444,22.759737097507006 L2.1055245206439666,22.70942009851769 L2.050839173436487,22.660231868550177 L1.9930550347991232,22.61223906900986 L1.9322504155776548,22.56550674121797 L1.8685077200662494,22.520098218265574 L1.8019133343306253,22.476075039182625 L1.732557509134989,22.43349686553835 L1.6605342376314216,22.392421400586073 L1.58594112797746,22.352904311061977 L1.508879271054513,22.314999151743837 L1.4294531034663829,22.27875729287192 L1.3477702660035626,22.24422785053046 L1.2639414577651156,22.211457620084033 L1.1780802861358477,22.180491012759028 L1.090303112822076,22.151369995456186 L1.000728896154656,22.124134033875755 L0.90947902987299,22.098820039032375 L0.8166771786084852,22.07546231723212 L0.7224491102904336,22.054092523579534 L0.6269225257014399,22.034739619077662 L0.5302268854133841,22.017429831379207 L0.4324932343384642,22.002186619242 L0.33385402413308984,21.98903064073698 L0.23444293369531694,21.977979725251725 L0.13439468799908533,21.969048849327525 L0.0338448755107803,21.962250116362714 L-0.06707023556443739,21.957592740209765 L-0.16821388195750245,21.955083032688393 L-0.2694489906812413,21.954724395031594 L-0.3706383647959107,21.95651731327617 L-0.47164486934272054,21.960459357604055 L-0.5723316171933557,21.966545185635265 L-0.6725621545636303,21.974766549668075 L-0.7722006459398638,21.98511230785653 L-0.8711120581673563,21.997568439310246 L-0.9691623434514816,22.012118063095937 L-1.0662186210233884,22.028741461114983 L-1.162149357224116,22.047416104826 L-1.2568245437630639,22.068116685776214 L-1.3501158739092332,22.090815149900262 L-1.4418969163764623,22.115480735539926 L-1.5320432866670044,22.142080015133267 L-1.620432815641234,22.170576940516703 L-1.7069457150850278,22.20093289177859 L-1.7914647400504475,22.2331067295981 L-1.8738753477497025,22.26705485099852 L-1.9540658527870733,22.302731248439336 L-2.0319275785183977,22.34008757216707 L-2.1073550043330074,22.379073195740364 L-2.180245908658508,22.419635284640478 " />
			<path d="M-9.487015980919512,18.201069616513895 L-9.580087927382644,18.257509371056038 L-9.668251079404033,18.3165177984836 L-9.75129304422828,18.377952742326375 L-9.829013766488506,18.44166620042359 L-9.901226010157256,18.507504681474042 L-9.967755809614482,18.575309574810117 L-10.028442888745975,18.644917532504753 L-10.083141047062545,18.716160862890934 L-10.131718511909813,18.78886793454558 L-10.17405825592008,18.86286358976468 L-10.210058278941503,18.937969566533564 L-10.23963185376539,19.014004927975687 L-10.262707735059655,19.090786498245425 L-10.279230331005047,19.16812930381473 L-10.289159837220732,19.245847019090547 L-10.292472332656507,19.323752415289512 " />
			<path d="M-10.292472332656507,19.32375241528952 L-10.289159837220732,19.401657811488487 L-10.27923033100505,19.479375526764308 L-10.262707735059655,19.556718332333613 L-10.23963185376539,19.63349990260335 L-10.210058278941503,19.709535264045474 L-10.174058255920082,19.78464124081436 L-10.131718511909813,19.85863689603346 L-10.083141047062545,19.931343967688104 L-10.028442888745975,20.002587298074285 L-9.967755809614484,20.07219525576892 L-9.901226010157256,20.140000149104996 L-9.829013766488506,20.205838630155448 L-9.751293044228282,20.269552088252663 L-9.668251079404033,20.33098703209544 L-9.580087927382644,20.389995459523 L-9.487015980919512,20.446435214065144 L-9.389259458485807,20.500170327409634 L-9.28705386410653,20.55107134696179 L-9.180645420010698,20.599015647707105 L-9.070290473460412,20.643887727625657 L-8.956254879187867,20.685579485946597 L-8.838813358928,20.723990483572358 L-8.718248839589783,20.759028185045256 L-8.594851771660505,20.790608181473505 L-8.468919429485114,20.818654393879626 L-8.340755195106281,20.843099256481374 L-8.210667827390486,20.863883879463625 L-8.07897071820086,20.880958190849096 L-7.945981137408751,20.894281057126125 L-7.812019468562798,20.90382038234291 L-7.677408437056906,20.909553185429456 L-7.542472332656508,20.91146565556099 L-7.407536228256109,20.909553185429456 L-7.272925196750217,20.90382038234291 L-7.138963527904264,20.894281057126125 L-7.005973947112154,20.880958190849096 L-6.87427683792253,20.863883879463625 L-6.7441894702067335,20.843099256481374 L-6.616025235827901,20.818654393879626 L-6.490092893652509,20.790608181473505 L-6.366695825723231,20.75902818504526 L-6.2461313063850135,20.723990483572358 L-6.128689786125148,20.685579485946597 L-6.0146541918526015,20.643887727625657 L-5.904299245302316,20.599015647707105 L-5.797890801206483,20.55107134696179 L-5.695685206827209,20.500170327409634 L-5.597928684393501,20.446435214065144 L-5.504856737930369,20.389995459523 L-5.4166935859089795,20.33098703209544 L-5.333651621084734,20.269552088252663 L-5.2559308988245075,20.205838630155448 L-5.183718655155759,20.140000149104996 L-5.117188855698531,20.07219525576892 L-5.056501776567038,20.002587298074285 L-5.001803618250468,19.931343967688104 L-4.9532261534032,19.858636896033463 L-4.910886409392933,19.784641240814363 L-4.874886386371512,19.709535264045478 L-4.845312811547624,19.63349990260335 L-4.822236930253359,19.556718332333613 L-4.805714334307965,19.479375526764308 L-4.795784828092282,19.40165781148849 L-4.792472332656507,19.323752415289533 " />
			<path d="M-4.792472332656507,19.32375241528952 L-4.794335775038546,19.2653131000879 L-4.799923576790109,19.206952983647536 L-4.809228165150028,19.148751157397076 L-4.822236930253359,19.090786498245425 L-4.838932242220662,19.033137561685336 L-4.859291475050553,18.975882475332558 L-4.883287037283163,18.91909883304491 L-4.910886409392932,18.86286358976468 L-4.942052187860073,18.807252957226915 L-4.976742135860975,18.752342300674933 L-5.014909240508848,18.698206036723025 L-5.056501776567037,18.644917532504756 L-5.101463376548658,18.592549006243566 L-5.14973310710755,18.54117142938042 L-5.201245551617028,18.490854430391103 L-5.2559308988245075,18.44166620042359 L-5.31371503746187,18.393673400883273 L-5.374519656683339,18.346941073091383 L-5.438262352194744,18.301532550138987 L-5.504856737930369,18.257509371056038 L-5.574212563126005,18.21493119741176 L-5.6462358346295725,18.173855732459486 L-5.720828944283534,18.13433864293539 L-5.797890801206481,18.09643348361725 L-5.877316968794611,18.060191624745332 L-5.958999806257431,18.025662182403874 L-6.042828614495878,17.992891951957446 L-6.128689786125146,17.96192534463244 L-6.216466959438918,17.9328043273296 L-6.306041176106338,17.90556836574917 L-6.397291042388003,17.88025437090579 L-6.490092893652509,17.856896649105533 L-6.58432096197056,17.835526855452947 L-6.679847546559554,17.816173950951075 L-6.77654318684761,17.79886416325262 L-6.87427683792253,17.783620951115413 L-6.972916048127904,17.770464972610394 L-7.072327138565677,17.759414057125138 L-7.172375384261908,17.750483181200938 L-7.272925196750213,17.743684448236127 L-7.373840307825431,17.73902707208318 L-7.474983954218496,17.736517364561806 L-7.5762190629422355,17.736158726905007 L-7.677408437056904,17.737951645149582 L-7.778414941603715,17.741893689477468 L-7.879101689454349,17.74797951750868 L-7.979332226824624,17.75620088154149 L-8.078970718200857,17.766546639729942 L-8.17788213042835,17.77900277118366 L-8.275932415712475,17.79355239496935 L-8.372988693284382,17.810175792988396 L-8.46891942948511,17.828850436699412 L-8.563594616024059,17.849551017649627 L-8.656885946170227,17.872249481773675 L-8.748666988637456,17.89691506741334 L-8.838813358927998,17.92351434700668 L-8.927202887902228,17.952011272390116 L-9.013715787346023,17.982367223652002 L-9.098234812311441,18.014541061471512 L-9.180645420010697,18.048489182871933 L-9.260835925048067,18.08416558031275 L-9.338697650779391,18.121521904040485 L-9.414125076594,18.160507527613778 L-9.487015980919502,18.20106961651389 " />
			<path d="M24.39518395093589,17.35055234471418 L24.748737341529164,17.146428199482248 " />
			<path d="M4.949747468305834,6.123724356957946 L4.845659212543921,6.06657949214449 L4.7418217145071955,6.015473329655997 L4.6384851278235155,5.970528988714271 L4.535898399381418,5.9318547441733 L4.434308669595258,5.899543765675649 L4.333960677022298,5.873673893198623 L4.235096168766092,5.854307449530952 L4.137953318086539,5.841491090131735 L4.0427661506196335,5.8352556907333435 L3.949763980589215,5.835616272959085 L3.859170858368915,5.842571968134793 L3.7712050307251808,5.856106019381546 L3.686078415041704,5.876185821984444 L3.6039960887918783,5.902763001940234 L3.5251557954892014,5.935773532494517 L3.449747468305847,5.9751378883878 " />
			<path d="M3.4497474683058327,5.975137888387808 L3.377952772506947,6.020761237438848 L3.3099446678031965,6.072533669003642 L3.2458869916756186,6.130330458759817 L3.1859340646767946,6.194012369178453 L3.130230318659121,6.263425984959474 L3.078909948825826,6.338404082622548 L3.032096590442971,6.418766033363099 L2.9899030209912683,6.504318238202919 L2.9524308884752446,6.594854594387059 L2.9197704665443034,6.690156991903424 L2.892000437015592,6.789995838928894 L2.8691877003226116,6.894130614936133 L2.8513872143462153,7.0023104501286095 L2.838641862016259,7.114274729807912 L2.830982348002866,7.229753722217381 L2.82842712474619,7.348469228349532 " />
			<path d="M2.8284271247461903,7.3484692283495345 L2.8284271247461903,29.802125203862005 " />
			<path d="M2.828427124746189,29.802125203862 L2.474873734152915,30.006249349093935 " />
			<path d="M2.474873734152917,30.006249349093938 L0.3535533905932713,28.781504477702345 " />
			<path d="M0.35355339059327384,0.2041241452319315 L-2.7755575615628914e-17,0.4082482904638631 " />
			<path d="M0.3535533905932744,28.78150447770235 L1.3322676295501878e-15,28.169132042006556 " />
			<path d="M0.0,28.169132042006552 L0.0,0.40824829046386313 " />
			<path d="M2.8284271247461903,29.802125203862005 L-10.96015510839149,37.76296686790734 " />
			<path d="M2.4748737341529163,30.006249349093935 L-32.88046532517447,50.41866387228709 " />
			<path d="M0.3535533905932738,28.781504477702345 L-35.00178566873411,49.193919000895505 " />
			<path d="M0.0,0.4082482904638631 L-35.355339059327385,20.82066281365702 " />
			<path d="M0.0,28.169132042006552 L-35.355339059327385,48.58154656519971 " />
			<path d="M3.4497474683058327,5.975137888387808 L-31.90559159102155,26.387552411580963 " />
			<path d="M2.514297739604487,20.2763317597052 L2.514297739604487,23.542318083416106 " />
			<path d="M-2.9857022603955166,20.2763317597052 L-2.9857022603955166,23.542318083416106 " />
			<path d="M-4.792472332656507,16.057766091578614 L-4.792472332656507,19.32375241528952 " />
			<path d="M-10.292472332656507,16.057766091578614 L-10.292472332656507,19.32375241528952 " />

       </g>

       <!-- solid lines -->
       <g  stroke="rgb(40,40,40)" fill="none">
			<path d="M-10.960155108391486,37.76296686790734 L-30.405591591021548,26.5361388801511 " />
			<path d="M24.748737341529164,14.696938456699069 L24.748737341529164,17.14642819948225 " />
			<path d="M24.748737341529164,14.69693845669907 L24.39518395093589,14.084566021003278 " />
			<path d="M0.35355339059327384,0.2041241452319316 L24.395183950935895,14.08456602100328 " />
			<path d="M24.748737341529164,17.146428199482248 L-10.60660171779822,37.55884272267541 " />
			<path d="M-10.96015510839148,37.76296686790732 L-10.606601717798204,37.558842722675394 " />
			<path d="M-30.405591591021544,26.5361388801511 L-30.509679846783456,26.478994015337644 L-30.61351734482018,26.427887852849153 L-30.716853931503863,26.382943511907428 L-30.819440659945958,26.344269267366457 L-30.92103038973212,26.3119582888688 L-31.02137838230508,26.286088416391777 L-31.120242890561286,26.266721972724106 L-31.21738574124084,26.25390561332489 L-31.312572908707743,26.247670213926497 L-31.40557507873816,26.24803079615224 L-31.49616820095846,26.254986491327948 L-31.584134028602197,26.2685205425747 L-31.66926064428567,26.2886003451776 L-31.751342970535497,26.31517752513339 L-31.830183263838176,26.34818805568767 L-31.90559159102153,26.387552411580955 " />
			<path d="M-31.905591591021544,26.387552411580963 L-31.97738628682043,26.433175760632004 L-32.045394391524184,26.484948192196796 L-32.10945206765176,26.54274498195297 L-32.169404994650584,26.60642689237161 L-32.225108740668254,26.67584050815263 L-32.27642911050155,26.750818605815702 L-32.3232424688844,26.831180556556255 L-32.36543603833611,26.916732761396073 L-32.40290817085213,27.007269117580215 L-32.43556859278307,27.102571515096578 L-32.46333862231178,27.20241036212205 L-32.486151359004765,27.306545138129287 L-32.50395184498116,27.414724973321764 L-32.51669719731112,27.526689253001067 L-32.52435671132451,27.642168245410534 L-32.526911934581186,27.760883751542686 " />
			<path d="M-10.606601717798213,35.10935297989222 L-10.606601717798213,37.55884272267541 " />
			<path d="M-32.526911934581186,27.76088375154269 L-32.526911934581186,50.214539727055154 " />
			<path d="M-10.606601717798206,35.10935297989222 L-10.96015510839148,34.496980544196425 " />
			<path d="M-32.52691193458118,50.214539727055154 L-32.880465325174455,50.418663872287084 " />
			<path d="M-35.0017856687341,20.616538668425086 L-10.960155108391483,34.49698054419643 " />
			<path d="M-32.88046532517446,50.41866387228709 L-35.00178566873411,49.1939190008955 " />
			<path d="M-35.001785668734094,20.616538668425083 L-35.35533905932737,20.820662813657012 " />
			<path d="M-35.001785668734094,49.1939190008955 L-35.35533905932737,48.5815465651997 " />
			<path d="M-35.35533905932738,48.58154656519971 L-35.35533905932738,20.820662813657016 " />
			<path d="M-2.1802459086585184,19.153648960929576 L-2.27331785512165,19.21008871547172 L-2.36148100714304,19.26909714289928 L-2.4445229719672867,19.330532086742057 L-2.522243694227513,19.394245544839272 L-2.594455937896261,19.460084025889724 L-2.660985737353489,19.5278889192258 L-2.7216728164849817,19.597496876920435 L-2.7763709748015515,19.668740207306616 L-2.82494843964882,19.74144727896126 L-2.8672881836590873,19.81544293418036 L-2.903288206680509,19.890548910949246 L-2.9328617815043967,19.96658427239137 L-2.9559376627986604,20.043365842661107 L-2.972460258744054,20.120708648230412 L-2.9823897649597373,20.19842636350623 L-2.985702260395513,20.276331759705194 " />
			<path d="M-2.985702260395513,20.2763317597052 L-2.9823897649597373,20.35423715590417 L-2.9724602587440545,20.43195487117999 L-2.9559376627986604,20.509297676749295 L-2.9328617815043967,20.586079247019033 L-2.903288206680509,20.662114608461156 L-2.8672881836590878,20.73722058523004 L-2.8249484396488205,20.81121624044914 L-2.776370974801552,20.883923312103786 L-2.7216728164849817,20.955166642489967 L-2.6609857373534895,21.024774600184603 L-2.5944559378962615,21.092579493520677 L-2.522243694227513,21.15841797457113 L-2.4445229719672876,21.222131432668345 L-2.36148100714304,21.28356637651112 L-2.2733178551216504,21.342574803938682 L-2.1802459086585193,21.399014558480825 L-2.0824893862248137,21.452749671825316 L-1.9802837918455372,21.503650691377473 L-1.873875347749704,21.551594992122787 L-1.763520401199419,21.59646707204134 L-1.6494848069268728,21.63815883036228 L-1.532043286667007,21.67656982798804 L-1.4114787673287899,21.711607529460938 L-1.2880816993995114,21.743187525889187 L-1.1621493572241202,21.771233738295308 L-1.033985122845287,21.795678600897055 L-0.9038977551294917,21.816463223879307 L-0.7722006459398668,21.833537535264778 L-0.6392110651477569,21.846860401541807 L-0.5052493963018043,21.856399726758593 L-0.3706383647959126,21.862132529845137 L-0.2357022603955135,21.86404499997667 L-0.10076615599511443,21.862132529845137 L0.03384487551077725,21.856399726758593 L0.16780654435672998,21.846860401541807 L0.3007961251488398,21.833537535264778 L0.43249323433846465,21.816463223879307 L0.5625806020542601,21.795678600897055 L0.6907448364330933,21.771233738295308 L0.8166771786084845,21.743187525889187 L0.940074246537763,21.71160752946094 L1.0606387658759804,21.67656982798804 L1.1780802861358461,21.63815883036228 L1.292115880408392,21.59646707204134 L1.4024708269586774,21.551594992122787 L1.5088792710545105,21.503650691377473 L1.6110848654337855,21.452749671825316 L1.7088413878674922,21.399014558480825 L1.8019133343306253,21.342574803938682 L1.8900764863520143,21.28356637651112 L1.9731184511762607,21.222131432668345 L2.0508391734364864,21.15841797457113 L2.123051417105235,21.092579493520677 L2.1895812165624626,21.024774600184603 L2.2502682956939557,20.955166642489967 L2.304966454010525,20.883923312103786 L2.353543918857793,20.811216240449145 L2.3958836628680604,20.737220585230045 L2.431883685889482,20.66211460846116 L2.4614572607133702,20.586079247019033 L2.484533142007635,20.509297676749295 L2.5010557379530285,20.43195487117999 L2.5109852441687113,20.354237155904173 L2.514297739604487,20.276331759705215 " />
			<path d="M2.514297739604487,20.2763317597052 L2.5124342972224483,20.217892444503583 L2.506846495470885,20.159532328063218 L2.4975419071109664,20.101330501812757 L2.484533142007635,20.043365842661107 L2.467837830040332,19.98571690610102 L2.4474785972104405,19.92846181974824 L2.4234830349778305,19.87167817746059 L2.3958836628680618,19.81544293418036 L2.3647178844009207,19.759832301642597 L2.330027936400019,19.704921645090614 L2.291860831752146,19.650785381138707 L2.2502682956939566,19.597496876920438 L2.2053066957123355,19.545128350659247 L2.157036965153444,19.4937507737961 L2.1055245206439666,19.443433774806785 L2.050839173436487,19.394245544839272 L1.9930550347991232,19.346252745298955 L1.9322504155776548,19.299520417507065 L1.8685077200662494,19.25411189455467 L1.8019133343306253,19.21008871547172 L1.732557509134989,19.167510541827443 L1.6605342376314216,19.12643507687517 L1.58594112797746,19.08691798735107 L1.508879271054513,19.049012828032932 L1.4294531034663829,19.012770969161014 L1.3477702660035626,18.978241526819556 L1.2639414577651156,18.945471296373128 L1.1780802861358477,18.914504689048123 L1.090303112822076,18.88538367174528 L1.000728896154656,18.85814771016485 L0.90947902987299,18.83283371532147 L0.8166771786084852,18.809475993521215 L0.7224491102904336,18.78810619986863 L0.6269225257014399,18.768753295366757 L0.5302268854133841,18.751443507668302 L0.4324932343384642,18.736200295531095 L0.33385402413308984,18.723044317026076 L0.23444293369531694,18.71199340154082 L0.13439468799908533,18.70306252561662 L0.0338448755107803,18.69626379265181 L-0.06707023556443739,18.69160641649886 L-0.16821388195750245,18.689096708977488 L-0.2694489906812413,18.68873807132069 L-0.3706383647959107,18.690530989565264 L-0.47164486934272054,18.69447303389315 L-0.5723316171933557,18.70055886192436 L-0.6725621545636303,18.70878022595717 L-0.7722006459398638,18.719125984145624 L-0.8711120581673563,18.73158211559934 L-0.9691623434514816,18.74613173938503 L-1.0662186210233884,18.762755137404078 L-1.162149357224116,18.781429781115094 L-1.2568245437630639,18.80213036206531 L-1.3501158739092332,18.824828826189357 L-1.4418969163764623,18.84949441182902 L-1.5320432866670044,18.876093691422362 L-1.620432815641234,18.904590616805798 L-1.7069457150850278,18.934946568067684 L-1.7914647400504475,18.967120405887194 L-1.8738753477497025,19.001068527287615 L-1.9540658527870733,19.03674492472843 L-2.0319275785183977,19.074101248456167 L-2.1073550043330074,19.11308687202946 L-2.180245908658508,19.153648960929573 " />
			<path d="M-9.487015980919512,14.93508329280299 L-9.580087927382644,14.991523047345131 L-9.668251079404033,15.050531474772692 L-9.75129304422828,15.111966418615472 L-9.829013766488506,15.175679876712685 L-9.901226010157256,15.24151835776314 L-9.967755809614482,15.309323251099212 L-10.028442888745975,15.37893120879385 L-10.083141047062545,15.45017453918003 L-10.131718511909813,15.522881610834672 L-10.17405825592008,15.596877266053774 L-10.210058278941503,15.671983242822657 L-10.23963185376539,15.748018604264782 L-10.262707735059655,15.82480017453452 L-10.279230331005047,15.902142980103823 L-10.289159837220732,15.979860695379644 L-10.292472332656507,16.057766091578607 " />
			<path d="M-10.292472332656507,16.057766091578614 L-10.289159837220732,16.135671487777582 L-10.27923033100505,16.213389203053403 L-10.262707735059655,16.290732008622708 L-10.23963185376539,16.367513578892446 L-10.210058278941503,16.44354894033457 L-10.174058255920082,16.518654917103454 L-10.131718511909813,16.592650572322555 L-10.083141047062545,16.6653576439772 L-10.028442888745975,16.73660097436338 L-9.967755809614484,16.806208932058016 L-9.901226010157256,16.87401382539409 L-9.829013766488506,16.939852306444543 L-9.751293044228282,17.003565764541758 L-9.668251079404033,17.065000708384535 L-9.580087927382644,17.124009135812095 L-9.487015980919512,17.18044889035424 L-9.389259458485807,17.23418400369873 L-9.28705386410653,17.285085023250886 L-9.180645420010698,17.3330293239962 L-9.070290473460412,17.377901403914752 L-8.956254879187867,17.419593162235692 L-8.838813358928,17.458004159861453 L-8.718248839589783,17.49304186133435 L-8.594851771660505,17.5246218577626 L-8.468919429485114,17.55266807016872 L-8.340755195106281,17.57711293277047 L-8.210667827390486,17.59789755575272 L-8.07897071820086,17.61497186713819 L-7.945981137408751,17.62829473341522 L-7.812019468562798,17.637834058632006 L-7.677408437056906,17.64356686171855 L-7.542472332656508,17.645479331850083 L-7.407536228256109,17.64356686171855 L-7.272925196750217,17.637834058632006 L-7.138963527904264,17.62829473341522 L-7.005973947112154,17.61497186713819 L-6.87427683792253,17.59789755575272 L-6.7441894702067335,17.57711293277047 L-6.616025235827901,17.55266807016872 L-6.490092893652509,17.5246218577626 L-6.366695825723231,17.493041861334355 L-6.2461313063850135,17.458004159861453 L-6.128689786125148,17.419593162235692 L-6.0146541918526015,17.377901403914752 L-5.904299245302316,17.3330293239962 L-5.797890801206483,17.285085023250886 L-5.695685206827209,17.23418400369873 L-5.597928684393501,17.18044889035424 L-5.504856737930369,17.124009135812095 L-5.4166935859089795,17.065000708384535 L-5.333651621084734,17.003565764541758 L-5.2559308988245075,16.939852306444543 L-5.183718655155759,16.87401382539409 L-5.117188855698531,16.806208932058016 L-5.056501776567038,16.73660097436338 L-5.001803618250468,16.6653576439772 L-4.9532261534032,16.592650572322558 L-4.910886409392933,16.518654917103458 L-4.874886386371512,16.443548940334573 L-4.845312811547624,16.367513578892446 L-4.822236930253359,16.290732008622708 L-4.805714334307965,16.213389203053403 L-4.795784828092282,16.135671487777586 L-4.792472332656507,16.057766091578628 " />
			<path d="M-4.792472332656507,16.057766091578614 L-4.794335775038546,15.999326776376995 L-4.799923576790109,15.94096665993663 L-4.809228165150028,15.882764833686169 L-4.822236930253359,15.824800174534522 L-4.838932242220662,15.76715123797443 L-4.859291475050553,15.709896151621653 L-4.883287037283163,15.653112509334004 L-4.910886409392932,15.596877266053774 L-4.942052187860073,15.54126663351601 L-4.976742135860975,15.48635597696403 L-5.014909240508848,15.43221971301212 L-5.056501776567037,15.37893120879385 L-5.101463376548658,15.32656268253266 L-5.14973310710755,15.275185105669513 L-5.201245551617028,15.2248681066802 L-5.2559308988245075,15.175679876712685 L-5.31371503746187,15.127687077172366 L-5.374519656683339,15.080954749380476 L-5.438262352194744,15.035546226428083 L-5.504856737930369,14.991523047345133 L-5.574212563126005,14.948944873700857 L-5.6462358346295725,14.90786940874858 L-5.720828944283534,14.868352319224485 L-5.797890801206481,14.830447159906344 L-5.877316968794611,14.794205301034426 L-5.958999806257431,14.759675858692969 L-6.042828614495878,14.726905628246543 L-6.128689786125146,14.695939020921537 L-6.216466959438918,14.666818003618692 L-6.306041176106338,14.639582042038262 L-6.397291042388003,14.614268047194884 L-6.490092893652509,14.590910325394628 L-6.58432096197056,14.56954053174204 L-6.679847546559554,14.55018762724017 L-6.77654318684761,14.532877839541714 L-6.87427683792253,14.517634627404508 L-6.972916048127904,14.504478648899488 L-7.072327138565677,14.493427733414233 L-7.172375384261908,14.484496857490033 L-7.272925196750213,14.477698124525222 L-7.373840307825431,14.473040748372272 L-7.474983954218496,14.4705310408509 L-7.5762190629422355,14.470172403194102 L-7.677408437056904,14.471965321438677 L-7.778414941603715,14.475907365766561 L-7.879101689454349,14.481993193797774 L-7.979332226824624,14.490214557830582 L-8.078970718200857,14.500560316019037 L-8.17788213042835,14.513016447472754 L-8.275932415712475,14.527566071258445 L-8.372988693284382,14.544189469277491 L-8.46891942948511,14.562864112988507 L-8.563594616024059,14.58356469393872 L-8.656885946170227,14.60626315806277 L-8.748666988637456,14.630928743702434 L-8.838813358927998,14.657528023295773 L-8.927202887902228,14.686024948679211 L-9.013715787346023,14.716380899941097 L-9.098234812311441,14.748554737760607 L-9.180645420010697,14.78250285916103 L-9.260835925048067,14.818179256601844 L-9.338697650779391,14.85553558032958 L-9.414125076594,14.894521203902872 L-9.487015980919502,14.935083292802984 " />
			<path d="M24.748737341529164,14.69693845669907 L-10.60660171779822,35.10935297989223 " />
			<path d="M-10.96015510839149,37.76296686790734 L-32.52691193458119,50.21453972705516 " />
			<path d="M24.39518395093589,14.084566021003276 L-10.960155108391493,34.49698054419643 " />
			<path d="M0.3535533905932738,0.20412414523193154 L-35.00178566873411,20.616538668425086 " />
			<path d="M-30.40559159102154,26.5361388801511 L-32.52691193458119,27.760883751542693 " />

       </g>
    </g>
    
</svg>
