<?xml version="1.0" encoding="UTF-8" standalone="no"?>
<svg
   xmlns:svg="http://www.w3.org/2000/svg"
   xmlns="http://www.w3.org/2000/svg"
   width="800.0"
   height="600.0"

>
    <g transform="scale(14.466725498637391, -14.466725498637391)   translate(28.606093932765653,-22.65089106576785)" stroke-width="0.5"  fill="none">
       <!-- hidden lines -->
       <g  stroke="rgb(200,200,200)" fill="none" stroke-dasharray="0.5,0.5" >
			<path d="M5.146446609406724,9.730403586860758 L5.009813355359831,9.805463316514917 L4.869949409734374,9.874739558469491 L4.72693902134135,9.938190583306731 L4.580868334291224,9.995778170501865 L4.43182533610394,10.0474676314457 L4.2798998047085295,10.093227830339762 L4.125183254364244,10.133031202951317 L3.967768880535786,10.166853773217053 L3.8077515037558474,10.194675167685343 L3.645227512508765,10.216478627788474 L3.4802948051697022,10.23225101993736 L3.31305273103433,10.24198284343274 L3.1436020304745225,10.245668236188036 L2.972044774256128,10.243304978260458 L2.7984843020553534,10.234894493188214 L2.623025160210808,10.220441847133023 L2.4457730387486976,10.199955745828449 L2.266834707719111,10.173448529335893 L2.0863179528817217,10.140936164611402 L1.9043315107796894,10.102438235887771 L1.720985003240824,10.057977932877733 L1.5363888713455005,10.007582036805344 L1.3506543089010783,9.951280904273968 L1.1638931954629108,9.889108448980616 L0.9762180289422846,9.821102121287574 L0.7877418578418889,9.747302885663723 L0.5985782131596113,9.667755196009075 L0.4088410400017268,9.582506968877393 L0.21864462894661657,9.49160955461307 L0.028103547200396928,9.395117706419585 L-0.16266743041407522,9.293089547378225 L-0.353553390593276,9.185586535436917 L-0.5444393507724758,9.072673426390262 L-0.7352103283869489,8.954418234873053 L-0.9257514101331685,8.830892193390815 L-1.1159478211882787,8.702169709412 L-1.3056849943461624,8.568328320547714 L-1.4948486390284381,8.429448647845957 L-1.6833248101288374,8.285614347228519 L-1.8709999766494614,8.13691205909978 L-2.05776109008763,7.983431356157773 L-2.243495652532053,7.825264689438935 L-2.428091784427375,7.66250733262907 L-2.6114382919662393,7.495257324674027 L-2.793424734068272,7.323615410724717 L-2.9739414889056626,7.147684981451999 L-3.15287981993525,6.967572010768003 L-3.330131941397358,6.783384991991415 L-3.505591083241904,6.5952348724951495 L-3.6791515554426795,6.4032349868758 L-3.850708811661075,6.20750098868513 L-4.020159512220881,6.008150780764684 L-4.187401586356253,5.805304444225527 L-4.352334293695315,5.59908416611588 L-4.514858284942397,5.389614165820198 L-4.674875661722337,5.1770206202340745 L-4.8322900355507965,4.961431587759986 L-4.987006585895081,4.742976931169703 L-5.13893211729049,4.5217882393798075 L-5.287975115477773,4.2979987481874575 L-5.434045802527899,4.071743260014118 L-5.577056190920923,3.8431580627056263 L-5.716920136546381,3.61238084743749 L-5.853553390593275,3.3795506257748738 L-5.986873650298416,3.144807645937223 L-6.116800608522523,2.9082933083179836 L-6.243256002124243,2.6701500803102984 L-6.366163659102942,2.430521410489974 L-6.4854495444818685,2.1895516422074133 L-6.601041804904059,1.947385926640591 L-6.712870811914108,1.7041701353614047 L-6.820869203899747,1.460050772468094 L-6.924971926667966,1.215174886336659 L-7.025116272631218,0.9696899810444055 L-7.121241918580134,0.723743927519009 L-7.213290962019966,0.47748487446659915 L-7.30120795604888,0.23106115913251332 L-7.384939942757099,-0.015378782051508583 L-7.464436485126774,-0.2616865028798778 L-7.539649697413345,-0.5077136367916042 L-7.610534273990138,-0.7533119862407713 L-7.677047516638765,-0.9983336119651813 L-7.739149360268946,-1.2426309220994454 L-7.796802397052215,-1.4860567610788058 L-7.849971898954999,-1.7284644982801391 L-7.89862583865749,-1.9697081163467653 L-7.942734908845698,-2.209642299143839 L-7.982272539865085,-2.448122519291362 L-8.017214915725132,-2.685005125222068 L-8.047540988445203,-2.920147427711753 L-8.073232490733055,-3.1534077858299363 L-8.094273946988377,-3.384645692259057 L-8.11065268262471,-3.61372185793082 L-8.12235883170415,-3.8404982959287324 L-8.12938534288021,-4.064838404606263 L-8.131727983645296,-4.286607049870561 L-8.12938534288021,-4.505670646582185 L-8.12235883170415,-4.721897239021792 L-8.11065268262471,-4.9351565803753275 L-8.094273946988377,-5.145320211189846 L-8.073232490733055,-5.352261536752661 L-8.047540988445203,-5.55585590334729 L-8.017214915725132,-5.755980673340181 L-7.982272539865085,-5.952515299053039 L-7.942734908845697,-6.145341395376237 L-7.898625838657489,-6.334342811079579 L-7.8499718989549985,-6.519405698777466 L-7.796802397052214,-6.7004185835062975 L-7.739149360268946,-6.877272429872819 L-7.677047516638765,-7.049860707732969 L-7.610534273990138,-7.218079456361657 L-7.539649697413345,-7.38182734707482 L-7.464436485126771,-7.54100574426601 L-7.3849399427570965,-7.695518764820825 L-7.301207956048877,-7.8452733358733 L-7.213290962019966,-7.990179250869515 L-7.121241918580134,-8.130149223904658 L-7.025116272631218,-8.265098942300787 L-6.924971926667966,-8.394947117393633 L-6.820869203899748,-8.519615533497861 L-6.712870811914109,-8.639029095021257 L-6.60104180490406,-8.753115871699526 L-6.48544954448187,-8.86180714192437 L-6.36616365910294,-8.965037434138837 L-6.243256002124239,-9.06274456627493 L-6.116800608522521,-9.154869683209748 L-5.986873650298414,-9.24135729221763 L-5.853553390593298,-9.32215529639688 " />
			<path d="M-19.44543648263006,20.20829037796122 L-19.63632244280926,20.095377268914564 L-19.827093420423733,19.977122077397354 L-20.017634502169955,19.853596035915118 L-20.207830913225063,19.724873551936305 L-20.397568086382947,19.591032163072015 L-20.58673173106522,19.45215249037026 L-20.775207902165622,19.30831818975282 L-20.962883068686246,19.159615901624083 L-21.149644182124412,19.006135198682074 L-21.335378744568835,18.84796853196324 L-21.519974876464158,18.685211175153373 L-21.703321384003026,18.51796116719833 L-21.88530782610506,18.346319253249018 L-22.065824580942447,18.1703888239763 L-22.244762911972032,17.990275853292307 L-22.422015033434143,17.80608883451572 L-22.597474175278688,17.617938715019452 L-22.771034647479464,17.425938829400103 L-22.94259190369786,17.230204831209434 L-23.112042604257667,17.030854623288988 L-23.279284678393037,16.828008286749828 L-23.4442173857321,16.62178800864018 L-23.60674137697918,16.4123180083445 L-23.76675875375912,16.199724462758375 L-23.92417312758758,15.984135430284288 L-24.078889677931866,15.765680773694005 L-24.230815209327275,15.54449208190411 L-24.37985820751456,15.320702590711761 L-24.525928894564682,15.094447102538421 L-24.66893928295771,14.865861905229929 L-24.808803228583166,14.635084689961793 L-24.945436482630058,14.402254468299176 L-25.0787567423352,14.167511488461525 L-25.208683700559305,13.930997150842286 L-25.335139094161025,13.692853922834601 L-25.458046751139726,13.453225253014278 L-25.57733263651865,13.212255484731717 L-25.692924896940845,12.970089769164893 L-25.804753903950893,12.726873977885708 L-25.91275229593653,12.482754614992396 L-26.01685501870475,12.237878728860961 L-26.116999364668,11.992393823568708 L-26.213125010616917,11.74644777004331 L-26.30517405405675,11.500188716990902 L-26.393091048085665,11.253765001656816 L-26.47682303479388,11.007325060472795 L-26.556319577163556,10.761017339644425 L-26.631532789450127,10.514990205732698 L-26.70241736602692,10.269391856283532 L-26.768930608675547,10.024370230559121 L-26.831032452305728,9.780072920424857 L-26.888685489089,9.536647081445498 L-26.941854990991782,9.294239344244163 L-26.990508930694276,9.052995726177537 L-27.03461800088248,8.813061543380464 L-27.074155631901867,8.574581323232941 L-27.109098007761915,8.337698717302235 L-27.139424080481987,8.10255641481255 L-27.16511558276984,7.869296056694367 L-27.18615703902516,7.638058150265246 L-27.202535774661495,7.408981984593483 L-27.214241923740936,7.18220554659557 L-27.221268434916993,6.95786543791804 L-27.22361107568208,6.736096792653781 " />
			<path d="M-13.788582233137678,18.083151745463013 L-13.857549465633824,18.120869355343913 L-13.930580380991843,18.156722674677663 L-14.00752983251312,18.190600209214296 L-14.088253406360923,18.222373163764004 L-14.172604308987902,18.251894636698495 L-14.260430132506748,18.27899870685354 L-14.351569452010349,18.303499432746392 L-14.445848208847654,18.32518978402154 L-14.543075833861518,18.343840525038463 L-14.64304106459478,18.359199070514876 L-14.745507410470822,18.37098833313913 L-14.850208219954897,18.37890558306525 L-14.956841303702442,18.38262133920424 L-15.065442217378497,18.381766902543504 L-15.176305248279053,18.375849586779594 L-15.288160593649081,18.36439069283385 L-15.399671444638026,18.34703006717445 L-15.509539408800896,18.323530232954543 L-15.616516557337299,18.29377851734101 L-15.719417826021258,18.25778826600562 L-15.817133750736147,18.21569894108689 L-15.863724379093464,18.192444922490125 L-15.90864351852901,18.167774898931107 L-15.95177960904616,18.141740979726084 L-15.993028315098595,18.114402643920833 L-16.032292957568565,18.0858265568118 L-16.06948494963138,18.05608635469934 L-16.104524236357044,18.02526239628185 L-16.137339737899918,17.993441479099314 L-16.16777417949865,17.960824500256994 L-16.19569083666738,17.927653075260217 L-16.221126836400586,17.894007458212297 L-16.244121706691196,17.859964266024893 L-16.264716106879174,17.82559772133844 L-16.28295176684015,17.790979666596964 L-16.298871430637213,17.756179577299115 L-16.312518804431896,17.721264574480593 L-16.32393850845039,17.686299436483296 L-16.33317603280106,17.651346610066366 L-16.340277696939296,17.616466220914447 L-16.345290612575774,17.581716083598355 L-16.349242406384125,17.512826323561015 " />
			<path d="M-16.349242406384125,17.512826323561008 L-16.34745969744987,17.466531739220297 L-16.342196448147284,17.420897181316114 L-16.333581589998573,17.376036903406522 L-16.321746181691353,17.332057388931386 L-16.30682332883937,17.289057386844757 L-16.288948113918426,17.247127946956383 L-16.268257534598973,17.20635245546413 L-16.244865681301516,17.16676758300025 L-16.218802388611333,17.128302508501573 L-16.190140063486258,17.09099343930328 L-16.158952717513696,17.054885341809417 L-16.125310979031944,17.02002193952775 L-16.08928263739699,16.98644582991106 L-16.050933162633452,16.954198580452992 L-16.010326201797668,16.92332080556342 L-15.967524053380863,16.893852225748194 L-15.922588121080434,16.865831710618203 L-15.875579348267275,16.839297307252714 L-15.826558634477161,16.814286255441843 L-15.775587235254166,16.790834991333135 L-15.722727146674073,16.768979141007122 L-15.668041475875777,16.7487535055068 L-15.611594798928655,16.730192038845978 L-15.553453507363878,16.713327820521346 L-15.493686144697657,16.698193024053232 L-15.43236373427439,16.684818883079974 L-15.369560099757683,16.67323565653077 L-15.305352179597262,16.663472594402013 L-15.23978619879096,16.655554309601047 L-15.172671249923727,16.64949035550002 L-15.10405740042057,16.645332385198063 L-15.034067549934049,16.64313567640976 L-14.962833012382958,16.642950422092913 L-14.890493639764573,16.64482182951816 L-14.81719798900792,16.648790239634295 L-14.743103536480364,16.654891267521915 L-14.668376944759771,16.663155964728112 L-14.593194386284521,16.673611004274786 L-14.517741928493631,16.686278889133266 L-14.442215985069266,16.70117818495788 L-14.36682383789389,16.718323777871106 L-14.291784234334333,16.737727158092984 L-14.21732806446506,16.759396730207396 L-14.143699122842856,16.783338150857908 L-14.071168822350524,16.809549419980325 L-14.000482289510147,16.83783128401828 L-13.932210562719481,16.86798842725622 L-13.866694566737051,16.899884321904896 L-13.804249003764717,16.933372592236672 L-13.745160590273683,16.968298681358444 L-13.689686294349402,17.00450124817288 L-13.638051572696764,17.04181331186409 L-13.590448606446996,17.080063161243842 L-13.547034534907706,17.119075046294515 L-13.507929686397432,17.15866966924487 L-13.473215805306161,17.198664492514872 L-13.44293427452319,17.238873880865636 L-13.417084332373769,17.27910909509065 L-13.395621283205914,17.31917815458446 L-13.378454700768827,17.35888558612493 L-13.365444564043555,17.398039366355498 L-13.356352812324138,17.436719810299177 L-13.350997851792195,17.47499250175561 L-13.349242406749976,17.512826287974782 " />
			<path d="M-13.349242406749974,17.51282628797479 L-13.35130450121155,17.55382834314925 L-13.357381264379082,17.59423485761228 L-13.367314346417643,17.63401614503289 L-13.380953131921673,17.6731450864136 L-13.398154540957691,17.71159650479261 L-13.418782838583256,17.749346608858357 L-13.442709451660708,17.786372495748193 L-13.469812791784229,17.822651703302938 L-13.499978083138753,17.858161802049185 L-13.533097194109276,17.89288001718104 L-13.569068471459063,17.92678287081314 L-13.60779657589535,17.959845834776736 L-13.649192317841006,17.992042984230597 L-13.693172492230744,18.023346642358547 L-13.739659711150372,18.05372700642538 L-13.788582233137666,18.083151745463006 " />
			<path d="M-12.655264972017054,-0.36629970037441595 L-12.70552080494966,-0.3388391459221096 L-12.75603997034631,-0.3143374123114083 L-12.806750294090365,-0.29283929321029034 L-12.857576027235726,-0.2743926044267287 L-12.908437336788788,-0.25904827031027655 L-12.95924976163875,-0.24686040830796985 L-13.009923632071564,-0.23788641145012893 L-13.060363451302875,-0.23218702854164325 L-13.1104672374653,-0.22982644183432158 L-13.160125824485373,-0.2308723419558914 L-13.209222120285496,-0.23539599987123028 L-13.257630320746227,-0.24347233565141246 L-13.305215077864275,-0.2551799838261534 L-13.35183062054148,-0.2706013550952363 L-13.397361346971513,-0.28984231029831936 L-13.441678720775647,-0.3130299770556233 " />
			<path d="M-13.441678720775647,-0.3130299770556241 L-13.481325121312208,-0.33802668495386806 L-13.51951287796167,-0.36650269946369207 L-13.556034787160327,-0.3984917078053109 L-13.59068225962612,-0.4340155641687631 L-13.62324566739605,-0.47308451575025734 L-13.653514708683655,-0.5156974194859834 L-13.681278790556586,-0.5618419494833844 L-13.706327429434275,-0.6114947951498928 L-13.728450669405673,-0.664621850019128 L-13.747439518367091,-0.7211783912745579 L-13.763066342909093,-0.7810206820722749 L-13.775096250305955,-0.8437880118075275 L-13.78337577233664,-0.909177719747829 L-13.78780073651196,-0.9768660191820013 L-13.788315406288158,-1.0465074202589042 L-13.784912611841454,-1.117738001110974 L-13.777633677145255,-1.1901785245615633 L-13.76656814335001,-1.2634374004160827 L-13.751853288465732,-1.3371134933369468 L-13.73367344334717,-1.4107987763023222 L-13.712259103981634,-1.4840808296486732 L-13.68788464692682,-1.5565485588966503 L-13.660812632521125,-1.6279286472890067 L-13.631261469058378,-1.6980932985488597 L-13.599438964813144,-1.7669318557009472 L-13.565543928652723,-1.8343451602783625 L-13.529766380970033,-1.9002444401524667 L-13.49228776906134,-1.9645502967784712 L-13.453281185884707,-2.027191785516772 L-13.41291159113505,-2.0881055826901145 L-13.328703873534428,-2.204530471219119 L-13.24083007320086,-2.3134439960918987 L-13.150339669782646,-2.414546107339914 L-13.058173017810553,-2.5076025294032402 L-12.965105062051915,-2.592486723093098 L-12.871568011890615,-2.6692839170251896 L-12.778058022602568,-2.737900772763733 L-12.685050235250655,-2.7981779785916197 L-12.592991312104674,-2.849906107102792 L-12.50231022398292,-2.8928227515654212 L-12.413428208140317,-2.926609461459403 L-12.369793685292912,-2.939963442587666 L-12.326768123521665,-2.950888435912731 L-12.284406106108078,-2.9593273539794773 L-12.242763430198556,-2.965218933761329 L-12.201897382807518,-2.9684976060752932 L-12.16186701980851,-2.9690933589569157 L-12.122667739301384,-2.9669254510800145 L-12.084322907348206,-2.9618917468521344 L-12.046942199013943,-2.9538896901430376 L-12.010635054036449,-2.94282056329949 L-11.975510787571144,-2.928589608362656 L-11.941678759864159,-2.911106182561131 " />
			<path d="M-11.941678759864155,-2.9111061825611286 L-11.894659626114354,-2.879427903577511 L-11.850998879001907,-2.840325409443263 L-11.811048341679097,-2.7935677854789445 L-11.775166988111408,-2.7389495585470085 L-11.743724125672417,-2.6762937266804308 L-11.71710317220668,-2.6054553997290046 L-11.695706125481626,-2.5263263515782732 L-11.680052734283203,-2.4395135052656047 L-11.67052363522647,-2.346137845346625 L-11.667262792180006,-2.24705657040157 L-11.670309488513222,-2.143242822919058 L-11.679600751204985,-2.035768356806217 L-11.694971526105281,-1.925785571284369 L-11.716152818339474,-1.814508959838724 L-11.74276801184483,-1.7031960228905563 L-11.774327582028889,-1.5931276928603397 L-11.810222415539297,-1.4855883202902946 L-11.849798921562805,-1.381640384891121 L-11.892842583891264,-1.2811271936337298 L-11.93907387846449,-1.1842266480003982 L-11.988201511143947,-1.091186137137986 L-12.039958513496543,-1.0022167058310916 L-12.094098908394358,-0.9174984316994259 L-12.150394834807024,-0.8371852779472345 L-12.208634061213518,-0.7614094898659675 L-12.268617817060154,-0.6902856032913953 L-12.33015887169153,-0.623914133216376 L-12.39307979018122,-0.562385010760487 L-12.457211295488946,-0.5057808366977101 L-12.522390666371072,-0.45418001974338307 L-12.588460100471107,-0.40765986780162233 L-12.655264972017042,-0.3662997003744233 " />
			<path d="M7.424621202458749,4.286607049870559 L7.423363336467937,4.443685656960728 L7.419590164706296,4.5992585815630465 L7.413302965661794,4.753273109906501 L7.404503869666372,4.9056770562614735 L7.393195858174116,5.056418780622162 L7.379382762751025,5.205447206204095 L7.363069263776739,5.352711836750806 L7.344260888858661,5.498162773643801 L7.322964010958993,5.641750732810037 L7.299185846235352,5.783427061421142 L7.2729344515956695,5.923143754378782 L7.244218721968222,6.060853470580522 L7.213048387287699,6.196509548960737 L7.179434009198348,6.330066024301062 L7.143386977475313,6.461477642805075 L7.104919506165352,6.590699877431946 L7.064044629448285,6.717688942983813 L7.020776197220528,6.842401810941806 L6.975128870402253,6.964796224045671 L6.927118115969732,7.084830710612069 L6.876760201714557,7.202464598586693 L6.824072190731527,7.317658029325438 L6.769071935637046,7.430371971099972 L6.711778072520014,7.5405682323230865 L6.652210014627224,7.648209474489418 L6.590387945785466,7.753259224827086 L6.5263328135625045,7.855681888655983 L6.4600663221692765,7.9554427614485625 L6.391610925105721,8.052508040588993 L6.320989817552713,8.146844836826716 L6.248226928512688,8.238421185420519 L6.17334691270163,8.32720605696935 L6.096375142195155,8.413169367926224 L6.017337697831525,8.496281990791601 L5.936261360374513,8.576515763982865 L5.85317360143911,8.653843501376471 L5.76810257418313,8.728239001519624 L5.681077103767895,8.799677056508255 L5.592126677591243,8.86813346052839 L5.501281435296099,8.933585018057965 L5.40857215855808,8.996009551726305 L5.314030260655536,9.055385909828624 L5.217687775825592,9.111693973493006 L5.11957734840978,9.164914663497397 L5.019732221792943,9.215029946734342 L4.918186227139183,9.262022842321274 L4.814973771928605,9.305877427354227 L4.710129828298837,9.346578842303117 L4.603689921195173,9.384113296046692 L4.495690116333433,9.418468070545458 L4.386167007979606,9.449631525151013 L4.275157706550359,9.477593100550324 L4.16269982603868,9.502343322343611 L4.048831471268894,9.523873804254617 L3.9335912249853564,9.54217725097218 L3.8170181347792145,9.557247460622154 L3.6991516998576666,9.569079326868831 L3.5800318576601846,9.577668840645142 L3.4596989703262624,9.583013091511095 L3.3381938110192584,9.58511026863992 L3.2155575501109412,9.583959661431647 L3.091831741231486,9.579561659753894 L2.9670583071896006,9.571917753809753 L2.841279525767532,9.56103053363286 L2.7145380153958243,9.546903688209795 L2.586876720712642,9.529542004230123 L2.458338898012561,9.508951364464487 L2.32896810058977,9.485138745771314 L2.1988081639806056,9.458112216732792 L2.067903191110494,9.42788093492095 L1.9362975373502835,9.394455143794737 L1.8040357954870148,9.357846169229164 L1.6711627806142637,9.318066415677691 L1.5377235149471544,9.275129361969134 L1.4037632125672008,9.229049556740556 L1.2693272641021225,9.179842613507658 L1.134461221345851,9.12752520537435 L0.999210781823924,9.072115059383302 L0.8636217733094953,9.013630950509366 L0.727740138295228,8.95209269529794 L0.5916119184262882,8.887521145150396 L0.45528323889976274,8.819938179258864 L0.3188002928357845,8.749366697192775 L0.18220932562559966,8.675830611139643 L0.045556619261952314,8.599354837802755 L-0.09111152334294248,8.51996528995847 L-0.2277487940465086,8.43768886767604 L-0.36430889516669307,8.352553449202887 L-0.5007455551693081,8.264587881518427 L-0.6370125443465113,8.173821970559676 L-0.7730636904811115,8.080286471121902 L-0.9088528944913938,7.984013076437792 L-1.0443341460511868,7.885034407438618 L-1.179461539179817,7.783384001701082 L-1.3141892877967205,7.679096302083575 L-1.4484717412354517,7.572206645055674 L-1.5822633997117808,7.462751248724853 L-1.715518929740683,7.350767200564482 L-1.8481931794969708,7.23629244484723 L-1.9802411941143676,7.119365769788178 L-2.111618230917878,7.000026794401942 L-2.242279774584218,6.878315955078306 L-2.3721815522252157,6.754274491880935 L-2.501279548389094,6.627944434573703 L-2.6295300199745095,6.499368588379495 L-2.7568895110523006,6.368590519476239 L-2.8833148675899385,6.235654540235089 L-3.008763252073693,6.100605694205797 L-3.1331921580235296,5.963489740854301 L-3.2565594243958604,5.824353140057763 L-3.3788232498692405,5.683243036362266 L-3.4999422070081687,5.540207243008538 L-3.619875256300231,5.395294225731057 L-3.738581760061768,5.248553086336113 L-3.8560214962073918,5.100033546064346 L-3.9721546718787066,4.949785928743347 L-4.08694193692758,4.797861143736138 L-4.2003443972493955,4.644310668691206 L-4.312323627961802,4.489186532100021 L-4.422841686424453,4.332541295667871 L-4.531861125095361,4.174428036504054 L-4.6393450042194875,4.01490032913742 L-4.745256904345272,3.854012227363365 L-4.849560938664871,3.691818245928449 L-4.952221765173922,3.52837334205879 L-5.0532045986466985,3.363732896838571 L-5.152475222422597,3.197952696444928 L-5.249999999999999,3.031088913245538 L-5.345745886433549,2.863198086765385 L-5.439680439530971,2.694337104529109 L-5.531771830845672,2.5245631827854407 L-5.621988856461376,2.353933847120266 L-5.710300947565156,2.182506912964832 L-5.796678180805252,2.010340466005794 L-5.881091288430183,1.837492842503689 L-5.963511668205747,1.6640226095264543 L-6.043911393106483,1.4899885451047894 L-6.1222632207783745,1.3154496183160138 L-6.198540602769546,1.1404649693031987 L-6.272717693525841,0.9650938892363323 L-6.34476935914825,0.7893958002223131 L-6.414671185909176,0.6134302351705783 L-6.4823994885247025,0.4372568176211824 L-6.5479313181800265,0.26093524154217596 L-6.611244470305355,0.08452525110311315 L-6.672317492099621,-0.09191337956844903 L-6.731129689799471,-0.26832086664059895 L-6.787661135691071,-0.44463743683401 L-6.8418926748623345,-0.6208033476753054 L-6.8938059316933105,-0.7967589077399797 L-6.943383316082503,-0.9724444968780155 L-6.990608029407059,-1.147800586415423 L-7.035464070214726,-1.3227677593246243 L-7.077936239645741,-1.4972867303571542 L-7.1180101465827645,-1.6712983661317118 L-7.155672212527099,-1.8447437051706022 L-7.190909676199588,-2.0175639778781016 L-7.223710597864603,-2.1897006264537127 L-7.254063863375654,-2.361095324733689 L-7.281959187941274,-2.531689997954051 L-7.307387119609878,-2.7014268424284444 L-7.330339042472426,-2.8702483451341196 L-7.350807179581814,-3.0380973031994487 L-7.368784595587975,-3.204916843286334 L-7.384265199087839,-3.3706504408609694 L-7.397243744689314,-3.5352419393464096 L-7.407715834788629,-3.698635569150463 L-7.415677921060382,-3.8607759665624557 L-7.42112730565986,-4.021608192512485 L-7.4240621421371555,-4.181077751186758 L-7.42448143606282,-4.339130608492775 L-7.422385045364804,-4.495713210368034 L-7.4177736803766,-4.650772500926106 L-7.410648903596563,-4.804255940433897 L-7.401013129158466,-4.956111523114007 L-7.388869622013507,-5.106287794766242 L-7.3742224968240375,-5.254733870202083 L-7.357076716569349,-5.401399450486476 L-7.337438090864037,-5.546234839981 L-7.315313273989503,-5.689190963182463 L-7.290709762639233,-5.830219381351525 L-7.263635893378645,-5.9692723089254995 L-7.234100839820359,-6.106302629709836 L-7.202114609515842,-6.241263912842802 L-7.1676880405644905,-6.374110428527958 L-7.130832797941279,-6.504797163529066 L-7.0915613695442445,-6.633279836422218 L-7.049887061963139,-6.759514912599992 L-7.005823995970662,-6.883459619022574 L-6.9593871017378355,-7.005071958710802 L-6.910592113775117,-7.124310724976285 L-6.859455565600975,-7.241135515383725 L-6.805994784139724,-7.355506745440733 L-6.750227883850545,-7.467385662010498 L-6.692173760589638,-7.576734356442761 L-6.631852085207616,-7.683515777418638 L-6.569283296884315,-7.787693743504972 L-6.504488596203242,-7.889232955413903 L-6.437489937968064,-7.98809900796355 L-6.368310023763489,-8.08425840173578 L-6.296972294263183,-8.177678554426965 L-6.2235009212871955,-8.268327811888092 L-6.147920799611651,-8.356175458850364 L-6.070257538533525,-8.441191729332589 L-5.990537453193264,-8.523347816727027 L-5.908787555658259,-8.6026158835601 L-5.825035545770172,-8.678969070924746 L-5.739309801759227,-8.752381507581191 L-5.651639370628628,-8.82282831872307 L-5.562053958312377,-8.890285634405918 L-5.470583919609824,-8.954730597635168 L-5.377260247900359,-9.01614137211095 L-5.282114564641712,-9.074497149626994 L-5.185179108655474,-9.129778157121253 L-5.0864867252033905,-9.18196566337569 L-4.986070854858203,-9.231041985363127 L-4.883965522172761,-9.276990494238886 L-4.780205324151265,-9.31979562097525 L-4.674825418526543,-9.359442861636818 L-4.5678615118473305,-9.395918782294963 L-4.459349847379588,-9.429211023579738 L-4.349327192825969,-9.459308304867678 L-4.237830827867592,-9.486200428104087 L-4.124898531532281,-9.509878281258526 L-4.010568569393724,-9.530333841412265 L-3.894879680605671,-9.547560177476772 L-3.7778710647756624,-9.561551452542208 L-3.6595823686828446,-9.572302925855183 L-3.5400536728441487,-9.57981095442509 L-3.41932547793357,-9.584072994258499 L-3.2974386910590567,-9.585087601221138 L-3.1744346119017015,-9.582854431527231 L-3.0503549187218963,-9.57737424185597 L-2.9252416542372295,-9.568648889095147 L-2.799137211376876,-9.556681329711953 L-2.6720843189173324,-9.541475618751221 L-2.5441260270043484,-9.52303690846144 L-2.4153056925659784,-9.501371446548985 L-2.285666964621663,-9.476486574061152 L-2.155253769492364,-9.448390722898754 L-2.0241102959167208,-9.417093412959094 L-1.892280980078299,-9.382605248910261 L-1.7598104905489915,-9.344937916597889 L-1.6267437131536848,-9.304104179085577 L-1.4931257357613021,-9.260117872330278 L-1.3590018330073939,-9.212993900494192 L-1.2244174509534576,-9.162748230894689 L-1.089418191688102,-9.10939788859398 L-0.9540497978754794,-9.052960950630439 L-0.8183581372559696,-8.993456539893431 L-0.6823891871044712,-8.93090481864376 L-0.5461890186517162,-8.865326981681998 L-0.4098037814735984,-8.796745249166884 L-0.27327968785403645,-8.725182859086345 L-0.13666299712656693,-8.65066405938361 L-1.270095140171179e-13,-8.573214099741199 " />
			<path d="M2.0421838155888956,8.62658224972791 L-13.441678747953324,-0.3130299694283618 " />
			<path d="M3.5421838104078702,6.028506035383326 L-11.941678752363968,-2.9111061833281653 " />
			<path d="M-13.349242404917497,-0.36639811521185095 L-13.349242404917497,17.512826314694102 " />
			<path d="M-16.3492424049175,-0.36639812061531174 L-16.3492424049175,17.512826320097563 " />

       </g>

       <!-- solid lines -->
       <g  stroke="rgb(40,40,40)" fill="none">
			<path d="M7.4246212024587495,4.694855340334422 L7.4222785616936635,4.913918937046048 L7.415252050517602,5.130145529485661 L7.403545901438163,5.343404870839198 L7.38716716580183,5.553568501653711 L7.366125709546508,5.7605098272165245 L7.340434207258657,5.964104193811153 L7.310108134538585,6.164228963804043 L7.275165758678537,6.360763589516901 L7.235628127659148,6.553589685840097 L7.191519057470942,6.742591101543441 L7.1428651177684515,6.927653989241328 L7.089695615865666,7.108666873970159 L7.032042579082398,7.285520720336679 L6.969940735452217,7.458108998196831 L6.90342749280359,7.62632774682552 L6.8325429162267985,7.7900756375386795 L6.7573297039402265,7.949254034729869 L6.677833161570552,8.103767055284681 L6.594101174862333,8.253521626337157 L6.50618418083342,8.398427541333373 L6.414135137393591,8.538397514368516 L6.318009491444673,8.673347232764643 L6.217865145481418,8.803195407857496 L6.1137624227132,8.927863823961722 L6.005764030727562,9.04727738548512 L5.89393502371751,9.161364162163393 L5.778342763295318,9.270055432388236 L5.659056877916391,9.373285724602704 L5.536149220937692,9.470992856738793 L5.409693827335973,9.563117973673611 L5.279766869111867,9.649605582681492 L5.146446609406776,9.73040358686073 " />
			<path d="M-5.853553390593274,-9.322155296396895 L-5.71692013654638,-9.397215026051052 L-5.577056190920924,-9.466491268005628 L-5.4340458025279,-9.529942292842867 L-5.2879751154777725,-9.587529880038 L-5.138932117290486,-9.639219340981837 L-4.9870065858950765,-9.684979539875899 L-4.832290035550792,-9.724782912487454 L-4.674875661722334,-9.75860548275319 L-4.514858284942396,-9.78642687722148 L-4.352334293695313,-9.808230337324611 L-4.187401586356252,-9.824002729473499 L-4.02015951222088,-9.833734552968878 L-3.8507088116610735,-9.837419945724173 L-3.6791515554426795,-9.835056687796595 L-3.5055910832419057,-9.826646202724351 L-3.330131941397357,-9.812193556669161 L-3.152879819935245,-9.791707455364586 L-2.973941488905658,-9.765200238872028 L-2.7934247340682696,-9.732687874147539 L-2.611438291966239,-9.69418994542391 L-2.428091784427374,-9.64972964241387 L-2.243495652532051,-9.599333746341479 L-2.057761090087629,-9.543032613810107 L-1.8709999766494614,-9.480860158516753 L-1.683324810128837,-9.412853830823712 L-1.4948486390284403,-9.339054595199862 L-1.3056849943461637,-9.259506905545212 L-1.1159478211882765,-9.174258678413532 L-0.9257514101331641,-9.083361264149207 L-0.7352103283869453,-8.986869415955722 L-0.5444393507724736,-8.884841256914362 L-0.3535533905933084,-8.777338244973077 " />
			<path d="M-0.35355339059327334,-8.777338244973057 L-0.16266743041407344,-8.6644251359264 L0.028103547200402257,-8.54616994440919 L0.21864462894662456,-8.42264390292695 L0.4088410400017339,-8.293921418948136 L0.5985782131596167,-8.160080030083849 L0.7877418578418929,-8.021200357382092 L0.9762180289422908,-7.8773660567646555 L1.1638931954629144,-7.728663768635917 L1.350654308901081,-7.57518306569391 L1.536388871345504,-7.417016398975073 L1.7209850032408267,-7.254259042165208 L1.9043315107796916,-7.087009034210164 L2.086317952881723,-6.915367120260855 L2.266834707719111,-6.739436690988137 L2.4457730387486976,-6.559323720304144 L2.6230251602108066,-6.375136701527557 L2.7984843020553516,-6.18698658203129 L2.9720447742561253,-5.994986696411943 L3.1436020304745194,-5.799252698221274 L3.313052731034327,-5.5999024903008285 L3.4802948051696987,-5.397056153761673 L3.645227512508761,-5.190835875652024 L3.8077515037558483,-4.981365875356336 L3.967768880535786,-4.768772329770214 L4.125183254364244,-4.553183297296127 L4.279899804708535,-4.334728640705837 L4.431825336103945,-4.113539948915942 L4.580868334291228,-3.8897504577235917 L4.7269390213413525,-3.663494969550252 L4.869949409734376,-3.434909772241762 L5.009813355359833,-3.204132556973628 L5.146446609406726,-2.971302335311012 L5.279766869111867,-2.736559355473361 L5.409693827335973,-2.5000450178541236 L5.536149220937691,-2.261901789846441 L5.659056877916391,-2.0222731200261164 L5.778342763295318,-1.7813033517435561 L5.89393502371751,-1.5391376361767337 L6.005764030727562,-1.2959218448975387 L6.1137624227132,-1.0518024820042302 L6.217865145481418,-0.8069265958727962 L6.318009491444674,-0.5614416905805348 L6.414135137393591,-0.3154956370551387 L6.50618418083342,-0.06923658400272806 L6.594101174862334,0.17718713133135774 L6.677833161570552,0.42362707251537746 L6.7573297039402265,0.6699347933437441 L6.832542916226798,0.9159619272554709 L6.90342749280359,1.1615602767046354 L6.969940735452218,1.4065819024290431 L7.032042579082398,1.650879212563308 L7.089695615865666,1.894305051542668 L7.142865117768451,2.1367127887440014 L7.191519057470942,2.377956406810627 L7.23562812765915,2.6178905896077014 L7.275165758678537,2.8563708097552243 L7.310108134538585,3.09325341568593 L7.340434207258657,3.328395718175616 L7.366125709546508,3.561656076293798 L7.38716716580183,3.7928939827229144 L7.4035459014381635,4.021970148394674 L7.415252050517602,4.248746586392585 L7.422278561693662,4.4730866950701245 L7.4246212024587495,4.694855340334344 " />
			<path d="M1.7677669529663689,7.960841664045329 L1.7713587695562882,7.849778472105111 L1.7819223794732366,7.735759231639715 L1.7991221776155486,7.619847833105794 L1.822595580728935,7.503096716612516 L1.8519486599663721,7.38653933154312 L1.8867514379482202,7.271181860652959 L1.926533000640954,7.15799430745779 L1.9707765743728949,7.047901045726123 L2.018914718305328,6.941770929889402 L2.0703247826773925,6.840407065183827 L2.124357469846427,6.744481190170152 L2.181008907618017,6.653516287894033 L2.2401866605117338,6.567383064930622 L2.3016265442250674,6.486272894650869 L2.365079014774201,6.410350174010707 L2.4303073967517754,6.3397565910881575 L2.4970862557635507,6.274615325216431 L2.5651998652831685,6.215035204181011 L2.6344407181641936,6.161114842948659 L2.7046080330486353,6.112946788396328 L2.775509168457742,6.070620056992531 L2.8470041337133134,6.034204277339128 L2.918910748663404,6.003810916066934 L2.991012635890972,5.979576512671432 L3.0630763895632467,5.961650252440703 L3.134848365002554,5.95019444530819 L3.2060511635512086,5.945384987206508 L3.276379794722314,5.947411801064754 L3.3454974976283056,5.956479254591783 L3.4130312036790613,5.972806551987944 L3.4785961458733285,5.9966407756946385 L3.510664732086111,6.011537721895619 L3.542183819243937,6.028506016905584 " />
			<path d="M3.54218381924394,6.028506016905586 L3.5785295341571635,6.051253740507257 L3.61373968437251,6.076970938007281 L3.647619896037029,6.105678968969056 L3.6799803628580947,6.137384095300315 L3.7106363394540995,6.172078143523442 L3.739408642371348,6.209739160169811 L3.7661241552578373,6.250332057586115 L3.790616334684621,6.293809247440623 L3.812725713105454,6.340111259217318 L3.8323003954454147,6.389167340985875 L3.849196545809188,6.440896039735427 L3.8632788607997233,6.495205758560069 L3.874421025937938,6.551995287984057 L3.882506151674188,6.611154308714639 L3.887427185482177,6.6725638631105015 L3.8890872965260117,6.73609679265373 " />
			<path d="M3.8890872965260117,6.736096792653742 L3.8871045039616297,6.807192528458857 L3.8812239847484737,6.879248227066591 L3.871562072047676,6.951985262841504 L3.858253988558699,7.025129380128582 L3.8414531585337883,7.098411294004178 L3.821330458312792,7.171567272182051 L3.798073414161239,7.24433970397996 L3.7718853561946037,7.3164776622522565 L3.742984537171644,7.3877374641939175 L3.7116032249397426,7.457883236921472 L3.677986777315145,7.526687493736261 L3.6423927081810117,7.5939317269754865 L3.605089753586189,7.6594070233564935 L3.5663569466276077,7.722914707719718 L3.5264585078646857,7.784303140341562 L3.4854070024008266,7.843790385964772 L3.4002483064778644,7.957190421189518 L3.3118460890427093,8.063010230491908 L3.221084276986447,8.161103880131794 L3.1287336083308763,8.251346385723167 L3.0354679390188166,8.33361916400877 L2.941879147822519,8.407797086533177 L2.848490713134532,8.473736741444107 L2.7557700354053924,8.531265509651675 " />
			<path d="M-11.667261889578034,15.717559182858725 L-11.66960453034312,15.93662277957035 L-11.676631041519181,16.152849372009964 L-11.68833719059862,16.366108713363502 L-11.704715926234954,16.576272344178015 L-11.725757382490276,16.783213669740828 L-11.751448884778128,16.986808036335454 L-11.781774957498198,17.186932806328347 L-11.816717333358246,17.383467432041204 L-11.856254964377635,17.5762935283644 L-11.900364034565841,17.765294944067744 L-11.949017974268333,17.95035783176563 L-12.002187476171118,18.131370716494462 L-12.059840512954386,18.308224562860982 L-12.121942356584567,18.480812840721136 L-12.188455599233194,18.649031589349825 L-12.259340175809985,18.812779480062982 L-12.334553388096557,18.97195787725417 L-12.41404993046623,19.126470897808986 L-12.49778191717445,19.276225468861462 L-12.585698911203362,19.421131383857677 L-12.677747954643193,19.56110135689282 L-12.773873600592111,19.696051075288945 L-12.874017946555366,19.8258992503818 L-12.978120669323584,19.950567666486023 L-13.086119061309223,20.069981228009425 L-13.197948068319274,20.184068004687695 L-13.313540328741466,20.29275927491254 L-13.432826214120393,20.395989567127007 L-13.555733871099092,20.493696699263097 L-13.68218926470081,20.585821816197914 L-13.812116222924917,20.672309425205796 L-13.945436482630008,20.753107429385032 " />
			<path d="M-13.94543648263006,20.75310742938506 L-14.082069736676953,20.828167159039218 L-14.22193368230241,20.897443400993794 L-14.364944070695433,20.960894425831036 L-14.51101475774556,21.018482013026166 L-14.660057755932844,21.070171473970003 L-14.811983287328253,21.115931672864065 L-14.96669983767254,21.15573504547562 L-15.124114211500999,21.189557615741357 L-15.284131588280935,21.217379010209648 L-15.44665557952802,21.239182470312777 L-15.611588286867082,21.254954862461663 L-15.778830361002454,21.264686685957045 L-15.94828106156226,21.26837207871234 L-16.119838317780655,21.266008820784762 L-16.29339878998143,21.257598335712515 L-16.468857931825976,21.243145689657325 L-16.646110053288087,21.22265958835275 L-16.825048384317675,21.196152371860194 L-17.005565139155063,21.163640007135704 L-17.187551581257097,21.125142078412075 L-17.37089808879596,21.080681775402034 L-17.555494220691283,21.030285879329647 L-17.741228783135707,20.973984746798273 L-17.927989896573877,20.911812291504916 L-18.1156650630945,20.843805963811874 L-18.304141234194898,20.770006728188022 L-18.493304878877172,20.690459038533376 L-18.683042052035056,20.605210811401697 L-18.873238463090168,20.51431339713737 L-19.063779544836386,20.417821548943888 L-19.25455052245086,20.315793389902527 L-19.44543648263005,20.208290377961227 " />
			<path d="M-27.22361107568208,6.736096792653742 L-27.221268434916993,6.517033195942117 L-27.214241923740936,6.300806603502511 L-27.202535774661495,6.087547262148975 L-27.18615703902516,5.877383631334457 L-27.16511558276984,5.670442305771641 L-27.139424080481987,5.466847939177013 L-27.109098007761915,5.266723169184122 L-27.074155631901867,5.0701885434712635 L-27.03461800088248,4.877362447148066 L-26.990508930694272,4.688361031444724 L-26.941854990991782,4.503298143746837 L-26.888685489089,4.322285259018005 L-26.831032452305728,4.145431412651484 L-26.768930608675547,3.9728431347913338 L-26.70241736602692,3.8046243861626454 L-26.631532789450127,3.6408764954494828 L-26.556319577163556,3.481698098258293 L-26.47682303479388,3.3271850777034775 L-26.39309104808566,3.177430506651003 L-26.30517405405675,3.032524591654788 L-26.213125010616917,2.892554618619645 L-26.116999364668,2.757604900223516 L-26.01685501870475,2.62775672513067 L-25.91275229593653,2.5030883090264417 L-25.804753903950893,2.3836747475030453 L-25.692924896940845,2.2695879708247766 L-25.577332636518655,2.160896700599933 L-25.458046751139722,2.057666408385465 L-25.335139094161022,1.9599592762493732 L-25.208683700559305,1.8678341593145547 L-25.078756742335198,1.7813465503066723 L-24.945436482630083,1.700548546127422 " />
			<path d="M-24.945436482630058,1.7005485461274077 L-24.84326766802516,1.643713253719799 L-24.739269871688506,1.590125069489508 L-24.633478331859884,1.5398021510644089 L-24.525928894564686,1.4927615496814362 L-24.416658001467958,1.4490192044090122 L-24.30570267752666,1.408589936746301 L-24.19310051844424,1.3714874456011525 L-24.078889677931862,1.3377243026484038 L-23.96310885478052,1.3073119480701507 L-23.845797279748474,1.2802606866793855 L-23.726994702268474,1.2565796844283579 L-23.60674137697918,1.2362769653028227 L-23.48507805008542,1.2193594086032 L-23.362045945551912,1.2058327466136483 L-23.23768675113507,1.19570156265973 L-23.112042604257663,1.1889692895554251 L-22.985156077731162,1.1856382084399772 L-22.85707016533048,1.1857094480049426 L-22.727828267226137,1.189182984111767 L-22.59747417527869,1.1960576397999514 L-22.46605205820047,1.2063310856858518 L-22.33360644658961,1.2199998407519637 L-22.200182217841448,1.2370592735264143 L-22.065824580942447,1.257503603652271 L-21.930579061151718,1.281325903846147 L-21.79449148457544,1.3085181022454044 L-21.657607962639272,1.3390709851432003 L-21.519974876464158,1.3729742001104324 L-21.381638861150687,1.410216259503505 L-21.24264678997744,1.450784544356777 L-21.10304575851859,1.4946653086583161 L-20.962883068686246,1.5418436840075493 L-20.822206212702813,1.5923036846532206 L-20.681062857008918,1.646028212909945 L-20.53950082611226,1.7029990649515305 L-20.397568086382947,1.7631969369790905 L-20.25531272980074,1.8266014317618744 L-20.11278295765973,1.8931910655485975 L-19.970027064235992,1.9629432753469125 L-19.827093420423733,2.035834426568579 L-19.684030457345447,2.1118398210377123 L-19.54088664994171,2.1909337053594413 L-19.397710500546108,2.2730892796460775 L-19.254550522450856,2.3582787065979023 L-19.11145522346876,2.446473120935458 L-18.968473089496978,2.5376426391801505 L-18.825652568088238,2.6317563697798683 L-18.683042052035056,2.7287824235761615 L-18.540689862972492,2.82868792460944 L-18.398644235004994,2.9314390212585657 L-18.256953298362976,3.0370008977109926 L-18.1156650630945,3.145337785759642 L-17.97482740279775,3.256412976922478 L-17.834488038399705,3.37018883488067 L-17.694694521986545,3.486626808231149 L-17.55549422069128,3.60568744354923 L-17.416934300644048,3.7273303987568633 L-17.279061710990494,3.851514456792006 L-17.14192316798371,3.9781975395744604 L-17.00556513915506,4.107336722263447 L-16.87003382756928,4.238888247802138 L-16.735375156169194,4.372807541744109 L-16.601634752215386,4.509049227356785 L-16.468857931825976,4.647567140996745 L-16.337089684621905,4.788314347751642 L-16.206374658482787,4.93124315734345 L-16.076757144418597,5.076305140287677 L-15.948281061562264,5.223451144303029 L-15.820989942288259,5.372631310966005 L-15.694926917462247,5.523795092604745 L-15.570134701826788,5.676891269426399 L-15.446655579528024,5.831867966872279 L-15.324531389788255,5.988672673194843 L-15.203803512729312,6.1472522572505905 L-15.08451285535144,6.30755298650282 L-14.96669983767254,6.469520545228176 L-14.850404379032375,6.633100052920788 L-14.735665884566462,6.798236082887794 L-14.622523231854164,6.964872681029906 L-14.51101475774556,7.132953384800703 L-14.401178245371518,7.302421242338214 L-14.293050911341389,7.473218831762266 L-14.186669393132687,7.645288280631098 L-14.082069736676956,7.818571285550666 L-13.979287384146105,7.993009131929956 L-13.878357161943306,8.168542713875617 L-13.779313268902545,8.3451125542192 L-13.68218926470081,8.522658824670179 L-13.587018058486851,8.701121366087957 L-13.493831897730358,8.880439708865975 L-13.402662357295352,9.060553093421014 L-13.313540328741466,9.241400490780746 L-13.226496009856758,9.4229206232626 L-13.141558894425604,9.605051985236848 L-13.058757762235134,9.787732863966944 L-12.978120669323587,9.970901360520063 L-12.899674938473908,10.154495410740711 L-12.823447149955786,10.338452806280314 L-12.749463132519303,10.522711215675677 L-12.677747954643197,10.707208205469156 L-12.60832591604077,10.891881261363372 L-12.541220539426236,11.076667809403348 L-12.476454562544394,11.261505237178838 L-12.414049930466234,11.44633091503967 L-12.354027788153152,11.631082217317001 L-12.296408473292267,11.815696543543133 L-12.241211509405286,12.00011133966283 L-12.188455599233196,12.184264119228928 L-12.138158618399126,12.368092484575012 L-12.09033760935141,12.55153414795801 L-12.045008775588999,12.734526952663565 L-12.002187476171118,12.91700889406697 L-11.961888220513064,13.098918140642615 L-11.924124663469883,13.280193054914744 L-11.888909600709612,13.460772214342477 L-11.856254964377634,13.640594432132005 L-11.826171819053641,13.819598777968917 L-11.798670358002546,13.997724598663599 L-11.773759899720638,14.174911538702723 L-11.751448884778128,14.351099560699918 L-11.731744872959187,14.52622896573862 L-11.714654540700412,14.700240413600222 L-11.700183678828603,14.873074942870723 L-11.68833719059862,15.044673990918984 L-11.679119090031989,15.21497941373989 L-11.672532500556795,15.383933505655646 L-11.668579653949362,15.55147901886857 L-11.667261889578034,15.717559182858647 " />
			<path d="M2.755770035405389,8.531265509651677 L2.705832679898205,8.558917874451357 L2.6562817709731448,8.58398574663431 L2.6071842838093797,8.60642129334877 L2.5586070061410564,8.626171483733083 L2.5106169497465842,8.643177946183448 L2.463281773000425,8.657376813581365 L2.4166702180378676,8.668698557875889 L2.3708525660832516,8.67706781541584 L2.325901114492115,8.682403204427096 L2.281890679057744,8.684617136030067 L2.2388991251325914,8.683615620192514 L2.1970079311150372,8.679298068012821 L2.156302787851971,8.671557091728841 L2.116874237507656,8.660278303847445 L2.0788028230880395,8.645333089297587 L2.042183822002608,8.626582247702823 " />
			<path d="M2.042183822002607,8.626582247702824 L2.012429157408373,8.607645170322007 L1.9839126054137444,8.585826775788542 L1.9567251284200609,8.561063008037886 L1.9309580953832077,8.533294065434768 L1.9067035482833443,8.50246462298669 L1.8840544961473453,8.468524080595655 L1.8631052366239556,8.431426837348145 L1.8439517051116592,8.391132591843336 L1.826692501607813,8.347608441850246 L1.81144444088847,8.300882482198734 L1.798329466233226,8.251056759130638 L1.7874515963340922,8.198261205816458 L1.7788967998548846,8.14265115524796 L1.7727333366604783,8.084406069609223 L1.7690120990460576,8.023728269647714 L1.7677669529663689,7.9608416640453346 " />
			<path d="M-13.788582233137678,0.28802132541082237 L-13.857549465632106,0.3250691209668306 L-13.930580380988232,0.35891949768486614 L-14.007529832507423,0.3894806262943052 L-14.08825340635297,0.41665707936680635 L-14.172604308977533,0.44034978626168586 L-14.26043013249382,0.46045603402798646 L-14.351569451994727,0.47686949486983155 L-14.445848208829215,0.4894802607816554 L-14.543075833840149,0.4981748659598997 L-14.643041064570394,0.5028362775977683 L-14.745507410443368,0.5033438356696301 L-14.850208219924358,0.4995731223116619 L-14.95684130366881,0.4913957414053205 L-15.065442217341417,0.4786265746439024 L-15.176305248238695,0.46095527882647047 L-15.288160593605895,0.438278540273649 L-15.399671444592533,0.4106203756105449 L-15.509539408753689,0.37810766139986085 L-15.61651655728904,0.3409553863633672 L-15.719417825972677,0.2994528057175394 L-15.817133750688024,0.25395074399309125 L-15.90864351848215,0.20485029270813532 L-15.993028315053799,0.1525931492646988 L-16.06948494958943,0.09765384343832778 L-16.137339737861577,0.040534097830507376 L-16.195690836635784,-0.01783183887227697 L-16.244121706668633,-0.07655174953769583 L-16.282951766826212,-0.13533321806374626 L-16.312518804424716,-0.1939214362073739 L-16.323938508445703,-0.22307183471433945 L-16.333176032798274,-0.2520916957781049 L-16.340277696937857,-0.2809567384708322 L-16.345290612575194,-0.30964392878027 L-16.34924240638413,-0.3663981171518608 " />
			<path d="M-16.34924240638413,-0.3663981171518635 L-16.3474596974507,-0.4045224728925776 L-16.34219644815062,-0.4421519611568804 L-16.333581590006077,-0.47924086554634904 L-16.321746181704505,-0.5157456148015706 L-16.306823328859302,-0.5516245258893206 L-16.28894811394566,-0.5868375960549648 L-16.268257534633147,-0.6213463387087711 L-16.244865681341707,-0.6551472072648739 L-16.218802388657735,-0.6883261288004865 L-16.19014006353913,-0.720875870428896 L-16.15895271757329,-0.7527785399738939 L-16.125310979098504,-0.7840141091736493 L-16.089282637470745,-0.8145603183481317 L-16.05093316271463,-0.8443925830497695 L-15.967524053477518,-0.9018047759860371 L-15.87557934838015,-0.9560041522349364 L-15.775587235383878,-1.0067015542753102 L-15.668041476022776,-1.0535629193587819 L-15.553453507528431,-1.096207391386611 L-15.432363734456558,-1.134205904803659 L-15.30535217979687,-1.167080317196127 L-15.172671250137165,-1.1943708424694757 L-15.034067550148295,-1.2155596774220534 L-14.890493639974014,-1.2297893350506925 L-14.817197989214785,-1.2340175681478043 L-14.743103536685123,-1.2361723629886099 L-14.668376944963061,-1.2361415061859733 L-14.59319438648694,-1.2338127884070793 L-14.517741928695548,-1.2290743472897616 L-14.442215985270636,-1.221815057460935 L-14.366823838094113,-1.2119249704949224 L-14.29178423453213,-1.1992958076494853 L-14.21732806465837,-1.1838215082173456 L-14.14369912302878,-1.1653988363310048 L-14.071168822525031,-1.1439324863612996 L-14.000482289670343,-1.1195050066059111 L-13.932210562865178,-1.0922304605692503 L-13.866694566868237,-1.0621958491832817 L-13.804249003881553,-1.029516316794974 L-13.745160590376502,-0.9943341460975166 L-13.689686294438687,-0.9568175487226107 L-13.63805157277314,-0.9171592643507493 L-13.590448606511226,-0.8755749811964069 L-13.547034534960662,-0.8323015907250526 L-13.507929686440086,-0.7875952894589046 L-13.473215805339565,-0.741729540728344 L-13.442934274548456,-0.6949929092259017 L-13.417084332392045,-0.647686781219739 L-13.395621283218372,-0.6001229832835347 L-13.37845470077663,-0.5526213123996998 L-13.365444564047847,-0.5054981985169646 L-13.356352812326014,-0.45873815564060505 L-13.350997851792656,-0.41233596015616836 L-13.349242406749976,-0.3663981419311686 " />
			<path d="M-13.349242406749976,-0.36639814193116205 L-13.351304501211553,-0.3166108163815219 L-13.357381264379091,-0.2676203196098498 L-13.367314346417656,-0.21953510943832882 L-13.380953131921684,-0.17245403634958317 L-13.398154540957696,-0.12646717114310885 L-13.418782838583255,-0.08165658828249794 L-13.442709451660702,-0.03809710903227226 L-13.469812791784223,0.0041429915168536 L-13.499978083138755,0.045001309435444115 L-13.533097194109287,0.08442066485673572 L-13.569068471459085,0.12234847869312171 L-13.607796575895375,0.15873616906890398 L-13.649192317841022,0.1935385633704947 L-13.693172492230739,0.2267133218152343 L-13.73965971115035,0.25822036844000495 L-13.788582233137666,0.2880213254108147 " />
			<path d="M7.4246212024587495,4.694855340334425 L7.4246212024587495,4.286607049870562 " />
			<path d="M4.440892098500626e-16,-8.573214099741126 L0.18220932562559966,-8.465433404742043 L0.3643088951666904,-8.352553449202889 L0.5461890186517206,-8.234642227788024 L0.7277401382952347,-8.111770765808245 L0.9088528944913956,-7.984013076437792 L1.0894181916881145,-7.851446116131569 L1.2693272641021291,-7.7141497382694695 L1.4484717412354526,-7.572206645055672 L1.6267437131537021,-7.425702337701939 L1.8040357954870152,-7.274725064924867 L1.980241194114369,-7.119365769788178 L2.1552537694923757,-6.959718034922 L2.3289681005897696,-6.795878026152206 L2.5012795483890944,-6.627944434573702 L2.6720843189173373,-6.456018417102618 L2.8412795257675305,-6.280203535543148 L3.0087632520736878,-6.100605694205802 L3.1744346119017,-5.917333076114607 L3.3381938110192575,-5.730496077841696 L3.4999422070081643,-5.540207243008544 L3.6595823686828375,-5.346581194493895 L3.817018134779215,-5.149734565389231 L3.972154671878707,-4.9497859287433466 L4.124898531532285,-4.746855726138412 L4.275157706550358,-4.541066195140419 L4.422841686424453,-4.33254129566787 L4.567861511847345,-4.12140663532297 L4.710129828298842,-3.907789393730272 L4.849560938664871,-3.691818245928448 L4.9860708548582116,-3.4736232848612527 L5.119577348409782,-3.2533359430143975 L5.25,-3.031088913245537 L5.37726024790036,-2.807016068855052 L5.501281435296099,-2.5812523829457796 L5.6219888564613765,-2.3539338471202647 L5.739309801759225,-2.1251973895644998 L5.85317360143911,-1.8951807925675106 L5.963511668205747,-1.664022609526453 L6.070257538533524,-1.4318620814872212 L6.173346912701635,-1.1988390532708815 L6.272717693525842,-0.9650938892363312 L6.368310023763495,-0.7307673887300812 L6.460066322169279,-0.49600070127402107 L6.547931318180027,-0.26093524154217507 L6.631852085207625,-0.02571260417782062 L6.711778072520016,0.20952552149783443 L6.787661135691069,0.4446374368340025 L6.859455565600978,0.6794815192042876 L6.9271181159697335,0.913916307314854 L6.99060802940706,1.1478005864154244 L7.04988706196314,1.3809934733617677 L7.104919506165352,1.61335450147843 L7.155672212527101,1.844743705170612 L7.202114609515842,2.07502170423421 L7.244218721968222,2.3040497878132356 L7.281959187941274,2.5316899979540533 L7.315313273989502,2.7578052127060895 L7.34426088885866,2.982259228718971 L7.368784595587973,3.2049168432863264 L7.388869622013507,3.4256439357868476 L7.404503869666371,3.644307548473527 L7.415677921060382,3.860775966562442 L7.422385045364803,4.0749187975728205 L7.4246212024587495,4.286607049870485 " />
			<path d="M-12.374368670764582,15.717559182858725 L-12.376604827858529,15.926665343356186 L-12.383311952162948,16.133063454321274 L-12.39448600355696,16.336629189249646 L-12.410120251209822,16.53723992775441 L-12.430205277635357,16.734774829428005 L-12.454728984364671,16.929114906631966 L-12.48367659923383,17.120143096170636 L-12.517030685282057,17.307744329805637 L-12.554771151255109,17.491805603568686 L-12.596875263707489,17.67221604583097 L-12.64331766069623,17.848866984088048 L-12.694070367057979,18.021652010420112 L-12.74910281126019,18.19046704558815 L-12.80838184381627,18.35521040172739 L-12.871871757253597,18.515782843600228 L-12.939534307622353,18.67208764837188 L-13.011328737532262,18.82403066387256 L-13.087211800703315,18.971520365311246 L-13.167137788015705,19.11446791040679 L-13.251058555043304,19.252787192903178 L-13.338923551054052,19.386394894436723 L-13.430679849459835,19.515210534723938 L-13.52627217969749,19.63915652003984 L-13.625642960521697,19.758158189957513 L-13.728732334689806,19.872143862320755 L-13.835478205017584,19.981044876422743 L-13.94581627178422,20.08479563436464 L-14.059680071464104,20.18333364056936 L-14.177001016761954,20.276599539426535 L-14.29770843792723,20.36453715104613 L-14.421729625322968,20.44709350509911 L-14.54898987322333,20.524218872724774 L-14.679412524813547,20.59586679648556 L-14.812919018365118,20.661994118351288 L-14.949428934558458,20.722561005695926 L-15.088860044924488,20.77753097529128 L-15.231128361375985,20.826870915283124 L-15.376148186798876,20.87055110513655 L-15.523832166672971,20.90854523353849 L-15.674091341691046,20.94083041424669 L-15.826835201344622,20.967387199875514 L-15.981971738444116,20.988199593610318 L-16.139407504540493,21.00325505884335 L-16.299047666215166,21.0125445267253 L-16.46079606220407,21.016062401628083 L-16.624555261321632,21.0138065645154 L-16.790226621149642,21.00577837421916 L-16.957710347455798,20.991982666621027 L-17.126905554305996,20.972427751739385 L-17.297710324834235,20.947125408723764 L-17.47002177263356,20.91609087875948 L-17.643736103730955,20.879342855886925 L-17.81874867910896,20.836903475740975 L-17.994954077736317,20.78879830221733 L-18.172246160069626,20.73505631207375 L-18.35051813198788,20.675709877475548 L-18.5296626091212,20.610794746495827 L-18.709571681535216,20.54035002158215 L-18.890136978731935,20.464418136002713 L-19.071249734928095,20.38304482828611 L-19.25280085457161,20.296279114670163 L-19.434680978056637,20.204173259576386 L-19.61678054759773,20.10678274412781 L-19.798989873223263,20.00416623272933 " />
			<path d="M-19.798989873223334,20.00416623272929 L-19.981199198848934,19.896385537730207 L-20.16329876839002,19.783505582191054 L-20.34517889187505,19.66559436077619 L-20.526730011518563,19.542722898796413 L-20.707842767714723,19.414965209425958 L-20.888408064911445,19.282398249119737 L-21.068317137325458,19.145101871257634 L-21.247461614458782,19.00315877804384 L-21.425733586377035,18.856654470690103 L-21.603025668710348,18.705677197913033 L-21.7792310673377,18.550317902776342 L-21.95424364271571,18.390670167910166 L-22.127957973813103,18.226830159140366 L-22.30026942161243,18.058896567561863 L-22.47107419214067,17.88697055009078 L-22.640269398990867,17.711155668531312 L-22.807753125297022,17.531557827193964 L-22.973424485125037,17.34828520910277 L-23.137183684242594,17.161448210829853 L-23.298932080231502,16.971159375996702 L-23.458572241906175,16.777533327482054 L-23.616008008002552,16.580686698377388 L-23.77114454510204,16.380738061731513 L-23.92388840475562,16.177807859126574 L-24.074147579773694,15.97201832812858 L-24.221831559647782,15.763493428656037 L-24.366851385070674,15.552358768311137 L-24.50911970152217,15.33874152671844 L-24.6485508118882,15.122770378916616 L-24.785060728081543,14.904575417849419 L-24.918567221633115,14.684288076002563 L-25.04898987322333,14.4620410462337 L-25.176250121123694,14.237968201843216 L-25.30027130851943,14.012204515933941 L-25.42097872968471,13.784885980108426 L-25.53829967498256,13.55614952255266 L-25.652163474662444,13.32613292555567 L-25.76250154142908,13.094974742514614 L-25.869247411756852,12.86281421447539 L-25.972336785924966,12.629791186259048 L-26.071707566749172,12.396046022224496 L-26.167299896986822,12.161719521718254 L-26.259056195392606,11.926952834262194 L-26.346921191403354,11.691887374530348 L-26.430841958430953,11.456664737165994 L-26.510767945743346,11.221426611490337 L-26.586651008914398,10.986314696154166 L-26.65844543882431,10.751470613783882 L-26.726107989193064,10.517035825673315 L-26.78959790263039,10.28315154657274 L-26.84887693518647,10.049958659626396 L-26.903909379388683,9.817597631509734 L-26.95466208575043,9.586208427817553 L-27.001104482739173,9.355930428753954 L-27.043208595191555,9.12690234517493 L-27.080949061164603,8.899262135034112 L-27.114303147212834,8.673146920282075 L-27.14325076208199,8.448692904269194 L-27.167774468811302,8.226035289701837 L-27.18785949523684,8.005308197201312 L-27.203493742889705,7.7866445845146295 L-27.214667794283713,7.570176166425714 L-27.221374918588133,7.3560333354153435 L-27.22361107568208,7.144345083117642 " />
			<path d="M-27.22361107568208,7.144345083117605 L-27.221374918588133,6.935238922620144 L-27.214667794283713,6.728840811655067 L-27.203493742889705,6.5252750767266905 L-27.18785949523684,6.324664338221924 L-27.167774468811302,6.127129436548326 L-27.14325076208199,5.932789359344364 L-27.114303147212834,5.741761169805694 L-27.080949061164603,5.554159936170693 L-27.04320859519155,5.370098662407643 L-27.001104482739173,5.189688220145362 L-26.95466208575043,5.013037281888286 L-26.903909379388683,4.840252255556218 L-26.84887693518647,4.671437220388177 L-26.78959790263039,4.506693864248943 L-26.726107989193064,4.346121422376102 L-26.65844543882431,4.189816617604449 L-26.586651008914394,4.037873602103766 L-26.510767945743343,3.8903839006650784 L-26.430841958430953,3.7474363555695342 L-26.346921191403354,3.6091170730731488 L-26.259056195392606,3.4755093715396033 L-26.167299896986822,3.3466937312523886 L-26.071707566749172,3.2227477459364913 L-25.972336785924966,3.103746076018817 L-25.869247411756856,2.9897604036555734 L-25.76250154142908,2.8808593895535957 L-25.652163474662444,2.7771086316116964 L-25.538299674982557,2.6785706254069765 L-25.420978729684705,2.585304726549799 L-25.30027130851943,2.497367114930201 L-25.176250121123694,2.4148107608772182 L-25.04898987322333,2.3376853932515598 L-24.918567221633115,2.2660374694907706 L-24.785060728081543,2.1999101476250438 L-24.6485508118882,2.1393432602804037 L-24.50911970152217,2.0843732906850487 L-24.36685138507067,2.0350333506932046 L-24.22183155964778,1.9913531608397843 L-24.074147579773687,1.9533590324378416 L-23.923888404755616,1.9210738517296395 L-23.77114454510204,1.8945170661008177 L-23.616008008002552,1.8737046723660118 L-23.458572241906175,1.8586492071329825 L-23.298932080231502,1.84935973925103 L-23.137183684242594,1.8458418643482482 L-22.973424485125037,1.8480977014609348 L-22.807753125297026,1.8561258917571681 L-22.640269398990867,1.8699215993553047 L-22.471074192140666,1.8894765142369447 L-22.300269421612423,1.914778857252566 L-22.1279579738131,1.9458133872168517 L-21.954243642715706,1.9825614100894082 L-21.779231067337697,2.025000790235355 L-21.603025668710345,2.0731059637589997 L-21.425733586377035,2.1268479539025833 L-21.247461614458782,2.186194388500784 L-21.068317137325458,2.251109519480506 L-20.888408064911445,2.3215542443941803 L-20.707842767714727,2.39748612997362 L-20.52673001151856,2.4788594376902235 L-20.345178891875044,2.56562515130617 L-20.163298768390018,2.657731006399951 L-19.98119919884893,2.7551215218485225 L-19.79898987322333,2.85773803324704 L-19.61678054759773,2.9655187282461224 L-19.43468097805664,3.0783986837852773 L-19.25280085457161,3.196309905200142 L-19.071249734928095,3.3191813671799206 L-18.890136978731935,3.4469390565503737 L-18.709571681535216,3.5795060168565964 L-18.529662609121203,3.7168023947186963 L-18.35051813198788,3.8587454879324934 L-18.17224616006963,4.005249795286227 L-17.994954077736317,4.1562270680632984 L-17.81874867910896,4.311586363199988 L-17.643736103730955,4.471234098066166 L-17.47002177263356,4.63507410683596 L-17.297710324834235,4.803007698414464 L-17.126905554305992,4.974933715885548 L-16.9577103474558,5.150748597445018 L-16.790226621149642,5.330346438782364 L-16.624555261321632,5.513619056873559 L-16.460796062204075,5.70045605514647 L-16.299047666215166,5.890744889979622 L-16.139407504540493,6.084370938494271 L-15.981971738444116,6.281217567598935 L-15.826835201344624,6.481166204244819 L-15.674091341691046,6.684096406849754 L-15.523832166672973,6.889885937847747 L-15.376148186798877,7.098410837320296 L-15.231128361375987,7.309545497665196 L-15.088860044924488,7.523162739257893 L-14.94942893455846,7.739133887059718 L-14.812919018365118,7.957328848126913 L-14.679412524813548,8.177616189973769 L-14.54898987322333,8.39986321974263 L-14.421729625322971,8.623936064133114 L-14.29770843792723,8.849699750042387 L-14.177001016761954,9.0770182858679 L-14.059680071464106,9.305754743423666 L-13.94581627178422,9.535771340420656 L-13.835478205017584,9.766929523461712 L-13.728732334689806,9.999090051500945 L-13.625642960521695,10.232113079717283 L-13.52627217969749,10.465858243751835 L-13.430679849459835,10.700184744258085 L-13.338923551054052,10.934951431714145 L-13.251058555043304,11.170016891445991 L-13.167137788015705,11.405239528810345 L-13.087211800703315,11.640477654486 L-13.011328737532262,11.875589569822168 L-12.939534307622353,12.110433652192453 L-12.871871757253597,12.34486844030302 L-12.80838184381627,12.57875271940359 L-12.74910281126019,12.811945606349934 L-12.694070367057979,13.044306634466595 L-12.64331766069623,13.275695838158779 L-12.596875263707489,13.505973837222376 L-12.554771151255109,13.735001920801402 L-12.517030685282057,13.96264213094222 L-12.483676599233828,14.188757345694256 L-12.454728984364671,14.413211361707138 L-12.430205277635357,14.635868976274493 L-12.410120251209824,14.856596068775014 L-12.39448600355696,15.075259681461693 L-12.383311952162948,15.291728099550607 L-12.376604827858529,15.505870930560986 L-12.374368670764582,15.71755918285865 " />
			<path d="M-24.94543648263006,1.7005485461274095 L-5.853553390593275,-9.322155296396895 " />
			<path d="M-13.945436482630061,20.75310742938506 L5.146446609406727,9.730403586860758 " />
			<path d="M8.881784197001252e-16,-8.573214099741122 L-0.35355339059327306,-8.777338244973055 " />
			<path d="M-19.798989873223334,20.00416623272929 L-19.445436482630058,20.208290377961223 " />
			<path d="M-27.22361107568208,7.1443450831176065 L-27.22361107568208,6.736096792653742 " />

       </g>
    </g>
    
</svg>
