<?xml version="1.0" encoding="UTF-8" standalone="no"?>
<svg
   xmlns:svg="http://www.w3.org/2000/svg"
   xmlns="http://www.w3.org/2000/svg"
   width="800.0"
   height="600.0"

>
    <g transform="scale(37.810523888524706, -37.810523888524706)   translate(12.196215152933107,-8.778917972143052)" stroke-width="0.5"  fill="none">
       <!-- hidden lines -->
       <g  stroke="rgb(200,200,200)" fill="none" stroke-dasharray="0.5,0.5" >
			<path d="M1.9999999999999996,3.464101615137755 L1.9503151803465835,3.4913960622847218 L1.8994555637555084,3.516587422995476 L1.847451786158045,3.5396605229362903 L1.794335172685272,3.5606014637345207 L1.740137718798987,3.579397631350461 L1.6848920710188378,3.596037703675574 L1.6286315072572795,3.610511657352504 L1.5713899167742038,3.6228107738127715 L1.513201779763317,3.632927644528514 L1.4541021465825597,3.6408561754751063 L1.3941266166410824,3.6465915908019744 L1.3333113169554924,3.650130435709385 L1.2716928803882899,3.6514705785294925 L1.2093084235816007,3.6506112120103733 L1.1461955245995008,3.6475528538022846 L1.0823922002923934,3.6422973461458517 L1.0179368833970808,3.63484785476237 L0.952868399386322,3.6252088669468954 L0.8872259430818169,3.6133861888652623 L0.821049055044714,3.599386942056669 L0.6872517316140998,3.5648937787539676 L0.5517987585658854,3.5218124740904306 L0.41501645397642273,3.47024681470247 L0.2772343383981821,3.410321026780168 L0.13878434101588044,3.3421794767955104 L-6.661338147750939e-16,3.265986323710904 L-0.138784341015882,3.181925123505862 L-0.27723433839818346,3.0901983869745706 L-0.41501645397642384,2.991027091859646 L-0.5517987585658866,2.8846501504973996 L-0.6872517316141016,2.7713238342570925 L-0.8210490550447148,2.651321156160762 L-0.9528683993863228,2.524931213170933 L-1.0823922002923942,2.3924584897307213 L-1.209308423581602,2.254222124234134 L-1.333311316955494,2.1105551401937284 L-1.4541021465825603,1.9618036439577988 L-1.571389916774205,1.8083259909098701 L-1.6848920710188389,1.6504919221591892 L-1.7943351726852723,1.4886816738020092 L-1.899455563755509,1.3232850608995252 L-2.0000000000000004,1.1547005383792517 L-2.0957262610651815,0.9833342411222006 L-2.1864037340035156,0.809599005548379 L-2.2718139688402856,0.6339133750576942 L-2.3517512048387177,0.456700591722241 L-2.426022866195616,0.2783875766590812 L-2.4944500259733426,0.0994039015398791 L-2.556867837150482,-0.07981924628488746 L-2.613125929752753,-0.2588501025540133 L-2.663088773107451,-0.43725736625349554 L-2.7066360023487057,-0.6146112386584499 L-2.743662708386988,-0.7904844587558899 L-2.774079690644295,-0.9644533325539251 L-2.797813671946156,-1.1360987537977034 L-2.814807475052765,-1.305007213633087 L-2.825020160403955,-1.4707717967856957 L-2.82842712474619,-1.6329931618554518 L-2.825020160403955,-1.7912805033649906 L-2.814807475052765,-1.9452524932442823 L-2.797813671946156,-2.0945381994833534 L-2.774079690644295,-2.2387779797399894 L-2.743662708386988,-2.3776243477496397 L-2.7066360023487057,-2.510742810450265 L-2.685671261700244,-2.575053300038091 L-2.663088773107451,-2.6378126738054184 L-2.6389021394170413,-2.6989831278522143 L-2.613125929752753,-2.758527815384273 L-2.5857756707394537,-2.8164108689083425 L-2.5568678371504814,-2.8725974218373667 L-2.526419841983856,-2.9270536294928116 L-2.494450025973342,-2.979746689491435 L-2.4609776465406767,-3.0306448615042143 L-2.426022866195616,-3.0797174863755337 L-2.389606740390797,-3.1269350045911146 L-2.3517512048387177,-3.1722689740835612 L-2.3124790622984857,-3.2156920873647965 L-2.271813968840286,-3.257178187975075 L-2.2297804195958535,-3.296702286238655 L-2.186403734003515,-3.334240574316644 L-2.1417100405567147,-3.369770440547949 L-2.0957262610651806,-3.403270483069701 L-2.048480094438233,-3.4347205227089312 L-2.000000000000009,-3.4641016151377495 " />
			<path d="M-0.8835358273121157,3.9742112628750847 L-0.9584009496653232,3.9352629351732995 L-1.0333378898681629,3.8939809025469048 L-1.183216693982361,3.804533312567062 L-1.3327512670215047,3.706119729177467 L-1.4815216032126677,3.599016571886451 L-1.6291098433359326,3.4835246670744735 L-1.7751014483879908,3.3599684030469392 L-1.9190863639200635,3.2286948189073685 L-2.0606601717798214,3.090072629810063 L-2.19942522602233,2.944491191330081 L-2.3349917697995384,2.7923594058593566 L-2.4669790300912346,2.63410457410063 L-2.5950162872026423,2.4701711948850504 L-2.7187439160247093,2.3010197166844772 L-2.8378143961324254,2.12712524432517 L-2.9518932878840833,1.9489762045353864 L-3.060660171779822,1.7670729740750462 L-3.1638095484410624,1.5819264743006942 L-3.2610516966829906,1.394056736113292 L-3.3521134872699836,1.2039914393195459 L-3.436739150068336,1.012264430509338 L-3.514690992441552,0.819414223612189 L-3.585750066870393,0.6259824873443077 L-3.649716785922521,0.4325125237946278 L-3.7064114828444126,0.23954774242309862 L-3.7556749162010106,0.047630133757398 L-3.797368717145676,-0.1427012529249182 L-3.831375778064189,-0.33091182365303096 L-3.857600581501183,-0.5164729413056058 L-3.875969468445142,-0.6988634104222132 L-3.886430845218418,-0.8775709411129685 L-3.888955328391157,-1.0520935879546163 L-3.887238147264053,-1.1376318981653486 L-3.883535827312117,-1.2219411598315353 " />
			<path d="M-1.0606601717798214,-0.6123724356957947 L-1.057786267095196,-0.5206153640676479 L-1.0491801269798087,-0.4260370326741397 L-1.0348883888526033,-0.3291499696876055 L-1.0149885008807646,-0.23047921449691883 L-0.9895883022813905,-0.13055947247355043 L-0.9588254389314309,-0.029932217356833213 L-0.9228666174527539,0.07085724303914681 L-0.8819067018145192,0.17126272189584024 L-0.8361676573484449,0.2707401132239292 L-0.785897347899443,0.36875034042082544 L-0.7313681926299691,0.46476227757348537 L-0.6728756897569774,0.5582556276757534 L-0.6107368152214802,0.6487237421629166 L-0.5452883049684603,0.7356763664841746 L-0.4768848301456091,0.818642296834527 L-0.40589707510964795,0.8971719336490205 L-0.33270972865568166,0.9708397180217434 L-0.25771939935528804,1.0392464378464097 L-0.18133246630030403,1.1020213911813528 L-0.10396287689931855,1.1588243951154642 L-0.02602990366080027,1.2093476292488634 L0.05204412788095547,1.2533173037983165 L0.1298361277844846,1.2904951432877922 L0.20692453446220715,1.3206796777839118 L0.2828915991591952,1.343707334678973 L0.35732564976987075,1.3594533251050858 L0.4298233217248132,1.3678323201758567 L0.4999917438583097,1.3687989133910194 L0.5674506674112436,1.3623478666981925 L0.6318345266320642,1.3485141388783404 L0.6627635720313545,1.3388506433195362 L0.6927944198092671,1.327372696101109 L0.7218863712352429,1.3140958524909176 L0.7499999999999964,1.29903810567666 " />
			<path d="M0.7499999999999998,1.299038105676658 L0.7858973478994424,1.276226431151138 L0.819901400251318,1.2503402153687413 L0.8519302383151071,1.2214418204906532 L0.881906701814519,1.1896008652813355 L0.9097585748233558,1.1548940573908253 L0.9354187597400032,1.1174050085592884 L0.9588254389314304,1.0772240331890126 L0.9799222236572823,1.0344479307691028 L0.998658289915294,0.9891797526770323 L1.0149885008807646,0.9415285539188497 L1.0288735156451203,0.891609130406115 L1.0402798839916105,0.8395417424024962 L1.0491801269798087,0.785451824806258 L1.0555528031447867,0.7294696849666062 L1.0593825601514832,0.6717301887618716 L1.0606601717798214,0.6123724356957947 L1.0593825601514832,0.5515394237946356 L1.0555528031447867,0.4893777051124072 L1.0491801269798087,0.42603703267413906 L1.0402798839916105,0.3616699997077223 L1.0288735156451203,0.2964316720334589 L1.0149885008807646,0.23047921449691894 L0.9986582899152944,0.16397151234506108 L0.9799222236572829,0.0970687884577558 L0.958825438931431,0.02993221735683399 L0.9354187597400041,-0.03727646307745308 L0.9097585748233568,-0.104395341247154 L0.8819067018145195,-0.17126272189583974 L0.8519302383151071,-0.23771751564663568 L0.8199014002513182,-0.3035996270806424 L0.7858973478994431,-0.3687503404208253 L0.7500000000000003,-0.43301270189221913 L0.7122958364083163,-0.4962318978373214 L0.6728756897569779,-0.5582556276757527 L0.6318345266320653,-0.6189344708096952 L0.5892712187903268,-0.6781222465912013 L0.5452883049684597,-0.7356763664841754 L0.49999174385830947,-0.7914581775726488 L0.45349065884310036,-0.8453332965878007 L0.4058970751096477,-0.8971719336490207 L0.357325649769871,-0.9468492049391 L0.30789339564176826,-0.9942454335602855 L0.25771939935528826,-1.0392464378464097 L0.20692453446220788,-1.0817438064365246 L0.15563117024115952,-1.1216351594473668 L0.10396287689931955,-1.1588243951154635 L0.0520441278809568,-1.1932219213146977 L5.551115123125783e-16,-1.224744871391589 L-0.052044127880955915,-1.2533173037983167 L-0.10396287689931871,-1.2788703850425633 L-0.1556311702411587,-1.3013425555134264 L-0.20692453446220704,-1.3206796777839116 L-0.2577193993552874,-1.3368351670327379 L-0.30789339564176743,-1.3497701032712508 L-0.3573256497698703,-1.3594533251050858 L-0.4058970751096469,-1.3658615048046943 L-0.45349065884309964,-1.3689792045038902 L-0.4999917438583088,-1.3687989133910194 L-0.5452883049684589,-1.3653210658031651 L-0.589271218790326,-1.3585540401797893 L-0.6318345266320644,-1.3485141388783402 L-0.6728756897569771,-1.335225548900445 L-0.7122958364083155,-1.3187202836233034 L-0.749999999999993,-1.299038105676662 " />
			<path d="M-0.7499999999999999,-1.299038105676658 L-0.7858973478994427,-1.2762264311511378 L-0.819901400251318,-1.2503402153687413 L-0.851930238315107,-1.2214418204906534 L-0.8819067018145189,-1.1896008652813355 L-0.9097585748233559,-1.154894057390825 L-0.9354187597400034,-1.1174050085592884 L-0.9588254389314306,-1.0772240331890124 L-0.9799222236572822,-1.0344479307691024 L-0.998658289915294,-0.9891797526770323 L-1.0149885008807646,-0.9415285539188497 L-1.0288735156451203,-0.891609130406115 L-1.0402798839916105,-0.8395417424024958 L-1.0491801269798087,-0.7854518248062574 L-1.055552803144787,-0.729469684966606 L-1.0593825601514832,-0.6717301887618717 L-1.0606601717798214,-0.612372435695796 " />
			<path d="M0.43933982822017814,3.2104486470491107 L0.3639315010368096,3.2498130029424015 L0.28509120773413255,3.282823533496685 L0.20300888148430674,3.309400713452475 L0.11788226580083139,3.329480516055373 L0.029916438157098213,3.3430145673021245 L-0.060676684063202035,3.349970262477834 L-0.15367885409362103,3.3503308447035742 L-0.2488660215605265,3.344095445305183 L-0.34600887224008015,3.331279085905966 L-0.444873380496286,3.3119126422382967 L-0.5452213730692466,3.2860427697612704 L-0.6468111028554075,3.253731791263618 L-0.7493978312975044,3.215057546722647 L-0.852734417981185,3.170113205780921 L-0.9565719160179114,3.1190070432924273 L-1.060660171779822,3.061862178478973 L-1.164748427541733,2.9988162783251915 L-1.268585925578459,2.9300212259267227 L-1.371922512262139,2.855642754590529 L-1.474509240704236,2.7758600485688447 L-1.5760989704903974,2.690865311388614 L-1.6764469630633578,2.600863302816366 L-1.7753114713195632,2.5060708455739946 L-1.8724543219991172,2.4067163029938357 L-1.9676414894660232,2.3030390288713956 L-2.0606436594964417,2.195288790841091 L-2.151236781716742,2.083725168664144 L-2.239202609360475,1.9686169288781974 L-2.3243292250439507,1.8502413773151867 L-2.4064115512937763,1.7288836910473018 L-2.485251844596453,1.6048362313704385 L-2.560660171779822,1.4783978394802335 L-2.6324548675787076,1.3498731165374451 L-2.700462972282458,1.2195716898570788 L-2.764520648410036,1.0878074669890654 L-2.8244735754088595,0.9548978794874754 L-2.8801773214265336,0.8211631181901056 L-2.9314976912598283,0.686925361850704 L-2.978311049642683,0.5525080009821293 L-3.0205046190943863,0.41823485878028477 L-3.05797675161041,0.284429411005673 L-3.0906371735413507,0.15141400670195715 L-3.1184072030700625,0.01950909162887715 L-3.1412199397630425,-0.11096756371964933 L-3.1590204257394388,-0.2397016296524832 L-3.1717657780693953,-0.36638297452902047 L-3.179425292082788,-0.4907064118934773 L-3.1819805153394642,-0.6123724356957944 L-3.179425292082788,-0.7310879418279482 L-3.1717657780693953,-0.8465669342374175 L-3.1590204257394388,-0.9585312139167207 L-3.1412199397630425,-1.0667110491091973 L-3.118407203070062,-1.170845825116435 L-3.0906371735413507,-1.270684672141904 L-3.0579767516104095,-1.3659870696582694 L-3.0205046190943863,-1.45652342584241 L-2.9783110496426826,-1.54207563068223 L-2.9314976912598283,-1.622437581422782 L-2.880177321426533,-1.6974156790858554 L-2.82447357540886,-1.7668292948668758 L-2.764520648410036,-1.8305112052855113 L-2.700462972282458,-1.888307995041688 L-2.6324548675787067,-1.9400804266064808 L-2.560660171779828,-1.9857037756575173 " />
			<path d="M-10.295941546018392,4.212313815585493 L-0.7499999999999982,-1.299038105676659 " />
			<path d="M-8.795941546018392,6.810390026938809 L0.7500000000000018,1.2990381056766571 " />

       </g>

       <!-- solid lines -->
       <g  stroke="rgb(40,40,40)" fill="none">
			<path d="M2.8284271247461903,1.6329931618554516 L2.825020160403955,1.7912805033649928 L2.814807475052765,1.9452524932442836 L2.7978136719461566,2.094538199483353 L2.774079690644295,2.2387779797399885 L2.743662708386988,2.3776243477496397 L2.7066360023487053,2.5107428104502647 L2.685671261700244,2.5750533000380904 L2.663088773107451,2.6378126738054184 L2.6389021394170418,2.6989831278522143 L2.6131259297527536,2.7585278153842716 L2.585775670739455,2.8164108689083407 L2.5568678371504827,2.872597421837364 L2.5264198419838575,2.92705362949281 L2.494450025973344,2.979746689491433 L2.460977646540678,3.0306448615042125 L2.4260228661956176,3.079717486375532 L2.3896067403907972,3.1269350045911146 L2.3517512048387177,3.1722689740835603 L2.3124790622984857,3.2156920873647956 L2.2718139688402847,3.2571781879750765 L2.2297804195958517,3.2967022862386557 L2.1864037340035147,3.3342405743166443 L2.141710040556715,3.369770440547949 L2.095726261065181,3.403270483069701 L2.0484800944382333,3.4347205227089312 L2.000000000000018,3.464101615137744 " />
			<path d="M-2.0,-3.464101615137755 L-1.9250303232939816,-3.504255606642446 L-1.8474517861580462,-3.53966052293629 L-1.767369525416946,-3.57026838218543 L-1.6848920710188386,-3.596037703675574 L-1.6001311989521512,-3.616933564027945 L-1.5132017797633173,-3.6329276445285137 L-1.4242216228806752,-3.643998269506395 L-1.3333113169554933,-3.650130435709385 L-1.2405940664365174,-3.651315832636833 L-1.1461955245995026,-3.6475528538022846 L-1.0502436232580192,-3.6388465989106438 L-0.9528683993863228,-3.6252088669468954 L-0.8542018188892286,-3.6066581401857567 L-0.7543775977578547,-3.5832195591439278 L-0.6535310208535927,-3.5549248885088933 L-0.5517987585658866,-3.521812474090431 L-0.4493186815923129,-3.483927190853196 L-0.34622967409196015,-3.44132038210078 L-0.24267144546533514,-3.3940497898936863 L-0.138784341015882,-3.342179476795511 L-0.03470915174969269,-3.2857797390533783 L0.0694130764287999,-3.224927011330302 L0.1734412338665745,-3.159703763118576 L0.2772343383981821,-3.090198386974572 L0.3806517264091136,-3.016505078726425 L0.4835532434674754,-2.9387237098169425 L0.5857994342655826,-2.8569596919547506 L0.6872517316141011,-2.771323834257093 L0.7877726442325689,-2.681932193077901 L0.8872259430818169,-2.5889059147246494 L0.9854768459857681,-2.4923710712771365 L1.082392200292393,-2.392458489730723 L1.1778406633262806,-2.289303574695558 L1.2716928803882888,-2.183046124892075 L1.3638216600610225,-2.073830143691451 L1.454102146582558,-1.961803643957802 L1.542411989054817,-1.8471184474565978 L1.6286315072572792,-1.7299299791011122 L1.7126438538413078,-1.6103970563157965 L1.7943351726852712,-1.4886816738020112 L1.873594753195879,-1.3649487839978063 L1.9503151803465826,-1.2393660735292975 L2.024392480249728,-1.112103735956588 L2.0957262610651806,-0.9833342411222018 L2.164219849054436,-0.8532321014146397 L2.2297804195958517,-0.7219736352638135 L2.292319122983438,-0.5897367281888675 L2.3517512048387164,-0.456700591722244 L2.407996120972462,-0.32304552053669855 L2.4609776465406767,-0.18895264810439227 L2.5106239793468443,-0.05460370121923108 L2.556867837150481,0.07981924628488613 L2.5996465488501053,0.21413402028614503 L2.6389021394170404,0.34815859326279797 L2.674581408464963,0.4817113309824641 L2.7066360023487057,0.6146112386584497 L2.7350224796946088,0.746678206239458 L2.759702370273608,0.87773325250028 L2.7806422271372764,1.0075987676026776 L2.797813671946156,1.1360987537977034 L2.8111934334289614,1.2630590639432682 L2.820763378920523,1.3883076375137275 L2.826510538935732,1.511674733781604 L2.82842712474619,1.6329931618554228 " />
			<path d="M1.7677669529663689,2.2453655975512463 L1.7643599886241335,2.4036529390607875 L1.7541473032729438,2.5576249289400783 L1.7371535001663352,2.7069106351791477 L1.7134195188644736,2.851150415435783 L1.6830025366071664,2.9899967834454344 L1.6459758305688839,3.1231152461460594 L1.6250110899204224,3.187425735733885 L1.6024286013276297,3.250185109501213 L1.5782419676372204,3.311355563548009 L1.5524657579729322,3.3709002510800663 L1.5251154989596336,3.4287833046041354 L1.4962076653706613,3.4849698575331587 L1.465759670204036,3.5394260651886045 L1.4337898541935226,3.5921191251872275 L1.4003174747608567,3.643017297200007 L1.3653626944157962,3.6920899220713266 L1.3289465686109758,3.7393074402869093 L1.2910910330588963,3.784641409779355 L1.2518188905186642,3.8280645230605903 L1.2111537970604633,3.869550623670871 L1.1691202478160303,3.9090747219344504 L1.1257435622236933,3.946613010012439 L1.0810498687768937,3.982142876243744 L1.0350660892853596,4.015642918765495 L0.9878199226584119,4.0470929584047255 L0.9393398282201968,4.076474050833538 " />
			<path d="M0.9393398282201781,4.076474050833549 L0.8936626972764801,4.10166777386917 L0.8469887040464927,4.125081674858277 L0.7993416560311863,4.146703810822953 L0.7507458570679524,4.166523152729955 L0.7012260949336857,4.184529591116408 L0.6508076287010192,4.2007139412464545 L0.547377899170896,4.227584289064605 L0.44066767158314035,4.247079378997292 L0.3308946414641545,4.259159439843935 L0.21828275264872232,4.263799827526228 L0.10306174042060201,4.260991075363588 L-0.014533337161792392,4.250738913385784 L-0.13426257879850712,4.233064256643313 L-0.25588172936167763,4.208003162539392 L-0.37914267819123904,4.1756067572706055 L-0.5037939652561623,4.135941131526271 L-0.6295812941486161,4.089087205659307 L-0.7562480508645166,4.035140564603663 L-0.8835358273121126,3.9742112628750865 " />
			<path d="M-3.8835358273121163,-1.2219411598315495 L-3.872658262220113,-1.3626402586906932 L-3.856044045465191,-1.4993102083494678 L-3.8337270710867872,-1.6316721935780043 L-3.8057528671059258,-1.7594561876628214 L-3.7721785026452106,-1.8824015032781887 L-3.733072471504253,-2.00025732430454 L-3.6885145524280456,-2.112783217509016 L-3.6385956463533393,-2.2197496230442733 L-3.58341759096506,-2.320938322764902 L-3.5230929529410706,-2.4161428854060687 L-3.457744798309122,-2.5051690877161836 L-3.3875064413844753,-2.587835310684456 L-3.3125211728003716,-2.6639729100550205 L-3.2732958813276762,-2.6995444075673345 L-3.232941967186194,-2.7334265603717456 L-3.191480014126825,-2.7656020858376067 L-3.148931171089681,-2.7960545718518612 L-3.105317141416426,-2.8247684851905395 L-3.0606601717798303,-2.851729179441955 " />
			<path d="M-3.0606601717798214,-2.85172917944196 L-2.9856904950738032,-2.8918831709466515 L-2.9081119579378676,-2.927288087240495 L-2.8280296971967673,-2.9578959464896353 L-2.7455522427986603,-2.9836652679797795 L-2.660791370731973,-3.0045611283321505 L-2.5738619515431385,-3.020555208832719 L-2.4848817946604966,-3.0316258338106 L-2.393971488735315,-3.03775800001359 L-2.301254238216339,-3.0389433969410384 L-2.206855696379324,-3.03518041810649 L-2.1109037950378404,-3.026474163214849 L-2.013528571166144,-3.0128364312511007 L-1.91486199066905,-2.994285704489962 L-1.815037769537676,-2.970847123448133 L-1.7141911926334141,-2.9425524528130986 L-1.612458930345708,-2.9094400383946364 L-1.5099788533721343,-2.871554755157401 L-1.4068898458717816,-2.8289479464049854 L-1.3033316172451566,-2.7816773541978916 L-1.1994445127957034,-2.729807041099716 L-1.095369323529514,-2.6734073033575836 L-0.9912470953510215,-2.6125545756345074 L-0.8872189379132469,-2.547331327422781 L-0.7834258333816393,-2.4778259512787773 L-0.6800084453707078,-2.4041326430306302 L-0.577106928312346,-2.326351274121148 L-0.47486073751423885,-2.244587256258956 L-0.3734084401657203,-2.1589513985612983 L-0.27288752754725254,-2.0695597573821063 L-0.1734342286980045,-1.9765334790288547 L-0.07518332579405329,-1.8799986355813418 L0.0217320285125715,-1.7800860540349284 L0.11718049154645915,-1.6769311389997634 L0.21103270860846735,-1.5706736891962803 L0.30316148828120104,-1.461457707995656 L0.3934419748027367,-1.3494312082620072 L0.4817518172749955,-1.2347460117608033 L0.5679713354774578,-1.1175575434053178 L0.6519836820614864,-0.998024620620002 L0.7336750009054498,-0.8763092381062166 L0.8129345814160576,-0.7525763483020117 L0.8896550085667612,-0.6269936378335029 L0.9637323084699068,-0.4997313002607934 L1.0350660892853591,-0.3709618054264072 L1.1035596772746148,-0.2408596657188451 L1.1691202478160303,-0.10960119956801895 L1.2316589512036167,0.022635707506927116 L1.291091033058895,0.1556718439735506 L1.3473359491926407,0.28932691515909603 L1.4003174747608553,0.4234197875914023 L1.449963807567023,0.5577687344765635 L1.4962076653706595,0.6921916819806807 L1.5389863770702839,0.8265064559819396 L1.578241967637219,0.9605310289585925 L1.6139212366851416,1.0940837666782586 L1.6459758305688843,1.2269836743542442 L1.6743623079147874,1.3590506419352526 L1.6990421984937867,1.4901056881960746 L1.719982055357455,1.6199712032984723 L1.7371535001663347,1.7484711894934981 L1.75053326164914,1.8754314996390629 L1.7601032071407015,2.000680073209522 L1.7658503671559105,2.124047169477399 L1.7677669529663684,2.2453655975512175 " />
			<path d="M1.0606601717798214,1.8371173070873832 L1.058104948523145,1.9558328132195397 L1.050445434509752,2.071311805629007 L1.037700082179796,2.18327608530831 L1.0198995962033996,2.2914559205007863 L0.9970868595104192,2.3955906965080245 L0.9693168299817079,2.495429543533493 L0.9366564080507671,2.5907319410498584 L0.8991842755347439,2.6812682972339985 L0.8569907060830406,2.766820502073818 L0.8101773477001863,2.8471824528143697 L0.7588569778668917,2.9221605504774435 L0.7031532318492171,2.991574166258465 L0.6432003048503923,3.055256076677102 L0.5791426287228145,3.1130528664332777 L0.5111345240190641,3.16482529799807 L0.43933982822019213,3.2104486470491027 " />
			<path d="M-2.5606601717798214,-1.9857037756575213 L-2.504432914250308,-2.01581926928604 L-2.446249011398356,-2.0423729565064233 L-2.3861873158425304,-2.0653288509432777 L-2.3243292250439502,-2.084655842060886 L-2.260758570993935,-2.100327737325164 L-2.195561506602309,-2.112323297700591 L-2.1288263889403276,-2.120626266434001 L-2.0606436594964412,-2.125225391086244 L-1.9911057216072094,-2.1261144387818303 L-1.920306815229448,-2.1232922046559186 L-1.8483428892233356,-2.1167625134871884 L-1.7753114713195635,-2.106534214514377 L-1.7013115359467428,-2.0926211694435226 L-1.6264433700982126,-2.0750422336621512 L-1.5508084374200157,-2.0538212306858754 L-1.4745092407042364,-2.0289869198720285 L-1.3976491829740558,-2.000572957444102 L-1.3203324273487913,-1.9686178508797902 L-1.2426637558788225,-1.9331649067244698 L-1.1647484275417328,-1.8942621719008388 L-1.086692035592091,-1.8519623685942395 L-1.0086003644582213,-1.8063228228019321 L-0.9305792463798904,-1.7574053866431374 L-0.8527344179811849,-1.7052763545351342 L-0.7751713769729862,-1.650006373349024 L-0.6979952391792149,-1.5916703466669122 L-0.6213105960806343,-1.5303473332702682 L-0.5452213730692457,-1.4661204399970247 L-0.4698306886053948,-1.3990767091126313 L-0.39524071446845843,-1.3293070003476926 L-0.32155253729049504,-1.256905867762058 L-0.24886602156052662,-1.1819714316022476 L-0.17727967428511093,-1.1046052453258741 L-0.10689051148860496,-1.0249121579732616 L-0.03779392673405435,-0.9430001720727935 L0.029916438157097325,-0.8589802972725572 L0.09614882001129121,-0.7729663998966539 L0.160813458663138,-0.6850750486300395 L0.22382271860115943,-0.5954253565410529 L0.2850912077341323,-0.504138819655714 L0.3445358931170881,-0.41133915230256035 L0.40207621348011524,-0.3171521194511785 L0.4576341884074746,-0.22170536627164628 L0.5111345240190643,-0.12512824514585685 L0.5625047150110056,-0.027551640365185204 L0.6116751429170675,0.07089220924793427 L0.6585791704577573,0.17006988955414398 L0.7031532318492162,0.26984699190411154 L0.7453369189495251,0.3700882952932706 L0.7850730631256861,0.4706579496175003 L0.8223078127303118,0.5714196597813712 L0.8569907060830397,0.672236870409459 L0.8890747398577576,0.7729729509104032 L0.9185164327829591,0.8734913806428929 L0.9452758845689009,0.9736559339326427 L0.9693168299817079,1.0733308646896318 L0.9906066879911353,1.1723810903753882 L1.009116605925385,1.2706723750710045 L1.0248214985731363,1.3680715113978028 L1.0377000821797964,1.4644465010440721 L1.0477349032918997,1.5596667336532457 L1.0549123624105707,1.65360316383109 L1.0592227324219774,1.7461284860319979 L1.0606601717798214,1.8371173070873614 " />
			<path d="M-10.606601717798213,4.898979485566357 L-10.603727813113588,4.990736557194504 L-10.5951216729982,5.0853148885880115 L-10.580829934870996,5.182201951574545 L-10.560930046899157,5.280872706765233 L-10.535529848299783,5.3807924487886005 L-10.504766984949823,5.481419703905318 L-10.468808163471147,5.5822091643012985 L-10.427848247832912,5.682614643157992 L-10.382109203366838,5.78209203448608 L-10.331838893917835,5.880102261682977 L-10.277309738648361,5.976114198835637 L-10.21881723577537,6.069607548937904 L-10.156678361239873,6.160075663425068 L-10.091229850986853,6.247028287746326 L-10.022826376164002,6.329994218096679 L-9.95183862112804,6.408523854911172 L-9.878651274674073,6.4821916392838945 L-9.80366094537368,6.550598359108561 L-9.727274012318697,6.613373312443504 L-9.649904422917711,6.670176316377615 L-9.571971449679193,6.720699550511014 L-9.493897418137436,6.764669225060468 L-9.416105418233908,6.801847064549944 L-9.339017011556185,6.832031599046063 L-9.263049946859198,6.855059255941124 L-9.188615896248521,6.870805246367237 L-9.11611822429358,6.879184241438008 L-9.045949802160083,6.880150834653171 L-8.978490878607149,6.873699787960344 L-8.914107019386329,6.859866060140492 L-8.883177973987038,6.8502025645816875 L-8.853147126209125,6.83872461736326 L-8.82405517478315,6.825447773753069 L-8.795941546018396,6.810390026938811 " />
			<path d="M-8.795941546018392,6.810390026938809 L-8.76004419811895,6.7875783524132896 L-8.726040145767074,6.761692136630892 L-8.694011307703285,6.732793741752804 L-8.664034844203874,6.700952786543487 L-8.636182971195037,6.666245978652976 L-8.61052278627839,6.6287569298214395 L-8.587116107086961,6.588575954451164 L-8.56601932236111,6.545799852031254 L-8.547283256103098,6.500531673939184 L-8.530953045137627,6.452880475181001 L-8.517068030373272,6.4029610516682665 L-8.505661662026782,6.350893663664648 L-8.496761419038585,6.296803746068409 L-8.490388742873606,6.240821606228757 L-8.486558985866909,6.1830821100240225 L-8.485281374238571,6.123724356957946 L-8.486558985866909,6.062891345056787 L-8.490388742873606,6.000729626374558 L-8.496761419038585,5.93738895393629 L-8.505661662026782,5.873021920969873 L-8.517068030373272,5.807783593295611 L-8.530953045137627,5.74183113575907 L-8.547283256103098,5.675323433607212 L-8.56601932236111,5.6084207097199075 L-8.587116107086961,5.541284138618986 L-8.610522786278388,5.474075458184698 L-8.636182971195035,5.406956580014997 L-8.664034844203872,5.340089199366312 L-8.694011307703285,5.273634405615516 L-8.726040145767074,5.207752294181509 L-8.76004419811895,5.142601580841326 L-8.795941546018392,5.078339219369933 L-8.833645709610076,5.01512002342483 L-8.873065856261414,4.953096293586398 L-8.914107019386327,4.892417450452456 L-8.956670327228066,4.8332296746709495 L-9.000653241049932,4.775675554777976 L-9.045949802160083,4.719893743689503 L-9.092450887175293,4.666018624674351 L-9.140044470908745,4.614179987613131 L-9.188615896248521,4.564502716323052 L-9.238048150376624,4.517106487701866 L-9.288222146663104,4.472105483415742 L-9.339017011556184,4.429608114825626 L-9.390310375777233,4.3897167618147845 L-9.441978669119072,4.352527526146687 L-9.493897418137436,4.318129999947454 L-9.545941546018392,4.286607049870563 L-9.597985673899348,4.258034617463835 L-9.649904422917711,4.232481536219588 L-9.701572716259552,4.210009365748725 L-9.752866080480599,4.1906722434782395 L-9.80366094537368,4.174516754229414 L-9.85383494166016,4.161581817990901 L-9.903267195788263,4.151898596157066 L-9.95183862112804,4.1454904164574575 L-9.999432204861492,4.142372716758262 L-10.0459332898767,4.142553007871132 L-10.091229850986851,4.146030855458986 L-10.135212764808719,4.152797881082362 L-10.177776072650456,4.162837782383811 L-10.218817235775369,4.176126372361706 L-10.258237382426708,4.192631637638848 L-10.295941546018385,4.212313815585489 " />
			<path d="M-10.295941546018392,4.212313815585493 L-10.331838893917835,4.235125490111013 L-10.36584294626971,4.26101170589341 L-10.3978717843335,4.289910100771498 L-10.42784824783291,4.321751055980815 L-10.455700120841747,4.356457863871326 L-10.481360305758395,4.393946912702863 L-10.504766984949823,4.434127888073139 L-10.525863769675674,4.476903990493049 L-10.544599835933687,4.522172168585119 L-10.560930046899157,4.569823367343302 L-10.574815061663513,4.619742790856036 L-10.586221430010003,4.671810178859656 L-10.5951216729982,4.725900096455894 L-10.601494349163179,4.781882236295545 L-10.605324106169876,4.839621732500279 L-10.606601717798213,4.898979485566356 " />
			<path d="M-7.4246212024587495,6.73609679265374 L-7.427176425715426,6.854812298785896 L-7.434835939728819,6.970291291195364 L-7.447581292058775,7.082255570874667 L-7.465381778035171,7.190435406067143 L-7.488194514728152,7.294570182074381 L-7.515964544256863,7.394409029099849 L-7.548624966187804,7.489711426616215 L-7.586097098703827,7.580247782800355 L-7.628290668155531,7.665799987640175 L-7.675104026538385,7.746161938380727 L-7.726424396371679,7.821140036043801 L-7.782128142389354,7.890553651824822 L-7.842081069388179,7.954235562243459 L-7.906138745515756,8.012032351999634 L-7.9741468502195065,8.063804783564427 L-8.045941546018378,8.10942813261546 " />
			<path d="M-8.045941546018392,8.109428132615466 L-8.121349873201762,8.148792488508757 L-8.200190166504438,8.181803019063041 L-8.282272492754265,8.208380199018832 L-8.36739910843774,8.22846000162173 L-8.455364936081473,8.241994052868481 L-8.545958058301773,8.24894974804419 L-8.638960228332191,8.249310330269932 L-8.734147395799097,8.24307493087154 L-8.831290246478652,8.230258571472323 L-8.930154754734858,8.210892127804653 L-9.030502747307818,8.185022255327628 L-9.132092477093979,8.152711276829974 L-9.234679205536075,8.114037032289003 L-9.338015792219755,8.069092691347278 L-9.441853290256482,8.017986528858785 L-9.545941546018392,7.960841664045329 L-9.650029801780304,7.897795763891548 L-9.75386729981703,7.829000711493079 L-9.85720388650071,7.754622240156886 L-9.959790614942808,7.674839534135201 L-10.061380344728969,7.589844796954971 L-10.161728337301929,7.499842788382723 L-10.260592845558135,7.405050331140352 L-10.357735696237688,7.305695788560192 L-10.452922863704593,7.202018514437752 L-10.545925033735013,7.094268276407448 L-10.636518155955313,6.982704654230501 L-10.724483983599047,6.867596414444554 L-10.809610599282522,6.749220862881543 L-10.891692925532347,6.627863176613658 L-10.970533218835024,6.503815716936796 L-11.045941546018392,6.37737732504659 L-11.117736241817278,6.248852602103802 L-11.185744346521028,6.118551175423436 L-11.249802022648607,5.9867869525554225 L-11.30975494964743,5.853877365053832 L-11.365458695665104,5.720142603756463 L-11.4167790654984,5.58590484741706 L-11.463592423881254,5.451487486548486 L-11.505785993332957,5.317214344346642 L-11.54325812584898,5.18340889657203 L-11.57591854777992,5.050393492268314 L-11.603688577308633,4.918488577195234 L-11.626501314001613,4.788011921846707 L-11.64430179997801,4.6592778559138734 L-11.657047152307966,4.532596511037337 L-11.664706666321358,4.40827307367288 L-11.667261889578036,4.286607049870563 L-11.664706666321358,4.167891543738408 L-11.657047152307966,4.052412551328939 L-11.64430179997801,3.940448271649636 L-11.626501314001613,3.8322684364571593 L-11.603688577308633,3.7281336604499216 L-11.57591854777992,3.6282948134244526 L-11.54325812584898,3.5329924159080877 L-11.505785993332957,3.4424560597239466 L-11.463592423881254,3.3569038548841266 L-11.4167790654984,3.2765419041435746 L-11.365458695665104,3.201563806480501 L-11.30975494964743,3.132150190699481 L-11.249802022648607,3.0684682802808454 L-11.185744346521028,3.0106714905246688 L-11.117736241817278,2.958899058959876 L-11.0459415460184,2.9132757099088393 " />
			<path d="M-11.045941546018392,2.9132757099088353 L-10.989714288488878,2.8831602162803165 L-10.931530385636927,2.8566065290599334 L-10.871468690081102,2.833650634623079 L-10.809610599282522,2.8143236435054706 L-10.746039945232505,2.7986517482411926 L-10.68084288084088,2.786656187865766 L-10.614107763178898,2.7783532191323554 L-10.545925033735012,2.7737540944801125 L-10.47638709584578,2.7728650467845264 L-10.40558818946802,2.775687280910438 L-10.333624263461907,2.7822169720791683 L-10.260592845558135,2.79244527105198 L-10.186592910185313,2.806358316122834 L-10.111724744336783,2.8239372519042054 L-10.036089811658586,2.8451582548804812 L-9.959790614942808,2.869992565694328 L-9.882930557212626,2.898406528122255 L-9.805613801587363,2.9303616346865664 L-9.727945130117394,2.965814578841887 L-9.650029801780304,3.004717313665518 L-9.571973409830662,3.047017116972117 L-9.493881738696793,3.0926566627644245 L-9.415860620618462,3.1415740989232193 L-9.338015792219755,3.1937031310312225 L-9.260452751211558,3.2489731122173326 L-9.183276613417785,3.3073091388994444 L-9.106591970319204,3.3686321522960885 L-9.030502747307816,3.432859045569332 L-8.955112062843966,3.4999027764537254 L-8.880522088707028,3.569672485218664 L-8.806833911529067,3.6420736178042987 L-8.734147395799097,3.717008053964109 L-8.662561048523681,3.794374240240483 L-8.592171885727176,3.874067327593095 L-8.523075300972625,3.9559793134935632 L-8.455364936081473,4.0399991882938 L-8.38913255422728,4.126013085669703 L-8.324467915575433,4.213904436936318 L-8.261458655637412,4.303554129025304 L-8.200190166504438,4.3948406659106425 L-8.140745481121483,4.487640333263796 L-8.083205160758455,4.581827366115178 L-8.027647185831096,4.677274119294711 L-7.9741468502195065,4.7738512404205 L-7.922776659227566,4.871427845201172 L-7.873606231321503,4.969871694814291 L-7.826702203780814,5.069049375120501 L-7.782128142389355,5.168826477470469 L-7.739944455289046,5.269067780859627 L-7.700208311112885,5.369637435183857 L-7.6629735615082595,5.470399145347728 L-7.628290668155531,5.571216355975816 L-7.596206634380813,5.67195243647676 L-7.566764941455611,5.772470866209249 L-7.54000548966967,5.872635419499 L-7.515964544256863,5.972310350255989 L-7.494674686247436,6.071360575941744 L-7.476164768313186,6.169651860637361 L-7.460459875665435,6.2670509969641595 L-7.447581292058775,6.363425986610429 L-7.437546470946671,6.458646219219602 L-7.430369011828001,6.552582649397447 L-7.426058641816594,6.645107971598355 L-7.4246212024587495,6.7360967926537185 " />
			<path d="M-3.060660171779822,-2.8517291794419606 L-2.0000000000000004,-3.4641016151377553 " />
			<path d="M0.939339828220179,4.07647405083355 L2.0000000000000004,3.4641016151377553 " />
			<path d="M-11.045941546018394,2.9132757099088358 L-2.560660171779822,-1.9857037756575218 " />
			<path d="M-8.045941546018392,8.109428132615468 L0.4393398282201788,3.210448647049111 " />

       </g>
    </g>
    
</svg>
